STARTFONT 2.1
COMMENT
COMMENT Converted from OpenType font "BarlowCondensed-Regular.ttf" by "otf2bdf 3.0".
COMMENT
FONT -FreeType-Barlow Condensed-Medium-R-Normal--83-600-100-100-P-269-ISO10646-1
SIZE 60 100 100
FONTBOUNDINGBOX 117 107 -35 -17
STARTPROPERTIES 19
FOUNDRY "FreeType"
FAMILY_NAME "Barlow Condensed"
WEIGHT_NAME "Medium"
SLANT "R"
SETWIDTH_NAME "Normal"
ADD_STYLE_NAME ""
PIXEL_SIZE 83
POINT_SIZE 600
RESOLUTION_X 100
RESOLUTION_Y 100
SPACING "P"
AVERAGE_WIDTH 269
CHARSET_REGISTRY "ISO10646"
CHARSET_ENCODING "1"
FONT_ASCENT 83
FONT_DESCENT 16
COPYRIGHT "Copyright 2017 The Barlow Project Authors (https://github.com/jpt/barlow)"
_OTF_FONTFILE "BarlowCondensed-Regular.ttf"
_OTF_PSNAME "BarlowCondensed-Regular"
ENDPROPERTIES
CHARS 525
STARTCHAR 0000
ENCODING 0
SWIDTH 0 0
DWIDTH 0 0
BBX 0 0 0 0
BITMAP
ENDCHAR
STARTCHAR 000D
ENCODING 13
SWIDTH 204 0
DWIDTH 17 0
BBX 0 0 0 0
BITMAP
ENDCHAR
STARTCHAR 0020
ENCODING 32
SWIDTH 204 0
DWIDTH 17 0
BBX 0 0 0 0
BITMAP
ENDCHAR
STARTCHAR 0021
ENCODING 33
SWIDTH 252 0
DWIDTH 21 0
BBX 9 59 6 0
BITMAP
3E00
3F00
3E00
3E00
3E00
3E00
3E00
3E00
3E00
3E00
3E00
3E00
3E00
3E00
3E00
3E00
3E00
3E00
3E00
3E00
3E00
3E00
3E00
3E00
3E00
3E00
3E00
3E00
3E00
3E00
3E00
3E00
3E00
3E00
3E00
3E00
3E00
3E00
3E00
3E00
0000
0000
0000
0000
0000
0000
0000
0000
0000
0000
3E00
7F00
FF80
FF80
FF80
FF80
FF80
7F00
3E00
ENDCHAR
STARTCHAR 0022
ENCODING 34
SWIDTH 240 0
DWIDTH 20 0
BBX 16 17 2 42
BITMAP
FC3F
FC3F
FC3F
FC3E
FC3E
F83E
F83E
F83E
F83E
F83E
F83E
F83E
F83E
F83E
F83E
F83E
783E
ENDCHAR
STARTCHAR 0023
ENCODING 35
SWIDTH 588 0
DWIDTH 49 0
BBX 40 55 5 2
BITMAP
001F8003F0
001F8003F0
001F8003F0
001F8003F0
001F8003E0
001F8007E0
001F0007E0
003F0007E0
003F0007E0
003F0007E0
003F0007E0
003F0007E0
003F000FC0
003E000FC0
007E000FC0
007E000FC0
3FFFFFFFFE
3FFFFFFFFF
3FFFFFFFFF
3FFFFFFFFF
3FFFFFFFFE
00FC001F80
00FC001F80
00FC001F80
00FC003F80
00FC003F00
01FC003F00
01F8003F00
01F8003F00
01F8003F00
01F8003F00
01F8007F00
01F8007E00
03F8007E00
03F0007E00
FFFFFFFFF8
FFFFFFFFF8
FFFFFFFFF8
FFFFFFFFF8
FFFFFFFFF8
07E000FC00
07E000FC00
07E000FC00
07E000FC00
07E000F800
07E001F800
07C001F800
0FC001F800
0FC001F800
0FC001F800
0FC001F800
0FC001F000
0FC003F000
0F8003F000
1F8003F000
ENDCHAR
STARTCHAR 0024
ENCODING 36
SWIDTH 420 0
DWIDTH 35 0
BBX 28 75 3 -7
BITMAP
000F8000
000F8000
000F8000
000F8000
000F8000
000F8000
000F8000
000F8000
007FE000
01FFF800
07FFFE00
0FFFFF00
1FFFFF80
1FE07F80
3F803FC0
3F000FC0
7F000FE0
7E0007E0
7E0007E0
7C0003F0
FC0003F0
FC0003F0
FC0003F0
FC0003F0
7C0003F0
7E0003F0
7E000000
7F000000
3F000000
3F800000
1FC00000
1FE00000
0FF00000
07FC0000
03FE0000
01FF0000
00FFC000
007FE000
003FF000
000FF800
0007FC00
0003FE00
0000FF00
00007F80
00003FC0
00001FE0
00000FE0
000007E0
000007F0
000003F0
000003F0
FC0003F0
FC0003F0
FC0003F0
7C0003F0
7C0003F0
7E0003F0
7E0003F0
7E0007F0
7F0007E0
3F800FE0
3FC01FC0
1FF07FC0
0FFFFF80
07FFFF00
03FFFE00
01FFF800
003FE000
00078000
00078000
00078000
00078000
00078000
000F8000
00078000
ENDCHAR
STARTCHAR 0025
ENCODING 37
SWIDTH 780 0
DWIDTH 65 0
BBX 53 60 6 -1
BITMAP
00FE000000F000
03FF800001F000
0FFFE00001E000
1FFFF00003E000
3F81F80007C000
3E00FC0007C000
7C003C000F8000
78003E000F0000
F0001E001F0000
F0001E001E0000
F0001E003E0000
F0000E003C0000
F0000E007C0000
F0001E00780000
F0001E00F80000
78003E00F00000
7C003C01F00000
3E00FC01E00000
3F81F803E00000
1FFFF007C00000
0FFFE007C00000
03FF800F800000
00FE000F000000
0000001F000000
0000001E000000
0000003E000000
0000003C000000
0000007C000000
00000078000000
000000F8000000
000000F0000000
000001F0000000
000001E0000000
000003E0000000
000007C0000000
000007C003F800
00000F800FFE00
00000F003FFF80
00001F007FFFC0
00001E00FE0FE0
00003E00F803E0
00003C01F001F0
00007C01E000F0
00007803C00078
0000F803C00078
0000F003C00078
0001F003C00078
0001E003C00078
0003E003C00078
0003C003C00078
0007C003C00078
000F8001E000F0
000F0001E000F0
001F0000F001F0
001E0000FC07E0
003E00007FFFC0
003C00003FFF80
007C00001FFF00
0078000007FC00
00000000004000
ENDCHAR
STARTCHAR 0026
ENCODING 38
SWIDTH 540 0
DWIDTH 45 0
BBX 38 60 3 -1
BITMAP
000FF00000
003FFC0000
00FFFF0000
01FFFF8000
03FFFFC000
03FC3FC000
07F00FE000
07E007E000
0FE007F000
0FC003F000
0FC003F000
0FC003F000
0FC003F000
0FC003F000
0FC003F000
0FC003F000
0FC003F000
0FE007E000
07E00FE000
07F00FE000
03F01FC000
03F83F8000
01F87F8000
00FCFF0000
00FFFE0000
007FFC0000
003FF80000
003FF00000
003FE00000
007FC00000
00FFE00000
01FFF00000
03FFF00000
07F9F80000
0FF1FC0000
1FE0FC0000
1FC07E0000
3F807F00E0
3F003F00F8
7F001F81F8
7E000FC1F8
7E000FE3F0
7E0007E7F0
7C0003F7E0
FC0003FFC0
FC0001FFC0
FC0000FF80
FC0000FF00
7E00007F00
7E0000FF00
7F0001FF80
7F0003FFC0
3F8007FFC0
3FE01FF7E0
1FFFFFE7F0
0FFFFFC3F0
07FFFF01F8
03FFFE01FC
00FFF800FC
0002000000
ENDCHAR
STARTCHAR 0027
ENCODING 39
SWIDTH 120 0
DWIDTH 10 0
BBX 6 17 2 42
BITMAP
FC
FC
FC
FC
FC
FC
FC
FC
FC
FC
FC
F8
F8
F8
F8
F8
78
ENDCHAR
STARTCHAR 0028
ENCODING 40
SWIDTH 228 0
DWIDTH 19 0
BBX 13 73 0 -9
BITMAP
01F8
01F8
03F0
03F0
07F0
07E0
07E0
0FE0
0FC0
0FC0
1FC0
1FC0
1F80
1F80
3F80
3F80
3F00
3F00
7F00
7F00
7F00
7F00
7E00
7E00
FE00
FE00
FE00
FE00
FE00
FE00
FE00
FE00
FE00
FE00
FE00
FE00
FE00
FE00
FE00
FE00
FE00
FE00
FE00
FE00
FE00
FE00
FE00
FE00
FE00
7E00
7E00
7F00
7F00
7F00
7F00
3F00
3F00
3F80
3F80
3F80
1F80
1FC0
1FC0
0FC0
0FC0
0FE0
07E0
07E0
07F0
03F0
03F0
01F8
01F8
ENDCHAR
STARTCHAR 0029
ENCODING 41
SWIDTH 228 0
DWIDTH 19 0
BBX 14 73 5 -9
BITMAP
FC00
7E00
7E00
7F00
3F00
3F00
3F80
1F80
1FC0
1FC0
0FC0
0FC0
0FE0
0FE0
07E0
07E0
07F0
07F0
07F0
03F0
03F0
03F8
03F8
03F8
03F8
03F8
01F8
01F8
01F8
01F8
01FC
01FC
01FC
01FC
01FC
01FC
01FC
01FC
01FC
01FC
01FC
01FC
01F8
01F8
01F8
01F8
03F8
03F8
03F8
03F8
03F8
03F0
03F0
03F0
07F0
07F0
07F0
07E0
07E0
0FE0
0FE0
0FC0
0FC0
1FC0
1F80
1F80
1F80
3F00
3F00
7F00
7E00
7E00
FC00
ENDCHAR
STARTCHAR 002A
ENCODING 42
SWIDTH 360 0
DWIDTH 30 0
BBX 26 30 2 33
BITMAP
001E0000
001E0000
001E0000
001E0000
001E0000
001E0000
601E0180
701E0380
FC1E0FC0
FF1E3FC0
3F9E7F00
1FFFFE00
07FFF800
01FFE000
00FFC000
007F8000
01FFE000
03FFF800
0FFFFC00
3FDEFF00
7F1E3F80
FC1E0FC0
781E0780
601E0180
001E0000
001E0000
001E0000
001E0000
001E0000
001E0000
ENDCHAR
STARTCHAR 002B
ENCODING 43
SWIDTH 444 0
DWIDTH 37 0
BBX 31 32 3 11
BITMAP
0007C000
0007C000
0007C000
0007C000
0007C000
0007C000
0007C000
0007C000
0007C000
0007C000
0007C000
0007C000
0007C000
0007C000
FFFFFFFE
FFFFFFFE
FFFFFFFE
FFFFFFFE
FFFFFFFE
0007C000
0007C000
0007C000
0007C000
0007C000
0007C000
0007C000
0007C000
0007C000
0007C000
0007C000
0007C000
0007C000
ENDCHAR
STARTCHAR 002C
ENCODING 44
SWIDTH 180 0
DWIDTH 15 0
BBX 8 20 3 -7
BITMAP
1F
1F
1F
3F
3E
3E
3E
3E
3E
3C
7C
7C
7C
7C
78
78
78
F8
F8
F0
ENDCHAR
STARTCHAR 002D
ENCODING 45
SWIDTH 312 0
DWIDTH 26 0
BBX 20 5 3 24
BITMAP
FFFFF0
FFFFF0
FFFFF0
FFFFF0
FFFFF0
ENDCHAR
STARTCHAR 002E
ENCODING 46
SWIDTH 192 0
DWIDTH 16 0
BBX 10 9 3 0
BITMAP
1E00
7F80
7F80
FFC0
FFC0
FF80
7F80
7F00
1E00
ENDCHAR
STARTCHAR 002F
ENCODING 47
SWIDTH 336 0
DWIDTH 28 0
BBX 21 59 2 0
BITMAP
0001F8
0001F8
0001F8
0003F0
0003F0
0003F0
0003F0
0007E0
0007E0
0007E0
0007C0
000FC0
000FC0
000FC0
000F80
001F80
001F80
001F80
003F00
003F00
003F00
003F00
007E00
007E00
007E00
007E00
00FC00
00FC00
00FC00
00F800
01F800
01F800
01F800
01F000
03F000
03F000
03F000
07E000
07E000
07E000
07E000
0FC000
0FC000
0FC000
0FC000
1F8000
1F8000
1F8000
1F0000
3F0000
3F0000
3F0000
3E0000
7E0000
7E0000
7E0000
FC0000
FC0000
FC0000
ENDCHAR
STARTCHAR 0030
ENCODING 48
SWIDTH 444 0
DWIDTH 37 0
BBX 29 61 4 -1
BITMAP
003FE000
00FFF800
03FFFE00
07FFFF00
0FFFFF80
1FF07FC0
3FC01FE0
3F800FE0
7F0007F0
7E0003F0
7E0003F0
7E0003F0
FC0001F8
FC0001F8
FC0001F8
FC0001F8
FC0001F8
FC0001F8
FC0001F8
FC0001F8
FC0001F8
FC0001F8
FC0001F8
FC0001F8
FC0001F8
FC0001F8
FC0001F8
FC0001F8
FC0001F8
FC0001F8
FC0001F8
FC0001F8
FC0001F8
FC0001F8
FC0001F8
FC0001F8
FC0001F8
FC0001F8
FC0001F8
FC0001F8
FC0001F8
FC0001F8
FC0001F8
FC0001F8
FC0001F8
FC0001F8
FC0001F8
FC0001F8
7E0003F0
7E0003F0
7E0003F0
7F0007F0
3F0007E0
3F800FE0
1FE03FC0
1FFFFF80
0FFFFF80
07FFFE00
01FFFC00
007FF000
00020000
ENDCHAR
STARTCHAR 0031
ENCODING 49
SWIDTH 252 0
DWIDTH 21 0
BBX 15 59 1 0
BITMAP
007E
01FE
07FE
1FFE
7FFE
FFFE
FFFE
FE7E
F07E
807E
007E
007E
007E
007E
007E
007E
007E
007E
007E
007E
007E
007E
007E
007E
007E
007E
007E
007E
007E
007E
007E
007E
007E
007E
007E
007E
007E
007E
007E
007E
007E
007E
007E
007E
007E
007E
007E
007E
007E
007E
007E
007E
007E
007E
007E
007E
007E
007E
003E
ENDCHAR
STARTCHAR 0032
ENCODING 50
SWIDTH 408 0
DWIDTH 34 0
BBX 28 59 3 0
BITMAP
003F8000
01FFF000
03FFF800
0FFFFC00
0FFFFE00
1FE1FF00
3F807F80
3F003F80
7F001FC0
7E001FC0
7E000FC0
FC000FC0
FC000FC0
FC000FC0
FC000FE0
FC000FC0
FC000FC0
FC000FC0
7C000FC0
00000FC0
00001FC0
00001F80
00001F80
00003F80
00003F80
00003F00
00007F00
00007E00
0000FE00
0001FC00
0001FC00
0003F800
0003F800
0007F000
000FE000
000FE000
001FC000
001FC000
003F8000
007F0000
007F0000
00FE0000
00FE0000
01FC0000
03F80000
03F80000
07F00000
0FE00000
0FE00000
1FC00000
1FC00000
3F800000
7F000000
7F000000
FFFFFFF0
FFFFFFF0
FFFFFFF0
FFFFFFF0
FFFFFFF0
ENDCHAR
STARTCHAR 0033
ENCODING 51
SWIDTH 408 0
DWIDTH 34 0
BBX 27 60 3 -1
BITMAP
7FFFFFC0
FFFFFFE0
FFFFFFE0
FFFFFFE0
7FFFFFC0
00001FC0
00003FC0
00003F80
00007F00
0000FF00
0000FE00
0001FC00
0001FC00
0003F800
0007F800
0007F000
000FE000
000FE000
001FC000
003F8000
003F8000
007F0000
00FF8000
00FFF000
00FFF800
007FFC00
0030FE00
00007F00
00003F00
00001F80
00001F80
00000F80
00000FC0
00000FC0
000007C0
000007C0
000007C0
000007E0
000007E0
000007E0
000007E0
FC0007E0
FC0007E0
FC0007E0
FC0007C0
FC0007C0
FC000FC0
FE000FC0
7E000FC0
7E000FC0
7F001F80
7F001F80
3F803F80
3FC07F00
1FFFFF00
0FFFFE00
07FFFC00
03FFF800
00FFE000
00040000
ENDCHAR
STARTCHAR 0034
ENCODING 52
SWIDTH 420 0
DWIDTH 35 0
BBX 31 59 2 0
BITMAP
0007E000
000FE000
000FC000
000FC000
001FC000
001F8000
001F8000
003F8000
003F0000
003F0000
007F0000
007E0000
007E0000
00FE0000
00FC0000
00FC0000
01FC0000
01F80000
01F80000
03F80000
03F00000
03F00000
07F00000
07E007E0
07E007E0
0FE007E0
0FC007E0
0FC007E0
1FC007E0
1F8007E0
1F8007E0
3F8007E0
3F0007E0
3F0007E0
7F0007E0
7F0007E0
7E0007E0
FE0007E0
FFFFFFFE
FFFFFFFE
FFFFFFFE
FFFFFFFE
FFFFFFFE
000007E0
000007E0
000007E0
000007E0
000007E0
000007E0
000007E0
000007E0
000007E0
000007E0
000007E0
000007E0
000007E0
000007E0
000007E0
000007E0
ENDCHAR
STARTCHAR 0035
ENCODING 53
SWIDTH 408 0
DWIDTH 34 0
BBX 27 60 4 -1
BITMAP
FFFFFFC0
FFFFFFC0
FFFFFFC0
FFFFFFC0
FFFFFFC0
FC000000
FC000000
FC000000
FC000000
FC000000
FC000000
FC000000
FC000000
FC000000
FC000000
FC000000
FC000000
FC000000
FC000000
FC000000
FC000000
FC000000
FC000000
FC1FE000
FC7FF800
FCFFFC00
FDFFFE00
FFFFFF00
FFE0FF80
FF803F80
FF001FC0
FE001FC0
FE000FC0
FE000FC0
00000FC0
000007E0
000007E0
000007E0
000007E0
000007E0
000007E0
000007E0
000007E0
000007E0
7C0007E0
FC0007E0
7E0007E0
7E0007E0
7E000FC0
7E000FC0
7F000FC0
3F001FC0
3F803F80
1FC07F80
1FFFFF00
0FFFFE00
07FFFC00
03FFF800
00FFE000
00060000
ENDCHAR
STARTCHAR 0036
ENCODING 54
SWIDTH 408 0
DWIDTH 34 0
BBX 27 60 4 -1
BITMAP
003F8000
01FFF000
03FFF800
0FFFFC00
0FFFFE00
1FF1FF00
3FC07F80
3F803F80
7F001F80
7E001FC0
7E000FC0
7E000FC0
FE000FC0
FC000FC0
FC000FC0
FC000FC0
FC000000
FC000000
FC000000
FC000000
FC000000
FC000000
FC3FC000
FCFFF000
FDFFFC00
FFFFFE00
FFFFFF00
FFE0FF00
FF803F80
FF801F80
FF001FC0
FF000FC0
FE000FC0
FE000FC0
FE0007E0
FE0007E0
FE0007E0
FC0007E0
FC0007E0
FC0007E0
FC0007E0
FC0007E0
FC0007E0
7C0007E0
7E0007E0
7E0007E0
7E0007E0
7E0007E0
7E000FE0
7E000FC0
3F000FC0
3F801FC0
3F803F80
1FE07F80
1FFFFF00
0FFFFE00
07FFFC00
03FFF800
00FFE000
00060000
ENDCHAR
STARTCHAR 0037
ENCODING 55
SWIDTH 372 0
DWIDTH 31 0
BBX 27 59 2 0
BITMAP
FFFFFFE0
FFFFFFE0
FFFFFFE0
FFFFFFE0
FFFFFFE0
F80007E0
F8000FE0
F8000FC0
F8000FC0
F8000FC0
00001FC0
00001F80
00001F80
00001F80
00003F80
00003F00
00003F00
00007F00
00007E00
00007E00
00007E00
0000FE00
0000FC00
0000FC00
0000FC00
0001FC00
0001F800
0001F800
0003F800
0003F000
0003F000
0003F000
0007F000
0007E000
0007E000
0007E000
000FE000
000FC000
000FC000
001FC000
001FC000
001F8000
001F8000
003F8000
003F0000
003F0000
003F0000
007F0000
007E0000
007E0000
007E0000
00FE0000
00FC0000
00FC0000
01FC0000
01FC0000
01F80000
01F80000
03F80000
ENDCHAR
STARTCHAR 0038
ENCODING 56
SWIDTH 420 0
DWIDTH 35 0
BBX 27 61 4 -1
BITMAP
003FC000
01FFF000
03FFFC00
0FFFFE00
1FFFFF00
1FF0FF00
3F807F80
3F801F80
7F001FC0
7E000FC0
7E000FC0
7E0007E0
FC0007E0
FC0007E0
FC0007E0
FC0007E0
FC0007E0
FC0007E0
7C0007E0
7E0007C0
7E000FC0
7E000FC0
3F001FC0
3F001F80
1F803F80
1FE0FF00
0FFFFE00
07FFFC00
01FFF800
03FFFC00
0FFFFE00
0FF1FF00
1FC07F00
3F803F80
3F001F80
7E000FC0
7E000FC0
7E000FC0
7E0007C0
7C0007E0
FC0007E0
FC0007E0
FC0007E0
FC0007E0
FC0007E0
FC0007E0
FC0007E0
7E0007E0
7E000FC0
7E000FC0
7E000FC0
7F001FC0
3F001F80
3F803F80
1FE07F00
0FFFFF00
0FFFFE00
07FFFC00
01FFF000
00FFE000
00040000
ENDCHAR
STARTCHAR 0039
ENCODING 57
SWIDTH 408 0
DWIDTH 34 0
BBX 27 60 2 -1
BITMAP
003FC000
01FFF000
03FFFC00
0FFFFE00
0FFFFF00
1FF0FF80
3FC03F80
3F801F80
3F001FC0
7F000FC0
7E000FC0
7E0007E0
7E0007E0
7E0007E0
7E0007E0
7E0007E0
7C0007E0
FC0007E0
FC0007E0
FC0007E0
7C0007E0
7E0007E0
7E0007E0
7E0007E0
7E0007E0
7E0007E0
7E000FE0
3F000FE0
3F000FE0
3F801FE0
1FC03FE0
1FF0FFE0
0FFFFFE0
07FFFFE0
03FFF7E0
01FFE7E0
003F87E0
000007E0
000007E0
000007E0
000007E0
000007E0
000007E0
7E0007E0
7E0007E0
7E0007E0
7E0007E0
7E0007E0
3F0007E0
3F000FE0
3F000FC0
3F801FC0
1FC03FC0
1FE07F80
0FFFFF00
07FFFF00
03FFFE00
01FFF800
007FE000
00060000
ENDCHAR
STARTCHAR 003A
ENCODING 58
SWIDTH 216 0
DWIDTH 18 0
BBX 10 37 4 1
BITMAP
1E00
7F80
7F80
FFC0
FFC0
FF80
7F80
7F00
1E00
0000
0000
0000
0000
0000
0000
0000
0000
0000
0000
0000
0000
0000
0000
0000
0000
0000
0000
0000
1E00
7F80
7F80
FFC0
FFC0
FF80
7F80
7F00
1E00
ENDCHAR
STARTCHAR 003B
ENCODING 59
SWIDTH 192 0
DWIDTH 16 0
BBX 10 45 3 -6
BITMAP
1E00
3F00
7F80
7F80
FFC0
7FC0
7F80
7F80
3F00
1E00
0000
0000
0000
0000
0000
0000
0000
0000
0000
0000
0000
0000
0000
0000
0000
0000
1F00
3F00
3F00
3E00
3E00
3E00
3E00
3E00
3E00
3C00
3C00
7C00
7C00
7C00
7C00
7800
7800
7800
7800
ENDCHAR
STARTCHAR 003C
ENCODING 60
SWIDTH 444 0
DWIDTH 37 0
BBX 31 36 3 5
BITMAP
00000002
0000000E
0000003E
000000FE
000003FE
00000FFE
00003FFC
0000FFE0
0007FF80
001FFE00
007FF800
01FFE000
07FF8000
1FFE0000
7FF80000
FFE00000
FF000000
FC000000
FC000000
FF000000
FFE00000
7FF80000
1FFE0000
07FF8000
01FFE000
007FF800
001FFE00
0007FF80
0000FFE0
00003FFC
00000FFE
000003FE
000000FE
0000003E
0000000E
00000002
ENDCHAR
STARTCHAR 003D
ENCODING 61
SWIDTH 444 0
DWIDTH 37 0
BBX 31 22 3 17
BITMAP
FFFFFFFE
FFFFFFFE
FFFFFFFE
FFFFFFFE
FFFFFFFE
00000000
00000000
00000000
00000000
00000000
00000000
00000000
00000000
00000000
00000000
00000000
00000000
FFFFFFFE
FFFFFFFE
FFFFFFFE
FFFFFFFE
FFFFFFFE
ENDCHAR
STARTCHAR 003E
ENCODING 62
SWIDTH 444 0
DWIDTH 37 0
BBX 31 36 3 5
BITMAP
80000000
E0000000
F8000000
FE000000
FF800000
FFE00000
7FF80000
1FFE0000
07FF8000
00FFE000
003FF800
000FFE00
0003FFC0
0000FFF0
00003FFC
00000FFE
000003FE
0000007E
0000007E
000003FE
00000FFE
00003FFC
0000FFF0
0003FF80
000FFE00
003FF800
00FFE000
03FF8000
1FFE0000
7FF80000
FFE00000
FF800000
FE000000
F8000000
E0000000
80000000
ENDCHAR
STARTCHAR 003F
ENCODING 63
SWIDTH 372 0
DWIDTH 31 0
BBX 26 59 2 0
BITMAP
003F8000
01FFF000
03FFF800
07FFFC00
0FFFFE00
1FE1FF00
3F807F80
3F003F80
7F001F80
7E001FC0
7E000FC0
7E000FC0
FC000FC0
FC000FC0
FC000FC0
FC000FC0
FC000FC0
FC000FC0
00000FC0
00000FC0
00001FC0
00003F80
00003F80
00007F00
0000FF00
0001FE00
0003FC00
0007FC00
000FF800
000FF000
001FE000
003FC000
003F8000
003F0000
007F0000
007E0000
007E0000
007E0000
007E0000
007E0000
007E0000
007E0000
007E0000
00000000
00000000
00000000
00000000
00000000
00000000
00000000
003E0000
007F0000
00FF8000
00FF8000
00FF8000
00FF8000
00FF8000
007F0000
003E0000
ENDCHAR
STARTCHAR 0040
ENCODING 64
SWIDTH 756 0
DWIDTH 63 0
BBX 55 59 4 -7
BITMAP
0000003FF80000
000003FFFF8000
00001FFFFFE000
00007FFFFFF800
0000FFC00FFC00
0003FC0001FF00
0007F000007F80
000FC000001FC0
001F8000000FC0
003E00000007E0
007C00000003F0
00F800000001F0
01F000000000F8
03E000000000F8
03E000FC38007C
07C003FF7C007C
078007FFF8007C
0F800FFFF8003E
0F000FC3F8003E
1F001F01F8003E
1E001F00F8003E
3E003E00F8001E
3C003E00F8001E
3C003C00F8001E
7C003C00F0001E
7C003C00F0001E
78003C00F0001E
78003C00F0003E
78007C00F0003E
F8007C01F0003E
F8007C01F0003E
F8007801F0003C
F8007801E0003C
F8007801E0007C
F8007801E00078
F8007801E000F8
F8007803E000F8
F8007803F001F0
F8007803F003F0
F8007C07F807E0
78007E1FFE0FC0
7C003FFF7FFF80
7C001FFE7FFF00
7C000FFC1FFC00
3E0003F007F000
3E000000000000
3F000000000000
1F800000000000
0F800000000000
0FC00000000000
07E00000000000
03F800000C0000
01FC00001E0000
00FF0000FF0000
007FE007FE0000
003FFFFFF80000
000FFFFFE00000
0003FFFF800000
00003FF8000000
ENDCHAR
STARTCHAR 0041
ENCODING 65
SWIDTH 408 0
DWIDTH 34 0
BBX 32 59 1 0
BITMAP
0007E000
000FF000
000FF000
000FF000
000FF000
000FF000
001FF800
001FF800
001FF800
001FF800
003FFC00
003E7C00
003E7C00
003E7C00
003E7C00
007E7E00
007C3E00
007C3E00
007C3E00
00FC3F00
00FC3F00
00F81F00
00F81F00
00F81F00
01F81F80
01F80F80
01F00F80
01F00F80
01F00FC0
03F00FC0
03F007C0
03E007C0
03E007C0
07E007E0
07E007E0
07E003E0
07C003E0
07C003F0
0FC003F0
0FC003F0
0F8001F0
0F8001F0
1FFFFFF8
1FFFFFF8
1FFFFFF8
1FFFFFF8
1FFFFFFC
3F0000FC
3F0000FC
3F0000FC
3F00007C
7E00007E
7E00007E
7E00007E
7E00007E
7E00003F
FC00003F
FC00003F
FC00003F
ENDCHAR
STARTCHAR 0042
ENCODING 66
SWIDTH 444 0
DWIDTH 37 0
BBX 29 59 6 0
BITMAP
FFFFC000
FFFFF000
FFFFFC00
FFFFFF00
FFFFFF80
FC01FF80
FC003FC0
FC001FE0
FC000FE0
FC0007E0
FC0007F0
FC0003F0
FC0003F0
FC0003F0
FC0003F0
FC0003F0
FC0003F0
FC0003F0
FC0003F0
FC0003F0
FC0007F0
FC0007E0
FC000FE0
FC001FC0
FC003FC0
FC00FF80
FFFFFF00
FFFFFE00
FFFFF800
FFFFFC00
FFFFFF00
FC00FF80
FC003FC0
FC000FC0
FC000FE0
FC0007E0
FC0003F0
FC0003F0
FC0003F0
FC0003F0
FC0003F0
FC0001F0
FC0001F8
FC0001F0
FC0003F0
FC0003F0
FC0003F0
FC0003F0
FC0007F0
FC0007F0
FC000FE0
FC001FE0
FC003FC0
FC00FFC0
FFFFFF80
FFFFFF00
FFFFFC00
FFFFF800
FFFFC000
ENDCHAR
STARTCHAR 0043
ENCODING 67
SWIDTH 444 0
DWIDTH 37 0
BBX 28 60 5 -1
BITMAP
007FC000
01FFF800
07FFFC00
0FFFFF00
1FFFFF80
3FF0FF80
7F803FC0
7F000FE0
7E000FE0
FC0007E0
FC0007F0
FC0003F0
FC0003F0
FC0003F0
FC0003F0
FC0003F0
FC0003F0
FC000000
FC000000
FC000000
FC000000
FC000000
FC000000
FC000000
FC000000
FC000000
FC000000
FC000000
FC000000
FC000000
FC000000
FC000000
FC000000
FC000000
FC000000
FC000000
FC000000
FC000000
FC000000
FC000000
FC000000
FC000000
FC000000
FC0003F0
FC0003F0
FC0003F0
FC0003F0
FC0003F0
FC0003F0
FC0007E0
FE0007E0
7E000FE0
7F001FC0
3FC03FC0
3FFFFF80
1FFFFF00
0FFFFE00
03FFFC00
00FFF000
00060000
ENDCHAR
STARTCHAR 0044
ENCODING 68
SWIDTH 468 0
DWIDTH 39 0
BBX 28 59 6 0
BITMAP
FFFFC000
FFFFF000
FFFFFC00
FFFFFE00
FFFFFF00
FC00FF80
FC003FC0
FC001FC0
FC000FE0
FC000FE0
FC0007E0
FC0007E0
FC0007F0
FC0003F0
FC0003F0
FC0003F0
FC0003F0
FC0003F0
FC0003F0
FC0003F0
FC0003F0
FC0003F0
FC0003F0
FC0003F0
FC0003F0
FC0003F0
FC0003F0
FC0003F0
FC0003F0
FC0003F0
FC0003F0
FC0003F0
FC0003F0
FC0003F0
FC0003F0
FC0003F0
FC0003F0
FC0003F0
FC0003F0
FC0003F0
FC0003F0
FC0003F0
FC0003F0
FC0003F0
FC0003F0
FC0003F0
FC0007F0
FC0007E0
FC0007E0
FC000FE0
FC000FC0
FC001FC0
FC003FC0
FC00FF80
FFFFFF00
FFFFFE00
FFFFFC00
FFFFF000
FFFFC000
ENDCHAR
STARTCHAR 0045
ENCODING 69
SWIDTH 432 0
DWIDTH 36 0
BBX 26 59 6 0
BITMAP
FFFFFFC0
FFFFFFC0
FFFFFFC0
FFFFFFC0
FFFFFFC0
FC000000
FC000000
FC000000
FC000000
FC000000
FC000000
FC000000
FC000000
FC000000
FC000000
FC000000
FC000000
FC000000
FC000000
FC000000
FC000000
FC000000
FC000000
FC000000
FC000000
FC000000
FC000000
FFFFE000
FFFFE000
FFFFE000
FFFFE000
FFFFE000
FC000000
FC000000
FC000000
FC000000
FC000000
FC000000
FC000000
FC000000
FC000000
FC000000
FC000000
FC000000
FC000000
FC000000
FC000000
FC000000
FC000000
FC000000
FC000000
FC000000
FC000000
FC000000
FFFFFFC0
FFFFFFC0
FFFFFFC0
FFFFFFC0
FFFFFFC0
ENDCHAR
STARTCHAR 0046
ENCODING 70
SWIDTH 408 0
DWIDTH 34 0
BBX 26 59 6 0
BITMAP
FFFFFFC0
FFFFFFC0
FFFFFFC0
FFFFFFC0
FFFFFFC0
FC000000
FC000000
FC000000
FC000000
FC000000
FC000000
FC000000
FC000000
FC000000
FC000000
FC000000
FC000000
FC000000
FC000000
FC000000
FC000000
FC000000
FC000000
FC000000
FC000000
FC000000
FC000000
FFFFE000
FFFFE000
FFFFE000
FFFFE000
FFFFE000
FC000000
FC000000
FC000000
FC000000
FC000000
FC000000
FC000000
FC000000
FC000000
FC000000
FC000000
FC000000
FC000000
FC000000
FC000000
FC000000
FC000000
FC000000
FC000000
FC000000
FC000000
FC000000
FC000000
FC000000
FC000000
FC000000
FC000000
ENDCHAR
STARTCHAR 0047
ENCODING 71
SWIDTH 456 0
DWIDTH 38 0
BBX 28 60 5 -1
BITMAP
007FC000
01FFF800
07FFFE00
0FFFFF00
1FFFFF80
3FF0FFC0
7F803FC0
7F000FE0
7E0007E0
FC0007E0
FC0003F0
FC0003F0
FC0003F0
FC0003F0
FC0003F0
FC0003F0
FC0003F0
FC0003F0
FC000000
FC000000
FC000000
FC000000
FC000000
FC000000
FC000000
FC000000
FC000000
FC000000
FC000000
FC03FFF0
FC03FFF0
FC03FFF0
FC03FFF0
FC03FFF0
FC0003F0
FC0003F0
FC0003F0
FC0003F0
FC0003F0
FC0003F0
FC0003F0
FC0003F0
FC0003F0
FC0003F0
FC0003F0
FC0003F0
FC0003F0
FC0003F0
FC0003F0
FC0007E0
FE0007E0
7E000FE0
7F001FC0
3FC03FC0
3FFFFF80
1FFFFF00
0FFFFE00
03FFFC00
00FFF000
00060000
ENDCHAR
STARTCHAR 0048
ENCODING 72
SWIDTH 468 0
DWIDTH 39 0
BBX 27 59 6 0
BITMAP
FC0007E0
FC0007E0
FC0007E0
FC0007E0
FC0007E0
FC0007E0
FC0007E0
FC0007E0
FC0007E0
FC0007E0
FC0007E0
FC0007E0
FC0007E0
FC0007E0
FC0007E0
FC0007E0
FC0007E0
FC0007E0
FC0007E0
FC0007E0
FC0007E0
FC0007E0
FC0007E0
FC0007E0
FC0007E0
FC0007E0
FC0007E0
FFFFFFE0
FFFFFFE0
FFFFFFE0
FFFFFFE0
FFFFFFE0
FC0007E0
FC0007E0
FC0007E0
FC0007E0
FC0007E0
FC0007E0
FC0007E0
FC0007E0
FC0007E0
FC0007E0
FC0007E0
FC0007E0
FC0007E0
FC0007E0
FC0007E0
FC0007E0
FC0007E0
FC0007E0
FC0007E0
FC0007E0
FC0007E0
FC0007E0
FC0007E0
FC0007E0
FC0007E0
FC0007E0
FC0007E0
ENDCHAR
STARTCHAR 0049
ENCODING 73
SWIDTH 216 0
DWIDTH 18 0
BBX 6 59 6 0
BITMAP
FC
FC
FC
FC
FC
FC
FC
FC
FC
FC
FC
FC
FC
FC
FC
FC
FC
FC
FC
FC
FC
FC
FC
FC
FC
FC
FC
FC
FC
FC
FC
FC
FC
FC
FC
FC
FC
FC
FC
FC
FC
FC
FC
FC
FC
FC
FC
FC
FC
FC
FC
FC
FC
FC
FC
FC
FC
FC
FC
ENDCHAR
STARTCHAR 004A
ENCODING 74
SWIDTH 432 0
DWIDTH 36 0
BBX 28 60 2 -1
BITMAP
000003E0
000003F0
000003F0
000003F0
000003F0
000003F0
000003F0
000003F0
000003F0
000003F0
000003F0
000003F0
000003F0
000003F0
000003F0
000003F0
000003F0
000003F0
000003F0
000003F0
000003F0
000003F0
000003F0
000003F0
000003F0
000003F0
000003F0
000003F0
000003F0
000003F0
000003F0
000003F0
000003F0
000003F0
000003F0
000003F0
000003F0
F80003F0
FC0003F0
FC0003F0
FC0003F0
FC0003F0
FC0003F0
FC0003F0
FC0003F0
FC0003E0
FC0003E0
FC0007E0
FC0007E0
FE0007E0
7E000FE0
7F000FC0
7F801FC0
3FC07F80
1FFFFF80
0FFFFF00
07FFFE00
03FFF800
00FFE000
00060000
ENDCHAR
STARTCHAR 004B
ENCODING 75
SWIDTH 456 0
DWIDTH 38 0
BBX 30 59 6 0
BITMAP
FC0001F8
FC0003F0
FC0007F0
FC0007E0
FC000FE0
FC000FC0
FC001FC0
FC003F80
FC003F00
FC007F00
FC007E00
FC00FE00
FC00FC00
FC01FC00
FC03F800
FC03F000
FC07F000
FC07E000
FC0FE000
FC1FC000
FC1FC000
FC3F8000
FC3F0000
FC7F0000
FC7F0000
FCFF0000
FDFF0000
FDFF8000
FFFF8000
FFFFC000
FFEFC000
FFCFE000
FF87E000
FF87E000
FF03F000
FE03F000
FE03F800
FC01F800
FC01FC00
FC00FC00
FC00FC00
FC007E00
FC007E00
FC007F00
FC003F00
FC003F80
FC001F80
FC001F80
FC001FC0
FC000FC0
FC000FE0
FC0007E0
FC0007F0
FC0003F0
FC0003F0
FC0003F8
FC0001F8
FC0001FC
FC0000FC
ENDCHAR
STARTCHAR 004C
ENCODING 76
SWIDTH 396 0
DWIDTH 33 0
BBX 26 59 6 0
BITMAP
FC000000
FC000000
FC000000
FC000000
FC000000
FC000000
FC000000
FC000000
FC000000
FC000000
FC000000
FC000000
FC000000
FC000000
FC000000
FC000000
FC000000
FC000000
FC000000
FC000000
FC000000
FC000000
FC000000
FC000000
FC000000
FC000000
FC000000
FC000000
FC000000
FC000000
FC000000
FC000000
FC000000
FC000000
FC000000
FC000000
FC000000
FC000000
FC000000
FC000000
FC000000
FC000000
FC000000
FC000000
FC000000
FC000000
FC000000
FC000000
FC000000
FC000000
FC000000
FC000000
FC000000
FC000000
FFFFFFC0
FFFFFFC0
FFFFFFC0
FFFFFFC0
FFFFFFC0
ENDCHAR
STARTCHAR 004D
ENCODING 77
SWIDTH 516 0
DWIDTH 43 0
BBX 32 59 6 0
BITMAP
FC00007F
FC00007F
FE0000FF
FE0000FF
FF0000FF
FF0001FF
FF8001FF
FF8003FF
FFC003FF
FFC007FF
FFE007FF
FFE00FFF
FFF00FFF
FFF01FBF
FDF81FBF
FDF83F3F
FCFC3F3F
FCFC7E3F
FC7E7E3F
FC7EFC3F
FC3FFC3F
FC3FF83F
FC1FF83F
FC1FF03F
FC0FF03F
FC0FE03F
FC07E03F
FC07C03F
FC03C03F
FC03803F
FC01803F
FC01003F
FC00003F
FC00003F
FC00003F
FC00003F
FC00003F
FC00003F
FC00003F
FC00003F
FC00003F
FC00003F
FC00003F
FC00003F
FC00003F
FC00003F
FC00003F
FC00003F
FC00003F
FC00003F
FC00003F
FC00003F
FC00003F
FC00003F
FC00003F
FC00003F
FC00003F
FC00003F
FC00003F
ENDCHAR
STARTCHAR 004E
ENCODING 78
SWIDTH 492 0
DWIDTH 41 0
BBX 29 59 6 0
BITMAP
FE0001F8
FE0001F8
FE0001F8
FF0001F8
FF0001F8
FF0001F8
FF8001F8
FF8001F8
FFC001F8
FFC001F8
FFC001F8
FFE001F8
FFE001F8
FFE001F8
FFF001F8
FFF001F8
FDF801F8
FDF801F8
FCF801F8
FCFC01F8
FCFC01F8
FC7C01F8
FC7E01F8
FC7E01F8
FC3E01F8
FC3F01F8
FC1F01F8
FC1F81F8
FC1F81F8
FC0F81F8
FC0FC1F8
FC0FC1F8
FC07C1F8
FC07E1F8
FC03E1F8
FC03F1F8
FC03F1F8
FC01F1F8
FC01F9F8
FC01F9F8
FC00F9F8
FC00FDF8
FC007DF8
FC007FF8
FC007FF8
FC003FF8
FC003FF8
FC003FF8
FC001FF8
FC001FF8
FC000FF8
FC000FF8
FC000FF8
FC0007F8
FC0007F8
FC0007F8
FC0003F8
FC0003F8
FC0001F8
ENDCHAR
STARTCHAR 004F
ENCODING 79
SWIDTH 456 0
DWIDTH 38 0
BBX 28 60 5 -1
BITMAP
003FC000
01FFF800
07FFFE00
0FFFFF00
1FFFFF80
3FF0FFC0
3F801FC0
7F000FE0
7E0007E0
FE0007F0
FC0003F0
FC0003F0
FC0003F0
FC0003F0
FC0003F0
FC0003F0
FC0003F0
FC0003F0
FC0003F0
FC0003F0
FC0003F0
FC0003F0
FC0003F0
FC0003F0
FC0003F0
FC0003F0
FC0003F0
FC0003F0
FC0003F0
FC0003F0
FC0003F0
FC0003F0
FC0003F0
FC0003F0
FC0003F0
FC0003F0
FC0003F0
FC0003F0
FC0003F0
FC0003F0
FC0003F0
FC0003F0
FC0003F0
FC0003F0
FC0003F0
FC0003F0
FC0003F0
FC0003F0
FC0003F0
FC0003F0
FE0007F0
7F000FE0
7F801FE0
3FC03FC0
1FFFFF80
0FFFFF00
07FFFE00
03FFFC00
00FFF000
00060000
ENDCHAR
STARTCHAR 0050
ENCODING 80
SWIDTH 444 0
DWIDTH 37 0
BBX 28 59 6 0
BITMAP
FFFFC000
FFFFF800
FFFFFC00
FFFFFE00
FFFFFF00
FC00FF80
FC003FC0
FC001FC0
FC000FE0
FC0007E0
FC0007E0
FC0007F0
FC0003F0
FC0003F0
FC0003F0
FC0003F0
FC0003F0
FC0003F0
FC0003F0
FC0003F0
FC0003F0
FC0007E0
FC0007E0
FC000FE0
FC001FC0
FC003FC0
FC007F80
FFFFFF80
FFFFFF00
FFFFFE00
FFFFF800
FFFFE000
FC000000
FC000000
FC000000
FC000000
FC000000
FC000000
FC000000
FC000000
FC000000
FC000000
FC000000
FC000000
FC000000
FC000000
FC000000
FC000000
FC000000
FC000000
FC000000
FC000000
FC000000
FC000000
FC000000
FC000000
FC000000
FC000000
FC000000
ENDCHAR
STARTCHAR 0051
ENCODING 81
SWIDTH 444 0
DWIDTH 37 0
BBX 27 69 5 -10
BITMAP
003FC000
01FFF000
07FFFC00
0FFFFE00
1FFFFF00
3FE0FF80
3F803F80
7F001FC0
7E000FC0
FE000FE0
FC0007E0
FC0007E0
FC0007E0
FC0007E0
FC0007E0
FC0007E0
FC0007E0
FC0007E0
FC0007E0
FC0007E0
FC0007E0
FC0007E0
FC0007E0
FC0007E0
FC0007E0
FC0007E0
FC0007E0
FC0007E0
FC0007E0
FC0007E0
FC0007E0
FC0007E0
FC0007E0
FC0007E0
FC0007E0
FC0007E0
FC0007E0
FC0007E0
FC0007E0
FC0007E0
FC0007E0
FC0007E0
FC0007E0
FC0007E0
FC0007E0
FC0007E0
FC0007E0
FC0007E0
FC0007E0
FC0007E0
FC000FE0
7E000FC0
7F001FC0
3F803F80
3FE0FF80
1FFFFF00
0FFFFE00
07FFFC00
01FFF000
007FC000
003F0000
003F0000
003F0000
003F0000
003F0000
003F0000
003F0000
003F0000
001F0000
ENDCHAR
STARTCHAR 0052
ENCODING 82
SWIDTH 444 0
DWIDTH 37 0
BBX 28 59 6 0
BITMAP
FFFFC000
FFFFF800
FFFFFC00
FFFFFF00
FFFFFF00
FC00FF80
FC003FC0
FC001FC0
FC000FE0
FC0007E0
FC0007E0
FC0003F0
FC0003F0
FC0003F0
FC0003F0
FC0003F0
FC0003F0
FC0003F0
FC0003F0
FC0003F0
FC0003F0
FC0007F0
FC0007E0
FC000FE0
FC000FC0
FC003FC0
FC007F80
FFFFFF80
FFFFFF00
FFFFFE00
FFFFF800
FFFFE000
FC03F000
FC03F000
FC01F000
FC01F800
FC01F800
FC00F800
FC00FC00
FC00FC00
FC007C00
FC007E00
FC007E00
FC007E00
FC003F00
FC003F00
FC003F00
FC001F80
FC001F80
FC001F80
FC000FC0
FC000FC0
FC000FC0
FC0007E0
FC0007E0
FC0007E0
FC0003F0
FC0003F0
FC0003F0
ENDCHAR
STARTCHAR 0053
ENCODING 83
SWIDTH 420 0
DWIDTH 35 0
BBX 28 60 3 -1
BITMAP
003FC000
01FFF800
03FFFC00
0FFFFE00
0FFFFF00
1FF0FF80
3FC03FC0
3F001FC0
7F000FE0
7E0007E0
7E0007E0
7C0003F0
FC0003F0
FC0003F0
FC0003F0
FC0003F0
7C0003F0
7E0003F0
7E000000
7F000000
3F000000
3F800000
1FC00000
1FE00000
0FF00000
07FC0000
03FE0000
01FF0000
00FFC000
007FE000
001FF000
000FFC00
0007FE00
0001FF00
0000FF80
00007F80
00003FC0
00001FE0
00000FE0
000007F0
000003F0
000003F0
7C0003F0
FC0003F0
FC0003F0
FC0003F0
7C0003F0
7E0003F0
7E0003F0
7E0003F0
7F0007E0
3F000FE0
3F801FC0
1FE03FC0
1FFFFF80
0FFFFF00
07FFFE00
01FFFC00
007FF000
00020000
ENDCHAR
STARTCHAR 0054
ENCODING 84
SWIDTH 420 0
DWIDTH 35 0
BBX 29 59 3 0
BITMAP
FFFFFFF8
FFFFFFF8
FFFFFFF8
FFFFFFF8
FFFFFFF8
001F8000
001F8000
001F8000
001F8000
001F8000
001F8000
001F8000
001F8000
001F8000
001F8000
001F8000
001F8000
001F8000
001F8000
001F8000
001F8000
001F8000
001F8000
001F8000
001F8000
001F8000
001F8000
001F8000
001F8000
001F8000
001F8000
001F8000
001F8000
001F8000
001F8000
001F8000
001F8000
001F8000
001F8000
001F8000
001F8000
001F8000
001F8000
001F8000
001F8000
001F8000
001F8000
001F8000
001F8000
001F8000
001F8000
001F8000
001F8000
001F8000
001F8000
001F8000
001F8000
001F8000
001F8000
ENDCHAR
STARTCHAR 0055
ENCODING 85
SWIDTH 480 0
DWIDTH 40 0
BBX 29 60 5 -1
BITMAP
7C0001F8
FC0001F8
FC0001F8
FC0001F8
FC0001F8
FC0001F8
FC0001F8
FC0001F8
FC0001F8
FC0001F8
FC0001F8
FC0001F8
FC0001F8
FC0001F8
FC0001F8
FC0001F8
FC0001F8
FC0001F8
FC0001F8
FC0001F8
FC0001F8
FC0001F8
FC0001F8
FC0001F8
FC0001F8
FC0001F8
FC0001F8
FC0001F8
FC0001F8
FC0001F8
FC0001F8
FC0001F8
FC0001F8
FC0001F8
FC0001F8
FC0001F8
FC0001F8
FC0001F8
FC0001F8
FC0001F8
FC0001F8
FC0001F8
FC0001F8
FC0001F8
FC0001F8
7C0001F8
7E0001F8
7E0001F8
7E0001F8
7F0003F0
3F0003F0
3F8007F0
1FC00FE0
1FE03FC0
0FFFFFC0
07FFFF80
03FFFF00
01FFFC00
007FF000
00030000
ENDCHAR
STARTCHAR 0056
ENCODING 86
SWIDTH 444 0
DWIDTH 37 0
BBX 31 59 3 0
BITMAP
FC00007E
FC0000FE
FE0000FC
FE0000FC
7E0000FC
7E0000FC
7E0001FC
7F0001F8
7F0001F8
3F0001F8
3F0001F8
3F0003F0
3F0003F0
1F8003F0
1F8003F0
1F8003F0
1F8003E0
1F8007E0
0FC007E0
0FC007E0
0FC007E0
0FC007C0
0FC00FC0
07E00FC0
07E00FC0
07E00FC0
07E00F80
03E01F80
03F01F80
03F01F80
03F01F00
03F01F00
01F03F00
01F83F00
01F83F00
01F83E00
01F83E00
00F83E00
00F87E00
00FC7E00
00FC7C00
00FC7C00
007C7C00
007CFC00
007EF800
007EF800
003EF800
003EF800
003FF800
003FF000
003FF000
001FF000
001FF000
001FF000
001FE000
001FE000
000FE000
000FE000
000FE000
ENDCHAR
STARTCHAR 0057
ENCODING 87
SWIDTH 624 0
DWIDTH 52 0
BBX 48 59 2 0
BITMAP
FC0003E0003F
7E0007E0007E
7E0007E0007E
7E0007E0007E
7E0007F0007E
7E0007F0007E
7F0007F0007E
3F000FF000FC
3F000FF000FC
3F000FF000FC
3F000FF000FC
3F000FF800FC
1F800FF800F8
1F801FF801F8
1F801FF801F8
1F801F7801F8
1F801F7801F8
0F801E7C01F8
0FC01E7C01F0
0FC01E7C03F0
0FC03E7C03F0
0FC03E3C03F0
07C03E3C03F0
07E03E3E03E0
07E03C3E03E0
07E03C3E07E0
07E07C3E07E0
03E07C3E07E0
03E07C1E07E0
03F07C1F07C0
03F0781F07C0
03F0781F07C0
03F0781F0FC0
01F0F81F0FC0
01F0F80F0F80
01F8F80F0F80
01F8F80F8F80
01F8F00F8F80
00F8F00F9F80
00F8F00F9F80
00FDF0079F00
00FDF0079F00
00FDF007DF00
007DE007DF00
007DE007FF00
007FE007FE00
007FE007FE00
007FE003FE00
003FE003FE00
003FE003FE00
003FC003FE00
003FC003FC00
003FC003FC00
001FC001FC00
001FC001FC00
001FC001FC00
001F8001FC00
001F8001F800
001F8001F800
ENDCHAR
STARTCHAR 0058
ENCODING 88
SWIDTH 432 0
DWIDTH 36 0
BBX 30 59 3 0
BITMAP
FC0000FC
FC0000FC
7E0001F8
7E0001F8
3F0001F8
3F0003F0
3F0003F0
1F8007E0
1F8007E0
0FC007E0
0FC00FC0
0FC00FC0
07E01F80
07E01F80
03F01F00
03F03F00
01F03F00
01F87E00
01F87E00
00F87C00
00FCFC00
007CFC00
007EF800
007FF800
003FF000
003FF000
001FE000
001FE000
001FE000
000FC000
000FE000
001FE000
001FE000
003FF000
003FF000
007FF800
007EF800
007CF800
00FCFC00
00F87C00
01F87E00
01F87E00
01F03F00
03F03F00
03F01F00
07E01F80
07E01F80
0FC00FC0
0FC00FC0
0FC007C0
1F8007E0
1F8007E0
3F0003F0
3F0003F0
3F0001F8
7E0001F8
7E0001F8
FE0000FC
FC0000FC
ENDCHAR
STARTCHAR 0059
ENCODING 89
SWIDTH 420 0
DWIDTH 35 0
BBX 29 59 3 0
BITMAP
FC0001F8
FE0001F8
7E0003F8
7E0003F0
7F0003F0
3F0007F0
3F0007E0
3F8007E0
1F800FE0
1F800FC0
0F800FC0
0FC00F80
0FC01F80
07C01F80
07E01F00
07E03F00
03E03F00
03F03E00
03F07E00
01F07E00
01F87C00
00F8FC00
00F8F800
00FCF800
007DF800
007DF000
007FF000
003FF000
003FE000
001FE000
001FE000
001FC000
000FC000
000FC000
000FC000
000FC000
000FC000
000FC000
000FC000
000FC000
000FC000
000FC000
000FC000
000FC000
000FC000
000FC000
000FC000
000FC000
000FC000
000FC000
000FC000
000FC000
000FC000
000FC000
000FC000
000FC000
000FC000
000FC000
000FC000
ENDCHAR
STARTCHAR 005A
ENCODING 90
SWIDTH 396 0
DWIDTH 33 0
BBX 27 59 3 0
BITMAP
FFFFFFE0
FFFFFFE0
FFFFFFE0
FFFFFFE0
FFFFFFE0
00000FC0
00000FC0
00001FC0
00001F80
00003F80
00003F00
00003F00
00007F00
00007E00
0000FE00
0000FC00
0000FC00
0001F800
0001F800
0003F800
0003F000
0007F000
0007E000
0007E000
000FE000
000FC000
001FC000
001F8000
003F8000
003F0000
003F0000
007F0000
007E0000
00FE0000
00FC0000
00FC0000
01F80000
01F80000
03F80000
03F00000
07F00000
07E00000
07E00000
0FE00000
0FC00000
1FC00000
1F800000
3F800000
3F000000
3F000000
7F000000
7E000000
FE000000
FC000000
FFFFFFE0
FFFFFFE0
FFFFFFE0
FFFFFFE0
FFFFFFE0
ENDCHAR
STARTCHAR 005B
ENCODING 91
SWIDTH 300 0
DWIDTH 25 0
BBX 15 75 2 -10
BITMAP
FFFE
FFFE
FFFE
FFFE
FFFE
FC00
FC00
FC00
FC00
FC00
FC00
FC00
FC00
FC00
FC00
FC00
FC00
FC00
FC00
FC00
FC00
FC00
FC00
FC00
FC00
FC00
FC00
FC00
FC00
FC00
FC00
FC00
FC00
FC00
FC00
FC00
FC00
FC00
FC00
FC00
FC00
FC00
FC00
FC00
FC00
FC00
FC00
FC00
FC00
FC00
FC00
FC00
FC00
FC00
FC00
FC00
FC00
FC00
FC00
FC00
FC00
FC00
FC00
FC00
FC00
FC00
FC00
FC00
FC00
FC00
FFFE
FFFE
FFFE
FFFE
FFFE
ENDCHAR
STARTCHAR 005C
ENCODING 92
SWIDTH 336 0
DWIDTH 28 0
BBX 21 59 5 0
BITMAP
FC0000
FC0000
FC0000
7C0000
7E0000
7E0000
7E0000
3E0000
3F0000
3F0000
3F0000
1F8000
1F8000
1F8000
1F8000
0FC000
0FC000
0FC000
0FC000
07E000
07E000
07E000
03E000
03F000
03F000
03F000
01F000
01F800
01F800
01F800
00F800
00FC00
00FC00
00FC00
007E00
007E00
007E00
007E00
003F00
003F00
003F00
001F00
001F80
001F80
001F80
000F80
000FC0
000FC0
000FC0
0007C0
0007E0
0007E0
0007E0
0003F0
0003F0
0003F0
0003F0
0001F8
0001F8
ENDCHAR
STARTCHAR 005D
ENCODING 93
SWIDTH 300 0
DWIDTH 25 0
BBX 15 75 8 -10
BITMAP
FFFE
FFFE
FFFE
FFFE
FFFE
007E
007E
007E
007E
007E
007E
007E
007E
007E
007E
007E
007E
007E
007E
007E
007E
007E
007E
007E
007E
007E
007E
007E
007E
007E
007E
007E
007E
007E
007E
007E
007E
007E
007E
007E
007E
007E
007E
007E
007E
007E
007E
007E
007E
007E
007E
007E
007E
007E
007E
007E
007E
007E
007E
007E
007E
007E
007E
007E
007E
007E
007E
007E
007E
007E
FFFE
FFFE
FFFE
FFFE
FFFE
ENDCHAR
STARTCHAR 005E
ENCODING 94
SWIDTH 396 0
DWIDTH 33 0
BBX 27 33 3 26
BITMAP
001F0000
003F8000
003F8000
003F8000
007FC000
007FC000
007FC000
00FBE000
00FBE000
00FBE000
01F1F000
01F1F000
01F1F000
03E0F800
03E0F800
03E0F800
07C07C00
07C07C00
07C07C00
0F803E00
0F803E00
0F803E00
1F001F00
1F001F00
1F001F00
3E000F80
3E000F80
3E000F80
7C0007C0
7C0007C0
7C0007C0
F80003E0
F80003E0
ENDCHAR
STARTCHAR 005F
ENCODING 95
SWIDTH 372 0
DWIDTH 31 0
BBX 28 5 2 0
BITMAP
FFFFFFE0
FFFFFFF0
FFFFFFF0
FFFFFFF0
FFFFFFE0
ENDCHAR
STARTCHAR 0060
ENCODING 96
SWIDTH 180 0
DWIDTH 15 0
BBX 11 11 2 48
BITMAP
F800
7C00
7E00
3E00
1F00
1F00
0F80
0780
07C0
03C0
03E0
ENDCHAR
STARTCHAR 0061
ENCODING 97
SWIDTH 408 0
DWIDTH 34 0
BBX 27 44 3 -1
BITMAP
003FC000
00FFF800
03FFFC00
07FFFE00
0FFFFF00
1FF0FF80
1FC03FC0
3F801FC0
3F800FC0
3F000FE0
3F0007E0
3F0007E0
000007E0
000007E0
000007E0
000007E0
000007E0
000007E0
007FFFE0
01FFFFE0
07FFFFE0
0FFFFFE0
1FFFFFE0
3FF007E0
3F8007E0
7F0007E0
7F0007E0
7E0007E0
7E0007E0
FE0007E0
FC0007E0
FC0007E0
FC0007E0
FE0007E0
FE000FE0
7E001FE0
7F003FE0
7FC07FE0
3FFFFFE0
3FFFFFE0
1FFFF7E0
07FFE7E0
03FF87E0
00100000
ENDCHAR
STARTCHAR 0062
ENCODING 98
SWIDTH 420 0
DWIDTH 35 0
BBX 26 60 5 -1
BITMAP
FC000000
FC000000
FC000000
FC000000
FC000000
FC000000
FC000000
FC000000
FC000000
FC000000
FC000000
FC000000
FC000000
FC000000
FC000000
FC000000
FC1FC000
FC7FF000
FDFFFC00
FFFFFE00
FFFFFF00
FFE1FF00
FF807F80
FF003F80
FE001FC0
FE001FC0
FC000FC0
FC000FC0
FC000FC0
FC000FC0
FC000FC0
FC000FC0
FC000FC0
FC000FC0
FC000FC0
FC000FC0
FC000FC0
FC000FC0
FC000FC0
FC000FC0
FC000FC0
FC000FC0
FC000FC0
FC000FC0
FC000FC0
FC000FC0
FC000FC0
FC000FC0
FC000FC0
FC000FC0
FE001FC0
FE001F80
FF003F80
FFC0FF80
FFFFFF00
FFFFFE00
FDFFFC00
FCFFF800
FC3FE000
00020000
ENDCHAR
STARTCHAR 0063
ENCODING 99
SWIDTH 408 0
DWIDTH 34 0
BBX 26 44 4 -1
BITMAP
007F8000
01FFF000
07FFFC00
0FFFFE00
1FFFFF00
3FE1FF80
3F807F80
7F001FC0
7E001FC0
FE000FC0
FC000FC0
FC000FC0
FC000FC0
FC000000
FC000000
FC000000
FC000000
FC000000
FC000000
FC000000
FC000000
FC000000
FC000000
FC000000
FC000000
FC000000
FC000000
FC000000
FC000000
FC000000
FC000FC0
FC000FC0
FC000FC0
FE000FC0
7E000FC0
7F001FC0
7F003F80
3FC07F80
3FFFFF00
1FFFFE00
0FFFFC00
03FFF800
01FFE000
000C0000
ENDCHAR
STARTCHAR 0064
ENCODING 100
SWIDTH 420 0
DWIDTH 35 0
BBX 26 60 4 -1
BITMAP
00000FC0
00000FC0
00000FC0
00000FC0
00000FC0
00000FC0
00000FC0
00000FC0
00000FC0
00000FC0
00000FC0
00000FC0
00000FC0
00000FC0
00000FC0
00000FC0
00FE0FC0
03FF8FC0
0FFFEFC0
1FFFFFC0
3FFFFFC0
3FE1FFC0
7F807FC0
7F003FC0
7E001FC0
FE000FC0
FC000FC0
FC000FC0
FC000FC0
FC000FC0
FC000FC0
FC000FC0
FC000FC0
FC000FC0
FC000FC0
FC000FC0
FC000FC0
FC000FC0
FC000FC0
FC000FC0
FC000FC0
FC000FC0
FC000FC0
FC000FC0
FC000FC0
FC000FC0
FC000FC0
FC000FC0
FC000FC0
FC000FC0
7E001FC0
7F001FC0
7F003FC0
3FC07FC0
3FFFFFC0
1FFFFFC0
0FFFEFC0
07FFCFC0
01FF8FC0
00180000
ENDCHAR
STARTCHAR 0065
ENCODING 101
SWIDTH 408 0
DWIDTH 34 0
BBX 26 44 4 -1
BITMAP
007F8000
03FFF000
07FFFC00
0FFFFE00
1FFFFF00
3FE1FF00
3F807F80
7F001F80
7E001FC0
FE000FC0
FC000FC0
FC000FC0
FC000FC0
FC000FC0
FC000FC0
FC000FC0
FC000FC0
FC000FC0
FC000FC0
FFFFFFC0
FFFFFFC0
FFFFFFC0
FFFFFFC0
FFFFFFC0
FC000000
FC000000
FC000000
FC000000
FC000000
FC000000
FC000000
FC000000
FC000FC0
FE000FC0
7E001FC0
7F001F80
7F003F80
3FC0FF00
3FFFFF00
1FFFFE00
0FFFFC00
03FFF800
01FFE000
000C0000
ENDCHAR
STARTCHAR 0066
ENCODING 102
SWIDTH 276 0
DWIDTH 23 0
BBX 18 59 2 0
BITMAP
000FC0
007FC0
00FFC0
01FFC0
01FFC0
03FE00
03F800
07F000
07E000
07E000
07E000
07E000
07E000
07E000
07E000
07E000
FFFFC0
FFFFC0
FFFFC0
FFFFC0
FFFFC0
07E000
07E000
07E000
07E000
07E000
07E000
07E000
07E000
07E000
07E000
07E000
07E000
07E000
07E000
07E000
07E000
07E000
07E000
07E000
07E000
07E000
07E000
07E000
07E000
07E000
07E000
07E000
07E000
07E000
07E000
07E000
07E000
07E000
07E000
07E000
07E000
07E000
07E000
ENDCHAR
STARTCHAR 0067
ENCODING 103
SWIDTH 408 0
DWIDTH 34 0
BBX 26 60 4 -17
BITMAP
00FE0FC0
03FF8FC0
0FFFCFC0
1FFFEFC0
3FFFFFC0
3FE1FFC0
7F807FC0
7F003FC0
7E001FC0
FE000FC0
FC000FC0
FC000FC0
FC000FC0
FC000FC0
FC000FC0
FC000FC0
FC000FC0
FC000FC0
FC000FC0
FC000FC0
FC000FC0
FC000FC0
FC000FC0
FC000FC0
FC000FC0
FC000FC0
FC000FC0
FC000FC0
FC000FC0
FC000FC0
FC000FC0
FC000FC0
FC000FC0
FE000FC0
7E001FC0
7F003FC0
7F807FC0
3FE1FFC0
3FFFFFC0
1FFFEFC0
0FFFCFC0
07FF8FC0
00FE0FC0
00000FC0
00000FC0
00000FC0
00000FC0
00000FC0
00001F80
00001F80
00003F80
00003F00
00007F00
0001FE00
000FFE00
01FFFC00
01FFF800
01FFE000
01FF8000
01FC0000
ENDCHAR
STARTCHAR 0068
ENCODING 104
SWIDTH 420 0
DWIDTH 35 0
BBX 26 59 5 0
BITMAP
FC000000
FC000000
FC000000
FC000000
FC000000
FC000000
FC000000
FC000000
FC000000
FC000000
FC000000
FC000000
FC000000
FC000000
FC000000
FC000000
FC0FE000
FC7FF800
FCFFFC00
FDFFFE00
FFFFFF00
FFE1FF00
FF807F80
FF003F80
FE001F80
FE001F80
FC001FC0
FC000FC0
FC000FC0
FC000FC0
FC000FC0
FC000FC0
FC000FC0
FC000FC0
FC000FC0
FC000FC0
FC000FC0
FC000FC0
FC000FC0
FC000FC0
FC000FC0
FC000FC0
FC000FC0
FC000FC0
FC000FC0
FC000FC0
FC000FC0
FC000FC0
FC000FC0
FC000FC0
FC000FC0
FC000FC0
FC000FC0
FC000FC0
FC000FC0
FC000FC0
FC000FC0
FC000FC0
FC000FC0
ENDCHAR
STARTCHAR 0069
ENCODING 105
SWIDTH 204 0
DWIDTH 17 0
BBX 9 60 4 0
BITMAP
3E00
7F00
FF80
FF80
FF80
FF80
FF80
7F00
3E00
0000
0000
0000
0000
0000
0000
0000
0000
3F00
3F00
3F00
3F00
3F00
3F00
3F00
3F00
3F00
3F00
3F00
3F00
3F00
3F00
3F00
3F00
3F00
3F00
3F00
3F00
3F00
3F00
3F00
3F00
3F00
3F00
3F00
3F00
3F00
3F00
3F00
3F00
3F00
3F00
3F00
3F00
3F00
3F00
3F00
3F00
3F00
3F00
3F00
ENDCHAR
STARTCHAR 006A
ENCODING 106
SWIDTH 204 0
DWIDTH 17 0
BBX 16 77 -3 -17
BITMAP
0078
01FE
01FE
03FF
03FF
03FF
01FE
01FE
0078
0000
0000
0000
0000
0000
0000
0000
0000
00FC
00FC
00FC
00FC
00FC
00FC
00FC
00FC
00FC
00FC
00FC
00FC
00FC
00FC
00FC
00FC
00FC
00FC
00FC
00FC
00FC
00FC
00FC
00FC
00FC
00FC
00FC
00FC
00FC
00FC
00FC
00FC
00FC
00FC
00FC
00FC
00FC
00FC
00FC
00FC
00FC
00FC
00FC
00FC
00FC
00FC
00FC
00FC
00FC
00FC
00FC
01F8
01F8
03F8
0FF8
7FF0
FFE0
FFC0
FF80
7C00
ENDCHAR
STARTCHAR 006B
ENCODING 107
SWIDTH 408 0
DWIDTH 34 0
BBX 26 59 5 0
BITMAP
FC000000
FC000000
FC000000
FC000000
FC000000
FC000000
FC000000
FC000000
FC000000
FC000000
FC000000
FC000000
FC000000
FC000000
FC000000
FC000000
FC001F80
FC003F00
FC003F00
FC007E00
FC00FC00
FC00FC00
FC01F800
FC03F000
FC07F000
FC07E000
FC0FC000
FC1FC000
FC1F8000
FC3F0000
FC7F8000
FC7F8000
FCFF8000
FDFFC000
FDFFC000
FFF7C000
FFE7E000
FFC3E000
FFC3E000
FF83F000
FF01F000
FF01F000
FE01F800
FC01F800
FC00FC00
FC00FC00
FC00FC00
FC007E00
FC007E00
FC007E00
FC003F00
FC003F00
FC003F00
FC001F80
FC001F80
FC001F80
FC000FC0
FC000FC0
FC000FC0
ENDCHAR
STARTCHAR 006C
ENCODING 108
SWIDTH 180 0
DWIDTH 15 0
BBX 6 59 5 0
BITMAP
F8
FC
FC
FC
FC
FC
FC
FC
FC
FC
FC
FC
FC
FC
FC
FC
FC
FC
FC
FC
FC
FC
FC
FC
FC
FC
FC
FC
FC
FC
FC
FC
FC
FC
FC
FC
FC
FC
FC
FC
FC
FC
FC
FC
FC
FC
FC
FC
FC
FC
FC
FC
FC
FC
FC
FC
FC
FC
F8
ENDCHAR
STARTCHAR 006D
ENCODING 109
SWIDTH 648 0
DWIDTH 54 0
BBX 44 43 5 0
BITMAP
FC1FC001F800
FC7FF00FFE00
FCFFF81FFF80
FDFFFC3FFF80
FFFFFE7FFFC0
FFE1FE7C3FE0
FF80FFF00FE0
FF007FE007E0
FE003FC007F0
FE003FC003F0
FC001FC003F0
FC001F8003F0
FC001F8003F0
FC001F8003F0
FC001F8003F0
FC001F8003F0
FC001F8003F0
FC001F8003F0
FC001F8003F0
FC001F8003F0
FC001F8003F0
FC001F8003F0
FC001F8003F0
FC001F8003F0
FC001F8003F0
FC001F8003F0
FC001F8003F0
FC001F8003F0
FC001F8003F0
FC001F8003F0
FC001F8003F0
FC001F8003F0
FC001F8003F0
FC001F8003F0
FC001F8003F0
FC001F8003F0
FC001F8003F0
FC001F8003F0
FC001F8003F0
FC001F8003F0
FC001F8003F0
FC001F8003F0
FC001F8001F0
ENDCHAR
STARTCHAR 006E
ENCODING 110
SWIDTH 420 0
DWIDTH 35 0
BBX 26 43 5 0
BITMAP
FC0FE000
FC7FF800
FCFFFC00
FDFFFE00
FFFFFF00
FFE1FF00
FF807F80
FF003F80
FE001F80
FE001F80
FC001FC0
FC000FC0
FC000FC0
FC000FC0
FC000FC0
FC000FC0
FC000FC0
FC000FC0
FC000FC0
FC000FC0
FC000FC0
FC000FC0
FC000FC0
FC000FC0
FC000FC0
FC000FC0
FC000FC0
FC000FC0
FC000FC0
FC000FC0
FC000FC0
FC000FC0
FC000FC0
FC000FC0
FC000FC0
FC000FC0
FC000FC0
FC000FC0
FC000FC0
FC000FC0
FC000FC0
FC000FC0
FC000FC0
ENDCHAR
STARTCHAR 006F
ENCODING 111
SWIDTH 420 0
DWIDTH 35 0
BBX 26 44 4 -1
BITMAP
007F8000
01FFF000
07FFFC00
0FFFFE00
1FFFFF00
3FE1FF00
3F807F80
7F003F80
7E001FC0
7E000FC0
FC000FC0
FC000FC0
FC000FC0
FC000FC0
FC000FC0
FC000FC0
FC000FC0
FC000FC0
FC000FC0
FC000FC0
FC000FC0
FC000FC0
FC000FC0
FC000FC0
FC000FC0
FC000FC0
FC000FC0
FC000FC0
FC000FC0
FC000FC0
FC000FC0
FC000FC0
FC000FC0
FE000FC0
7E000FC0
7F001FC0
7F003F80
3FC07F80
3FFFFF00
1FFFFE00
0FFFFC00
03FFF800
01FFE000
00040000
ENDCHAR
STARTCHAR 0070
ENCODING 112
SWIDTH 432 0
DWIDTH 36 0
BBX 27 60 5 -17
BITMAP
7C0FE000
FC7FF800
FCFFFC00
FFFFFE00
FFFFFF00
FFF1FF80
FF803F80
FF001FC0
FF001FC0
FE000FC0
FE000FC0
FE0007C0
FC0007E0
FC0007E0
FC0007E0
FC0007E0
FC0007E0
FC0007E0
FC0007E0
FC0007E0
FC0007E0
FC0007E0
FC0007E0
FC0007E0
FC0007E0
FC0007E0
FC0007E0
FC0007E0
FC0007E0
FC0007E0
FC0007E0
FC0007C0
FE000FC0
FE000FC0
FE000FC0
FF001FC0
FF803FC0
FFC07F80
FFFFFF00
FFFFFF00
FDFFFE00
FCFFFC00
FC3FF000
FC030000
FC000000
FC000000
FC000000
FC000000
FC000000
FC000000
FC000000
FC000000
FC000000
FC000000
FC000000
FC000000
FC000000
FC000000
FC000000
7C000000
ENDCHAR
STARTCHAR 0071
ENCODING 113
SWIDTH 432 0
DWIDTH 36 0
BBX 26 60 4 -17
BITMAP
00FE0FC0
03FFCFC0
0FFFEFC0
1FFFFFC0
1FFFFFC0
3FE1FFC0
7F807FC0
7F003FC0
7E001FC0
FE000FC0
FC000FC0
FC000FC0
FC000FC0
FC000FC0
FC000FC0
FC000FC0
FC000FC0
FC000FC0
FC000FC0
FC000FC0
FC000FC0
FC000FC0
FC000FC0
FC000FC0
FC000FC0
FC000FC0
FC000FC0
FC000FC0
FC000FC0
FC000FC0
FC000FC0
FC000FC0
FC000FC0
FE000FC0
7E001FC0
7F001FC0
7F003FC0
3FC07FC0
3FFFFFC0
1FFFFFC0
0FFFEFC0
07FFCFC0
01FF0FC0
00180FC0
00000FC0
00000FC0
00000FC0
00000FC0
00000FC0
00000FC0
00000FC0
00000FC0
00000FC0
00000FC0
00000FC0
00000FC0
00000FC0
00000FC0
00000FC0
00000FC0
ENDCHAR
STARTCHAR 0072
ENCODING 114
SWIDTH 288 0
DWIDTH 24 0
BBX 18 43 5 0
BITMAP
FC1F80
FC3FC0
FC7FC0
FCFFC0
FDFFC0
FDFF80
FFE080
FF8000
FF0000
FF0000
FE0000
FE0000
FC0000
FC0000
FC0000
FC0000
FC0000
FC0000
FC0000
FC0000
FC0000
FC0000
FC0000
FC0000
FC0000
FC0000
FC0000
FC0000
FC0000
FC0000
FC0000
FC0000
FC0000
FC0000
FC0000
FC0000
FC0000
FC0000
FC0000
FC0000
FC0000
FC0000
FC0000
ENDCHAR
STARTCHAR 0073
ENCODING 115
SWIDTH 372 0
DWIDTH 31 0
BBX 26 43 3 0
BITMAP
007F8000
03FFF000
07FFF800
0FFFFC00
1FFFFE00
3FE1FF00
3F807F00
7F003F80
7E001F80
7E001F80
7E000F80
7C000F80
7C000F80
7E000000
7E000000
7F000000
3F800000
3FE00000
1FF80000
0FFE0000
07FF8000
01FFE000
007FF800
001FFC00
0003FE00
0000FF00
00007F00
00003F80
00001F80
00000FC0
7C000FC0
FC000FC0
FC000FC0
FC000FC0
7E001F80
7F003F80
7F807F80
3FE1FF00
3FFFFF00
1FFFFE00
07FFFC00
03FFF000
007FC000
ENDCHAR
STARTCHAR 0074
ENCODING 116
SWIDTH 264 0
DWIDTH 22 0
BBX 18 53 2 0
BITMAP
07C000
07C000
07C000
07C000
07C000
07C000
07C000
07C000
07C000
07C000
FFFFC0
FFFFC0
FFFFC0
FFFFC0
07C000
07C000
07C000
07C000
07C000
07C000
07C000
07C000
07C000
07C000
07C000
07C000
07C000
07C000
07C000
07C000
07C000
07C000
07C000
07C000
07C000
07C000
07C000
07C000
07C000
07C000
07C000
07C000
07E000
07E000
07E000
07E000
07F000
07FC00
07FF80
03FFC0
01FFC0
00FFC0
003F80
ENDCHAR
STARTCHAR 0075
ENCODING 117
SWIDTH 420 0
DWIDTH 35 0
BBX 25 44 5 -1
BITMAP
FC001F80
FC001F80
FC001F80
FC001F80
FC001F80
FC001F80
FC001F80
FC001F80
FC001F80
FC001F80
FC001F80
FC001F80
FC001F80
FC001F80
FC001F80
FC001F80
FC001F80
FC001F80
FC001F80
FC001F80
FC001F80
FC001F80
FC001F80
FC001F80
FC001F80
FC001F80
FC001F80
FC001F80
FC001F80
FC001F80
FC001F80
FC001F80
FC001F80
FC001F80
FC003F80
FE003F80
FF007F80
7F80FF80
7FFFFF80
3FFFFF80
1FFFDF80
0FFF9F80
03FE1F80
00200000
ENDCHAR
STARTCHAR 0076
ENCODING 118
SWIDTH 384 0
DWIDTH 32 0
BBX 28 43 2 0
BITMAP
FC0007F0
FE0007E0
FE0007E0
7E000FE0
7E000FE0
7F000FC0
7F000FC0
3F000FC0
3F001FC0
3F001F80
3F801F80
1F801F80
1F803F80
1F803F00
1FC03F00
0FC03F00
0FC03F00
0FC07E00
0FC07E00
07E07E00
07E07E00
07E07C00
07E0FC00
03F0FC00
03F0FC00
03F0F800
03F1F800
01F1F800
01F9F800
01F9F000
01F9F000
00FBF000
00FFF000
00FFE000
00FFE000
007FE000
007FE000
007FC000
007FC000
003FC000
003FC000
003F8000
003F8000
ENDCHAR
STARTCHAR 0077
ENCODING 119
SWIDTH 552 0
DWIDTH 46 0
BBX 42 43 2 0
BITMAP
FC003F0007C0
FC003F000FC0
FC003F000FC0
FC003F000FC0
7C003F800F80
7E007F800F80
7E007F801F80
7E007F801F80
3E007F801F80
3E007F801F00
3F00FFC01F00
3F00FFC03F00
3F00FFC03F00
1F00F7C03E00
1F00F3C03E00
1F01F3E03E00
1F81F3E03E00
1F81F3E07E00
0F81E3E07C00
0F81E1E07C00
0F83E1F07C00
0FC3E1F07C00
07C3E1F0FC00
07C3C1F0F800
07C3C0F0F800
07C3C0F8F800
07C7C0F8F800
03E7C0F9F000
03E780F9F000
03E78079F000
03E78079F000
01EF807DF000
01FF807FE000
01FF807FE000
01FF003FE000
01FF003FE000
00FF003FE000
00FF003FC000
00FF003FC000
00FE001FC000
00FE001FC000
007E001FC000
007E001F8000
ENDCHAR
STARTCHAR 0078
ENCODING 120
SWIDTH 372 0
DWIDTH 31 0
BBX 28 43 2 0
BITMAP
FC0007E0
FE0007E0
7E000FE0
7F000FC0
3F001FC0
3F001F80
1F803F80
1F803F00
0FC07F00
0FC07E00
07E0FE00
07E0FC00
03F0FC00
03F1F800
01F9F800
01FBF000
00FFF000
00FFE000
007FE000
007FC000
003FC000
003F8000
003FC000
007FC000
007FE000
00FFE000
00FFF000
01FBF000
01FBF800
03F1F800
03F1FC00
07E0FC00
07E0FE00
0FC07E00
0FC07F00
1FC03F00
1F803F80
3F801F80
3F001FC0
7F000FC0
7E000FE0
FE0007E0
FC0007F0
ENDCHAR
STARTCHAR 0079
ENCODING 121
SWIDTH 372 0
DWIDTH 31 0
BBX 27 60 2 -17
BITMAP
FC0007E0
FC0007E0
FC000FE0
FC000FC0
7E000FC0
7E000FC0
7E001FC0
7E001F80
3F001F80
3F001F80
3F001F80
3F003F00
1F003F00
1F803F00
1F803F00
1F803E00
0F807E00
0F807E00
0FC07E00
0FC07C00
07C0FC00
07C0FC00
07E0FC00
07E0F800
03E0F800
03E1F800
03E1F800
03F1F000
01F1F000
01F1F000
01F3F000
01FBE000
00FBE000
00FBE000
00FFE000
00FFC000
007FC000
007FC000
007FC000
007F8000
003F8000
003F8000
003F8000
003F0000
003F0000
003F0000
003E0000
007E0000
007E0000
007E0000
00FC0000
00FC0000
01FC0000
03F80000
0FF80000
7FF00000
7FF00000
7FE00000
7F800000
7E000000
ENDCHAR
STARTCHAR 007A
ENCODING 122
SWIDTH 360 0
DWIDTH 30 0
BBX 24 43 3 0
BITMAP
FFFFFF
FFFFFF
FFFFFF
FFFFFF
FFFFFF
00007F
0000FF
0000FE
0001FC
0001FC
0003F8
0003F8
0007F0
0007F0
000FE0
000FE0
001FC0
001FC0
003F80
007F80
007F00
00FF00
00FE00
01FC00
01FC00
03F800
03F800
07F000
07F000
0FE000
0FE000
1FC000
1FC000
3F8000
3F8000
7F0000
FE0000
FE0000
FFFFFF
FFFFFF
FFFFFF
FFFFFF
FFFFFF
ENDCHAR
STARTCHAR 007B
ENCODING 123
SWIDTH 276 0
DWIDTH 23 0
BBX 19 75 2 -10
BITMAP
007FE0
00FFE0
01FFE0
03FFE0
03FFE0
03F800
07F000
07F000
07E000
07E000
07E000
07E000
07E000
07E000
07E000
07E000
07E000
07E000
07E000
07E000
07E000
07E000
07E000
07E000
07E000
07E000
07E000
07E000
07E000
07E000
07E000
07E000
0FE000
1FC000
7FC000
FF8000
FF0000
FE0000
FF0000
7F8000
1FC000
0FC000
0FE000
07E000
07E000
07E000
07E000
07E000
07E000
07E000
07E000
07E000
07E000
07E000
07E000
07E000
07E000
07E000
07E000
07E000
07E000
07E000
07E000
07E000
07E000
07E000
07E000
07F000
07F000
03FC00
03FFE0
03FFE0
01FFE0
00FFE0
003FE0
ENDCHAR
STARTCHAR 007C
ENCODING 124
SWIDTH 144 0
DWIDTH 12 0
BBX 6 71 3 -7
BITMAP
78
FC
FC
FC
FC
FC
FC
FC
FC
FC
FC
FC
FC
FC
FC
FC
FC
FC
FC
FC
FC
FC
FC
FC
FC
FC
FC
FC
FC
FC
FC
FC
FC
FC
FC
FC
FC
FC
FC
FC
FC
FC
FC
FC
FC
FC
FC
FC
FC
FC
FC
FC
FC
FC
FC
FC
FC
FC
FC
FC
FC
FC
FC
FC
FC
FC
FC
FC
FC
FC
FC
ENDCHAR
STARTCHAR 007D
ENCODING 125
SWIDTH 276 0
DWIDTH 23 0
BBX 19 75 2 -10
BITMAP
FF8000
FFE000
FFF000
FFF000
FFF800
07F800
03F800
01F800
01FC00
00FC00
00FC00
00FC00
00FC00
00FC00
00FC00
00FC00
00FC00
00FC00
00FC00
00FC00
00FC00
00FC00
00FC00
00FC00
00FC00
00FC00
00FC00
00FC00
00FC00
00FC00
00FC00
00FC00
00FE00
00FE00
007F00
003FE0
003FE0
000FE0
001FE0
003FE0
007F00
007E00
00FE00
00FC00
00FC00
00FC00
00FC00
00FC00
00FC00
00FC00
00FC00
00FC00
00FC00
00FC00
00FC00
00FC00
00FC00
00FC00
00FC00
00FC00
00FC00
00FC00
00FC00
00FC00
00FC00
00FC00
01FC00
01F800
03F800
07F800
FFF800
FFF000
FFF000
FFE000
FF8000
ENDCHAR
STARTCHAR 007E
ENCODING 126
SWIDTH 456 0
DWIDTH 38 0
BBX 32 10 3 20
BITMAP
03F80000
0FFE000C
1FFF800F
3FFFE01F
7FFFF87F
FE0FFFFE
F803FFFC
F000FFF8
30003FF0
00000FE0
ENDCHAR
STARTCHAR 00A0
ENCODING 160
SWIDTH 204 0
DWIDTH 17 0
BBX 0 0 0 0
BITMAP
ENDCHAR
STARTCHAR 00A1
ENCODING 161
SWIDTH 252 0
DWIDTH 21 0
BBX 9 58 6 1
BITMAP
3E00
7F00
FF80
FF80
FF80
FF80
FF80
7F00
3E00
0000
0000
0000
0000
0000
0000
0000
0000
0000
3E00
3E00
3E00
3E00
3E00
3E00
3E00
3E00
3E00
3E00
3E00
3E00
3E00
3E00
3E00
3E00
3E00
3E00
3E00
3E00
3E00
3E00
3E00
3E00
3E00
3E00
3E00
3E00
3E00
3E00
3E00
3E00
3E00
3E00
3E00
3E00
3E00
3E00
3E00
3F00
ENDCHAR
STARTCHAR 00A2
ENCODING 162
SWIDTH 408 0
DWIDTH 34 0
BBX 26 58 4 0
BITMAP
001F0000
001F0000
001F0000
001F0000
001F0000
001F0000
001F0000
007FC000
03FFF000
07FFFC00
0FFFFE00
1FFFFF00
3FC0FF80
3F803F80
7F001FC0
7E001FC0
7E000FC0
FC000FC0
FC000FC0
FC000FC0
FC000000
FC000000
FC000000
FC000000
FC000000
FC000000
FC000000
FC000000
FC000000
FC000000
FC000000
FC000000
FC000000
FC000000
FC000000
FC000000
FC000000
FC000000
FC000FC0
FC000FC0
FC000FC0
FE000FC0
7E001FC0
7F001FC0
7F803F80
3FE0FF80
1FFFFF00
1FFFFE00
07FFFC00
03FFF000
00FFC000
001F0000
001F0000
001F0000
001F0000
001F0000
001F0000
001F0000
ENDCHAR
STARTCHAR 00A3
ENCODING 163
SWIDTH 504 0
DWIDTH 42 0
BBX 33 59 6 0
BITMAP
0000FF0000
0007FFC000
000FFFE000
003FFFF000
003FFFF800
007FC3FC00
00FE00FE00
00FC007E00
01FC007E00
01F8003F00
01F8003F00
03F0003F00
03F0001C00
03F0000000
03F0000000
03F0000000
03F0000000
03F0000000
03F0000000
03F0000000
03F0000000
03F0000000
03F0000000
03F0000000
03F0000000
03F0000000
03F0000000
03F0000000
FFFFFF8000
FFFFFF8000
FFFFFF8000
FFFFFF8000
FFFFFF8000
03F0000000
03F0000000
03F0000000
03F0000000
03F0000000
03F0000000
03F0000000
03F0000000
03F0000000
03F0000000
03F0000000
03F0000000
03F0000000
03F0000000
03E0000000
07E0000000
07E0000000
07E0000000
0FC0000000
0FC0000000
1F80000000
3FFFFFFF80
3FFFFFFF80
3FFFFFFF80
3FFFFFFF80
3FFFFFFF80
ENDCHAR
STARTCHAR 00A4
ENCODING 164
SWIDTH 516 0
DWIDTH 43 0
BBX 39 39 2 7
BITMAP
1000000010
3800000038
7C0000007C
FE01FE00FE
FF0FFFC1FC
7FBFFFF3F8
3FFFFFFFF0
1FFFFFFFE0
0FFF07FFC0
07FC00FF80
07F0003F80
07E0001F80
0FC0000FC0
0F80000FC0
1F800007E0
1F000003E0
1F000003E0
3F000003E0
3F000003F0
3F000003F0
3F000003F0
3F000003F0
1F000003E0
1F000003E0
1F800007E0
1F800007E0
0FC0000FC0
0FE0001FC0
07F0003F80
03F8007F80
07FF03FFC0
0FFFFFFFE0
1FFFFFFFF0
3FBFFFF7F8
7F0FFFC3FC
FE03FF01FC
7C000000FC
3800000078
1000000020
ENDCHAR
STARTCHAR 00A5
ENCODING 165
SWIDTH 528 0
DWIDTH 44 0
BBX 31 59 6 0
BITMAP
7E0000FC
7E0000FC
3F0001FC
3F0001F8
3F0001F8
1F8003F0
1F8003F0
1F8003F0
0FC007E0
0FC007E0
07C007E0
07E00FC0
07E00FC0
03E00FC0
03F01F80
03F01F80
01F01F00
01F83F00
01F83F00
00F83E00
00FC7E00
007C7E00
007C7C00
007EFC00
003EFC00
003FF800
003FF800
001FF000
001FF000
000FF000
7FFFFFFE
FFFFFFFE
FFFFFFFE
7FFFFFFE
0007E000
0007E000
0007E000
0007E000
0007E000
0007E000
7FFFFFFE
FFFFFFFE
FFFFFFFE
7FFFFFFE
0007E000
0007E000
0007E000
0007E000
0007E000
0007E000
0007E000
0007E000
0007E000
0007E000
0007E000
0007E000
0007E000
0007E000
0007C000
ENDCHAR
STARTCHAR 00A6
ENCODING 166
SWIDTH 144 0
DWIDTH 12 0
BBX 6 71 3 -7
BITMAP
FC
FC
FC
FC
FC
FC
FC
FC
FC
FC
FC
FC
FC
FC
FC
FC
FC
FC
FC
FC
FC
FC
FC
FC
FC
FC
FC
FC
FC
FC
FC
FC
00
00
00
00
00
00
00
00
FC
FC
FC
FC
FC
FC
FC
FC
FC
FC
FC
FC
FC
FC
FC
FC
FC
FC
FC
FC
FC
FC
FC
FC
FC
FC
FC
FC
FC
FC
FC
ENDCHAR
STARTCHAR 00A7
ENCODING 167
SWIDTH 384 0
DWIDTH 32 0
BBX 26 76 3 -17
BITMAP
007F8000
01FFE000
07FFF800
0FFFFC00
1FFFFC00
1FE1FE00
3F80FF00
3F807F00
7F003F80
7E001F80
7E001F80
7E001F80
7E001F80
7E001F80
7E001F80
7E000000
7E000000
7E000000
3F000000
3F800000
1FC00000
1FE00000
0FF80000
07FE0000
03FF8000
00FFE000
03FFF800
07FFFC00
0FFFFE00
1FE1FF00
1FC07F00
3F803F80
3F001F80
7E001F80
7E001FC0
7E000FC0
7E000FC0
7E000FC0
FE000FC0
7E000FC0
7E000FC0
7E000FC0
7E001F80
7F001F80
7F003F80
3F803F00
3FC0FF00
1FFFFE00
0FFFFC00
07FFF800
03FFE000
00FFE000
003FF800
000FFC00
0003FE00
0000FE00
00007F00
00003F00
00003F80
00001F80
00001F80
7E001F80
7E001F80
7E001F80
7E001F80
7E001F80
7F001F80
3F003F80
3F803F00
3FC07F00
1FE1FE00
0FFFFE00
0FFFFC00
07FFF800
01FFE000
007F8000
ENDCHAR
STARTCHAR 00A8
ENCODING 168
SWIDTH 312 0
DWIDTH 26 0
BBX 22 9 2 50
BITMAP
3E01E0
7F07F8
FF87F8
FF8FFC
FF8FFC
FF8FFC
FF87F8
7F07F8
3E01E0
ENDCHAR
STARTCHAR 00A9
ENCODING 169
SWIDTH 840 0
DWIDTH 70 0
BBX 60 60 5 -1
BITMAP
000000FFF0000000
00000FFFFF000000
00007FFFFFC00000
0001FFFFFFF00000
0003FF801FFC0000
000FF80001FF0000
001FC000007F8000
007F0000001FC000
00FE00000007E000
01F800000003F000
01F000000001F800
03E000000000FC00
07C0000000007C00
0F80000000003E00
0F00000000001F00
1F00000000000F00
1E00001F80000F80
3C00007FE0000780
3C0000FFF00007C0
7C0001F0F00003C0
780001E0780003C0
780001C0780001E0
F00001C0780001E0
F00001C0380001E0
F00001C0000001E0
F00001C0000000F0
F00001C0000000F0
F00001C0000000F0
E00001C0000000F0
E00001C0000000F0
E00001C0000000F0
E00001C0000000F0
F00001C0000000F0
F00001C0000000F0
F00001C0000000F0
F00001C0000000E0
F00001C0380001E0
F00001C0780001E0
780001C0780001E0
780001E0780003C0
7C0001F0F00003C0
3C0000FFF00007C0
3E00007FE0000780
1E00001F80000F80
1F00000000000F00
0F00000000001F00
0F80000000003E00
07C0000000007C00
03E000000000FC00
01F000000001F800
01F800000003F000
00FE00000007E000
007F0000001FC000
001FC000007F8000
000FF80001FE0000
0007FF001FFC0000
0001FFFFFFF00000
00007FFFFFC00000
00000FFFFF000000
000000FFE0000000
ENDCHAR
STARTCHAR 00AA
ENCODING 170
SWIDTH 276 0
DWIDTH 23 0
BBX 19 37 2 23
BITMAP
03F000
0FFC00
1FFE00
3FFF00
7E1F80
7C0F80
7807C0
F807C0
0007C0
0003C0
0003C0
0003C0
0003C0
07FFC0
1FFFC0
3FFFC0
7E03C0
F803C0
F803C0
F003C0
F003C0
F007C0
F007C0
F80FC0
FC1FC0
7FFFC0
7FFBC0
3FF3C0
0FC380
000000
000000
000000
000000
FFFFE0
FFFFE0
FFFFE0
FFFFE0
ENDCHAR
STARTCHAR 00AB
ENCODING 171
SWIDTH 468 0
DWIDTH 39 0
BBX 27 29 6 9
BITMAP
007C07E0
00FC07C0
00F80FC0
01F81F80
03F01F00
03E03F00
07E07E00
0FC07C00
0F80FC00
1F81F800
3F01F000
3E03F000
7E07E000
FC07C000
FC0FC000
FC07C000
7E07E000
3E03F000
3F01F000
1F81F800
0F80FC00
0FC07C00
07E07E00
03E03F00
03F01F00
01F81F80
00F80FC0
00FC07C0
007C07E0
ENDCHAR
STARTCHAR 00AC
ENCODING 172
SWIDTH 444 0
DWIDTH 37 0
BBX 31 14 3 15
BITMAP
FFFFFFFE
FFFFFFFE
FFFFFFFE
FFFFFFFE
FFFFFFFE
0000003E
0000003E
0000003E
0000003E
0000003E
0000003E
0000003E
0000003E
0000003E
ENDCHAR
STARTCHAR 00AD
ENCODING 173
SWIDTH 312 0
DWIDTH 26 0
BBX 20 5 3 24
BITMAP
FFFFF0
FFFFF0
FFFFF0
FFFFF0
FFFFF0
ENDCHAR
STARTCHAR 00AE
ENCODING 174
SWIDTH 444 0
DWIDTH 37 0
BBX 33 33 2 27
BITMAP
000FF00000
007FFE0000
00FFFF8000
03F00FC000
07C003F000
0F0000F800
1E00007800
3C00003C00
3800001E00
780FE00E00
700FF80F00
700E380700
F00E180700
E00E1C0700
E00E180780
E00E380780
E00FF00780
E00FE00780
E00E600780
E00E700700
F00E700700
700E380700
700E380F00
780C180E00
3C00001E00
3C00003C00
1E00007800
0F0000F800
07C003F000
03F80FE000
01FFFF8000
007FFE0000
000FF00000
ENDCHAR
STARTCHAR 00AF
ENCODING 175
SWIDTH 492 0
DWIDTH 41 0
BBX 17 4 12 50
BITMAP
FFFF80
FFFF80
FFFF80
FFFF80
ENDCHAR
STARTCHAR 00B0
ENCODING 176
SWIDTH 360 0
DWIDTH 30 0
BBX 26 27 2 41
BITMAP
007F8000
01FFE000
07FFF800
0FFFFC00
1FC0FE00
3F003F00
3E001F00
7C000F80
78000F80
F8000780
F00007C0
F00003C0
F00003C0
F00003C0
F00003C0
F00003C0
F00007C0
F8000780
78000780
7C000F80
3E001F00
3F003E00
1FC0FE00
0FFFFC00
07FFF800
01FFE000
007F0000
ENDCHAR
STARTCHAR 00B1
ENCODING 177
SWIDTH 444 0
DWIDTH 37 0
BBX 31 44 3 2
BITMAP
0007C000
0007C000
0007C000
0007C000
0007C000
0007C000
0007C000
0007C000
0007C000
0007C000
0007C000
0007C000
0007C000
0007C000
FFFFFFFE
FFFFFFFE
FFFFFFFE
FFFFFFFE
FFFFFFFE
0007C000
0007C000
0007C000
0007C000
0007C000
0007C000
0007C000
0007C000
0007C000
0007C000
0007C000
0007C000
0007C000
00000000
00000000
00000000
00000000
00000000
00000000
00000000
FFFFFFFE
FFFFFFFE
FFFFFFFE
FFFFFFFE
FFFFFFFE
ENDCHAR
STARTCHAR 00B2
ENCODING 178
SWIDTH 240 0
DWIDTH 20 0
BBX 17 36 2 37
BITMAP
07E000
1FF800
3FFC00
7FFE00
7C3E00
F81F00
F01F00
F00F00
F00F00
F00F00
F00F00
E00F00
001F00
001F00
001E00
003E00
003E00
007C00
007C00
00F800
01F800
01F000
03F000
03E000
07C000
0FC000
0F8000
1F8000
3F0000
3E0000
7E0000
FC0000
FFFF80
FFFF80
FFFF80
FFFF80
ENDCHAR
STARTCHAR 00B3
ENCODING 179
SWIDTH 264 0
DWIDTH 22 0
BBX 17 36 2 36
BITMAP
FFFF80
FFFF80
FFFF80
FFFF80
001F00
001F00
003E00
007C00
007800
00F800
01F000
03E000
03E000
07F000
07FC00
03FE00
001E00
000F00
000F00
000F00
000780
000780
000780
000780
F00780
F00780
F00780
F80780
F80F80
780F00
7C1F00
7FFF00
3FFE00
1FFC00
0FF800
008000
ENDCHAR
STARTCHAR 00B4
ENCODING 180
SWIDTH 180 0
DWIDTH 15 0
BBX 11 11 2 48
BITMAP
03E0
07C0
07C0
0F80
1F00
1F00
3E00
3C00
7C00
7800
F800
ENDCHAR
STARTCHAR 00B5
ENCODING 181
SWIDTH 432 0
DWIDTH 36 0
BBX 26 60 5 -17
BITMAP
FC000FC0
FC000FC0
FC000FC0
FC000FC0
FC000FC0
FC000FC0
FC000FC0
FC000FC0
FC000FC0
FC000FC0
FC000FC0
FC000FC0
FC000FC0
FC000FC0
FC000FC0
FC000FC0
FC000FC0
FC000FC0
FC000FC0
FC000FC0
FC000FC0
FC000FC0
FC000FC0
FC000FC0
FC000FC0
FC000FC0
FC000FC0
FC000FC0
FC000FC0
FC000FC0
FC000FC0
FC000FC0
FC001FC0
FC001FC0
FE001FC0
FE003FC0
FF007FC0
FF80FFC0
FFFFFFC0
FFFFEFC0
FFFFCFC0
FFFF8FC0
FFFF0FC0
FC300000
FC000000
FC000000
FC000000
FC000000
FC000000
FC000000
FC000000
FC000000
FC000000
FC000000
FC000000
FC000000
FC000000
FC000000
FC000000
FC000000
ENDCHAR
STARTCHAR 00B6
ENCODING 182
SWIDTH 468 0
DWIDTH 39 0
BBX 30 76 3 -17
BITMAP
003FFFFC
00FFFFFC
01FFFFFC
07FFFFFC
0FFFFFFC
0FFFC07C
1FFFC07C
3FFFC07C
3FFFC07C
7FFFC07C
7FFFC07C
7FFFC07C
7FFFC07C
FFFFC07C
FFFFC07C
FFFFC07C
FFFFC07C
FFFFC07C
FFFFC07C
FFFFC07C
FFFFC07C
FFFFC07C
FFFFC07C
FFFFC07C
FFFFC07C
FFFFC07C
7FFFC07C
7FFFC07C
7FFFC07C
3FFFC07C
3FFFC07C
1FFFC07C
1FFFC07C
0FFFC07C
07FFC07C
03FFC07C
00FFC07C
003FC07C
0007C07C
0007C07C
0007C07C
0007C07C
0007C07C
0007C07C
0007C07C
0007C07C
0007C07C
0007C07C
0007C07C
0007C07C
0007C07C
0007C07C
0007C07C
0007C07C
0007C07C
0007C07C
0007C07C
0007C07C
0007C07C
0007C07C
0007C07C
0007C07C
0007C07C
0007C07C
0007C07C
0007C07C
0007C07C
0007C07C
0007C07C
0007C07C
0007C07C
0007C07C
0007C07C
0007C07C
0007C07C
0007C07C
ENDCHAR
STARTCHAR 00B7
ENCODING 183
SWIDTH 192 0
DWIDTH 16 0
BBX 10 9 3 18
BITMAP
1E00
3F80
7F80
7FC0
FFC0
7FC0
7F80
3F80
1E00
ENDCHAR
STARTCHAR 00B8
ENCODING 184
SWIDTH 120 0
DWIDTH 10 0
BBX 10 16 0 -16
BITMAP
3C00
1E00
0F00
0F80
0780
0780
03C0
03C0
03C0
03C0
03C0
07C0
7F80
FF80
FF00
7C00
ENDCHAR
STARTCHAR 00B9
ENCODING 185
SWIDTH 144 0
DWIDTH 12 0
BBX 8 35 2 37
BITMAP
3F
FF
FF
FF
DF
1F
1F
1F
1F
1F
1F
1F
1F
1F
1F
1F
1F
1F
1F
1F
1F
1F
1F
1F
1F
1F
1F
1F
1F
1F
1F
1F
1F
1F
1F
ENDCHAR
STARTCHAR 00BA
ENCODING 186
SWIDTH 276 0
DWIDTH 23 0
BBX 19 37 2 23
BITMAP
03F800
0FFE00
1FFF00
3FFF80
3E0FC0
7C07C0
7C03C0
7803C0
7803E0
7803E0
7803E0
7803E0
7803E0
7803E0
7803E0
7803E0
7803E0
7803E0
7803E0
7803E0
7803C0
7803C0
7C03C0
7C07C0
3E0FC0
3FFF80
1FFF00
0FFE00
03F800
000000
000000
000000
000000
FFFFE0
FFFFE0
FFFFE0
FFFFE0
ENDCHAR
STARTCHAR 00BB
ENCODING 187
SWIDTH 468 0
DWIDTH 39 0
BBX 27 29 6 9
BITMAP
FC07C000
7E07E000
3E03F000
3F01F000
1F81F800
0F80FC00
0FC07C00
07E07E00
03E03F00
03F01F00
01F81F80
00F80FC0
00FC07C0
007E07E0
007E03E0
007E07E0
00FC07C0
00F80FC0
01F81F80
03F01F00
03E03F00
07E07E00
0FC07C00
0F80FC00
1F81F800
3F01F000
3E03F000
7E07E000
7C07C000
ENDCHAR
STARTCHAR 00BC
ENCODING 188
SWIDTH 660 0
DWIDTH 55 0
BBX 52 59 2 0
BITMAP
0000000000F000
3F00000001F000
FF00000003E000
FF00000003C000
FF00000007C000
DF000000078000
1F0000000F8000
1F0000001F0000
1F0000001E0000
1F0000003E0000
1F0000007C0000
1F000000780000
1F000000F80000
1F000000F00000
1F000001E00000
1F000003E00000
1F000003C00000
1F000007C00000
1F00000F800000
1F00000F000000
1F00001F000000
1F00001E000000
1F00003C000000
1F00007C003800
1F000078007800
1F0000F800F800
1F0001F000F800
1F0001E000F000
1F0003E001F000
1F0003C001F000
1F00078001E000
1F000F8003E000
1F000F0003E000
1F001F0003C000
1F003E0007C000
1F003C0007C000
00007C00078000
000078000F8000
0000F0000F83C0
0001F0000F03C0
0001E0001F03C0
0003E0001F03C0
0007C0001E03C0
000780003E03C0
000F80003E03C0
000F00003C03C0
001E00007FFFF0
003E00007FFFF0
003C00007FFFF0
007C00007FFFF0
00F800000003C0
00F000000003C0
01F000000003C0
01E000000003C0
03C000000003C0
07C000000003C0
078000000003C0
0F8000000003C0
0F0000000003C0
ENDCHAR
STARTCHAR 00BD
ENCODING 189
SWIDTH 660 0
DWIDTH 55 0
BBX 52 59 2 0
BITMAP
0000000000F000
3F00000001F000
FF00000003E000
FF00000003C000
FF00000007C000
DF000000078000
1F0000000F8000
1F0000001F0000
1F0000001E0000
1F0000003E0000
1F0000007C0000
1F000000780000
1F000000F80000
1F000000F00000
1F000001E00000
1F000003E00000
1F000003C00000
1F000007C00000
1F00000F800000
1F00000F000000
1F00001F000000
1F00001E000000
1F00003C000000
1F00007C00FC00
1F00007803FF00
1F0000F807FF80
1F0001F00FFFC0
1F0001E00F87C0
1F0003E01F03E0
1F0003C01E03E0
1F0007801E01E0
1F000F801E01E0
1F000F001E01E0
1F001F001E01E0
1F003E001C01E0
1F003C000003E0
00007C000003E0
000078000003C0
0000F0000007C0
0001F0000007C0
0001E000000F80
0003E000000F80
0007C000001F00
00078000003F00
000F8000003E00
000F0000007E00
001E0000007C00
003E000000F800
003C000001F800
007C000001F000
00F8000003F000
00F0000007E000
01F0000007C000
01E000000FC000
03C000001F8000
07C000001FFFF0
078000001FFFF0
0F8000001FFFF0
0F0000001FFFF0
ENDCHAR
STARTCHAR 00BE
ENCODING 190
SWIDTH 732 0
DWIDTH 61 0
BBX 58 59 2 0
BITMAP
000000000003C000
FFFF800000078000
FFFF8000000F8000
FFFF8000000F0000
FFFF8000001F0000
001F0000003E0000
001F0000003C0000
003E0000007C0000
007C000000F80000
0078000000F00000
00F8000001F00000
01F0000001E00000
03E0000003C00000
03E0000007C00000
07F0000007800000
07FC00000F800000
03FE00001F000000
001E00001E000000
000F00003E000000
000F00003C000000
000F000078000000
00078000F8000000
00078000F0000000
00078001F001C000
00078003E003E000
F0078003C003E000
F0078007C003C000
F00780078007C000
F807800F0007C000
F80F801F00078000
780F001E000F8000
7C1F003E000F8000
7FFF007C000F0000
3FFE0078001F0000
1FFC00F8001F0000
0FF800F0001E0000
008001E0003E0000
000003E0003E0000
000003C0003C0F00
000007C0007C1F00
00000F80007C1F00
00000F0000781F00
00001F0000781F00
00001E0000F81F00
00003C0000F81F00
00007C0000F01F00
0000780001FFFFC0
0000F80001FFFFC0
0001F00001FFFFC0
0001E00001FFFFC0
0003E00000001F00
0003C00000001F00
0007800000001F00
000F800000001F00
000F000000001F00
001F000000001F00
003E000000001F00
003C000000001F00
007C000000000F00
ENDCHAR
STARTCHAR 00BF
ENCODING 191
SWIDTH 372 0
DWIDTH 31 0
BBX 27 60 2 -17
BITMAP
000F8000
001FC000
003FE000
003FE000
003FE000
003FE000
003FE000
001FC000
000F8000
00000000
00000000
00000000
00000000
00000000
00000000
00000000
000F8000
000FC000
000FC000
000FC000
000FC000
000FC000
000FC000
001FC000
001F8000
001F8000
003F8000
003F8000
007F0000
00FF0000
01FE0000
03FC0000
07F80000
0FF00000
1FE00000
1FC00000
3FC00000
3F800000
7F000000
7F000000
7E000000
7E000000
7E0007E0
7C0007E0
FC0007E0
FC0007C0
7C0007C0
7E000FC0
7E000FC0
7E000FC0
7E000FC0
7F001F80
3F803F80
3FC07F00
1FE1FF00
0FFFFE00
0FFFFC00
03FFF800
01FFE000
007F8000
ENDCHAR
STARTCHAR 00C0
ENCODING 192
SWIDTH 408 0
DWIDTH 34 0
BBX 32 75 1 0
BITMAP
00F80000
00F80000
007C0000
007C0000
003E0000
001E0000
001F0000
000F8000
000F8000
0007C000
0003C000
00000000
00000000
00000000
00000000
00000000
0007E000
000FF000
000FF000
000FF000
000FF000
000FF000
001FF800
001FF800
001FF800
001FF800
003FFC00
003E7C00
003E7C00
003E7C00
003E7C00
007E7E00
007C3E00
007C3E00
007C3E00
00FC3F00
00FC3F00
00F81F00
00F81F00
00F81F00
01F81F80
01F80F80
01F00F80
01F00F80
01F00FC0
03F00FC0
03F007C0
03E007C0
03E007C0
07E007E0
07E007E0
07E003E0
07C003E0
07C003F0
0FC003F0
0FC003F0
0F8001F0
0F8001F0
1FFFFFF8
1FFFFFF8
1FFFFFF8
1FFFFFF8
1FFFFFFC
3F0000FC
3F0000FC
3F0000FC
3F00007C
7E00007E
7E00007E
7E00007E
7E00007E
7E00003F
FC00003F
FC00003F
FC00003F
ENDCHAR
STARTCHAR 00C1
ENCODING 193
SWIDTH 408 0
DWIDTH 34 0
BBX 32 75 1 0
BITMAP
00003E00
00007C00
00007C00
0000F800
0000F800
0001F000
0003E000
0003E000
0007C000
00078000
000F8000
00000000
00000000
00000000
00000000
00000000
0007E000
000FF000
000FF000
000FF000
000FF000
000FF000
001FF800
001FF800
001FF800
001FF800
003FFC00
003E7C00
003E7C00
003E7C00
003E7C00
007E7E00
007C3E00
007C3E00
007C3E00
00FC3F00
00FC3F00
00F81F00
00F81F00
00F81F00
01F81F80
01F80F80
01F00F80
01F00F80
01F00FC0
03F00FC0
03F007C0
03E007C0
03E007C0
07E007E0
07E007E0
07E003E0
07C003E0
07C003F0
0FC003F0
0FC003F0
0F8001F0
0F8001F0
1FFFFFF8
1FFFFFF8
1FFFFFF8
1FFFFFF8
1FFFFFFC
3F0000FC
3F0000FC
3F0000FC
3F00007C
7E00007E
7E00007E
7E00007E
7E00007E
7E00003F
FC00003F
FC00003F
FC00003F
ENDCHAR
STARTCHAR 00C2
ENCODING 194
SWIDTH 408 0
DWIDTH 34 0
BBX 32 76 1 0
BITMAP
0007C000
000FF000
000FF000
001FF800
003FFC00
003E7C00
007C3E00
00FC3E00
00F81F00
01F81F80
01F00F80
00000000
00000000
00000000
00000000
00000000
00000000
0007E000
000FF000
000FF000
000FF000
000FF000
000FF000
001FF800
001FF800
001FF800
001FF800
003FFC00
003E7C00
003E7C00
003E7C00
003E7C00
007E7E00
007C3E00
007C3E00
007C3E00
00FC3F00
00FC3F00
00F81F00
00F81F00
00F81F00
01F81F80
01F80F80
01F00F80
01F00F80
01F00FC0
03F00FC0
03F007C0
03E007C0
03E007C0
07E007E0
07E007E0
07E003E0
07C003E0
07C003F0
0FC003F0
0FC003F0
0F8001F0
0F8001F0
1FFFFFF8
1FFFFFF8
1FFFFFF8
1FFFFFF8
1FFFFFFC
3F0000FC
3F0000FC
3F0000FC
3F00007C
7E00007E
7E00007E
7E00007E
7E00007E
7E00003F
FC00003F
FC00003F
FC00003F
ENDCHAR
STARTCHAR 00C3
ENCODING 195
SWIDTH 408 0
DWIDTH 34 0
BBX 32 75 1 0
BITMAP
003E0000
00FF8040
01FFC0F0
01FFF1F0
03E1FFE0
01C0FFC0
00803F80
00001F00
00000000
00000000
00000000
00000000
00000000
00000000
00000000
00000000
0007E000
000FF000
000FF000
000FF000
000FF000
000FF000
001FF800
001FF800
001FF800
001FF800
003FFC00
003E7C00
003E7C00
003E7C00
003E7C00
007E7E00
007C3E00
007C3E00
007C3E00
00FC3F00
00FC3F00
00F81F00
00F81F00
00F81F00
01F81F80
01F80F80
01F00F80
01F00F80
01F00FC0
03F00FC0
03F007C0
03E007C0
03E007C0
07E007E0
07E007E0
07E003E0
07C003E0
07C003F0
0FC003F0
0FC003F0
0F8001F0
0F8001F0
1FFFFFF8
1FFFFFF8
1FFFFFF8
1FFFFFF8
1FFFFFFC
3F0000FC
3F0000FC
3F0000FC
3F00007C
7E00007E
7E00007E
7E00007E
7E00007E
7E00003F
FC00003F
FC00003F
FC00003F
ENDCHAR
STARTCHAR 00C4
ENCODING 196
SWIDTH 408 0
DWIDTH 34 0
BBX 32 75 1 0
BITMAP
00F00F80
03F81FC0
03FC3FE0
07FC3FE0
07FE3FE0
07FC3FE0
03FC3FC0
03F81FC0
01F00F00
00000000
00000000
00000000
00000000
00000000
00000000
00000000
0007E000
000FF000
000FF000
000FF000
000FF000
000FF000
001FF800
001FF800
001FF800
001FF800
003FFC00
003E7C00
003E7C00
003E7C00
003E7C00
007E7E00
007C3E00
007C3E00
007C3E00
00FC3F00
00FC3F00
00F81F00
00F81F00
00F81F00
01F81F80
01F80F80
01F00F80
01F00F80
01F00FC0
03F00FC0
03F007C0
03E007C0
03E007C0
07E007E0
07E007E0
07E003E0
07C003E0
07C003F0
0FC003F0
0FC003F0
0F8001F0
0F8001F0
1FFFFFF8
1FFFFFF8
1FFFFFF8
1FFFFFF8
1FFFFFFC
3F0000FC
3F0000FC
3F0000FC
3F00007C
7E00007E
7E00007E
7E00007E
7E00007E
7E00003F
FC00003F
FC00003F
FC00003F
ENDCHAR
STARTCHAR 00C5
ENCODING 197
SWIDTH 408 0
DWIDTH 34 0
BBX 32 83 1 0
BITMAP
0007E000
001FF800
003FFC00
007FFE00
00FC3F00
00F00F00
00E00780
01E00780
01E00780
01E00780
01E00780
00E00780
00F00F00
00FC3F00
007FFE00
003FFC00
001FF800
0007E000
00000000
00000000
00000000
00000000
00000000
00000000
0007E000
000FF000
000FF000
000FF000
000FF000
000FF000
001FF800
001FF800
001FF800
001FF800
003FFC00
003E7C00
003E7C00
003E7C00
003E7C00
007E7E00
007C3E00
007C3E00
007C3E00
00FC3F00
00FC3F00
00F81F00
00F81F00
00F81F00
01F81F80
01F80F80
01F00F80
01F00F80
01F00FC0
03F00FC0
03F007C0
03E007C0
03E007C0
07E007E0
07E007E0
07E003E0
07C003E0
07C003F0
0FC003F0
0FC003F0
0F8001F0
0F8001F0
1FFFFFF8
1FFFFFF8
1FFFFFF8
1FFFFFF8
1FFFFFFC
3F0000FC
3F0000FC
3F0000FC
3F00007C
7E00007E
7E00007E
7E00007E
7E00007E
7E00003F
FC00003F
FC00003F
FC00003F
ENDCHAR
STARTCHAR 00C6
ENCODING 198
SWIDTH 696 0
DWIDTH 58 0
BBX 54 59 1 0
BITMAP
0000007FFFFFFC
0000007FFFFFFC
000000FFFFFFFC
000000FFFFFFFC
000001FFFFFFFC
000001FF800000
000001FF800000
000003FF800000
000003FF800000
000007FF800000
000007FF800000
00000FDF800000
00000FDF800000
00000F9F800000
00001F9F800000
00001F9F800000
00003F1F800000
00003F1F800000
00007E1F800000
00007E1F800000
0000FC1F800000
0000FC1F800000
0000FC1F800000
0001F81F800000
0001F81F800000
0003F01F800000
0003F01F800000
0007F01FFFFE00
0007E01FFFFE00
0007E01FFFFE00
000FC01FFFFE00
000FC01FFFFE00
001F801F800000
001F801F800000
003F801F800000
003F001F800000
003F001F800000
007E001F800000
007E001F800000
00FE001F800000
00FC001F800000
01FC001F800000
01F8001F800000
01FFFFFF800000
03FFFFFF800000
03FFFFFF800000
07FFFFFF800000
07FFFFFF800000
0FE0001F800000
0FC0001F800000
0FC0001F800000
1F80001F800000
1F80001F800000
3F80001F800000
3F00001FFFFFFC
7F00001FFFFFFC
7E00001FFFFFFC
7E00001FFFFFFC
FC00001FFFFFFC
ENDCHAR
STARTCHAR 00C7
ENCODING 199
SWIDTH 444 0
DWIDTH 37 0
BBX 28 75 5 -16
BITMAP
007FC000
01FFF800
07FFFC00
0FFFFF00
1FFFFF80
3FF0FF80
7F803FC0
7F000FE0
7E000FE0
FC0007E0
FC0007F0
FC0003F0
FC0003F0
FC0003F0
FC0003F0
FC0003F0
FC0003F0
FC000000
FC000000
FC000000
FC000000
FC000000
FC000000
FC000000
FC000000
FC000000
FC000000
FC000000
FC000000
FC000000
FC000000
FC000000
FC000000
FC000000
FC000000
FC000000
FC000000
FC000000
FC000000
FC000000
FC000000
FC000000
FC000000
FC0003F0
FC0003F0
FC0003F0
FC0003F0
FC0003F0
FC0003F0
FC0003F0
FC0007E0
FE0007E0
7F000FE0
7F801FC0
3FE07F80
1FFFFF80
0FFFFF00
07FFFE00
03FFF800
007FC000
000F0000
00078000
0003C000
0003C000
0001E000
0001E000
0001F000
0001F000
0001F000
0001F000
0003E000
003FE000
003FE000
003FC000
003F0000
ENDCHAR
STARTCHAR 00C8
ENCODING 200
SWIDTH 432 0
DWIDTH 36 0
BBX 26 75 6 0
BITMAP
07C00000
07C00000
03E00000
03E00000
01F00000
00F80000
00F80000
007C0000
003C0000
003E0000
001E0000
00000000
00000000
00000000
00000000
00000000
FFFFFFC0
FFFFFFC0
FFFFFFC0
FFFFFFC0
FFFFFFC0
FC000000
FC000000
FC000000
FC000000
FC000000
FC000000
FC000000
FC000000
FC000000
FC000000
FC000000
FC000000
FC000000
FC000000
FC000000
FC000000
FC000000
FC000000
FC000000
FC000000
FC000000
FC000000
FFFFE000
FFFFE000
FFFFE000
FFFFE000
FFFFE000
FC000000
FC000000
FC000000
FC000000
FC000000
FC000000
FC000000
FC000000
FC000000
FC000000
FC000000
FC000000
FC000000
FC000000
FC000000
FC000000
FC000000
FC000000
FC000000
FC000000
FC000000
FC000000
FFFFFFC0
FFFFFFC0
FFFFFFC0
FFFFFFC0
FFFFFFC0
ENDCHAR
STARTCHAR 00C9
ENCODING 201
SWIDTH 432 0
DWIDTH 36 0
BBX 26 75 6 0
BITMAP
0001F000
0003F000
0003E000
0007C000
0007C000
000F8000
000F0000
001F0000
001E0000
003E0000
003C0000
00000000
00000000
00000000
00000000
00000000
FFFFFFC0
FFFFFFC0
FFFFFFC0
FFFFFFC0
FFFFFFC0
FC000000
FC000000
FC000000
FC000000
FC000000
FC000000
FC000000
FC000000
FC000000
FC000000
FC000000
FC000000
FC000000
FC000000
FC000000
FC000000
FC000000
FC000000
FC000000
FC000000
FC000000
FC000000
FFFFE000
FFFFE000
FFFFE000
FFFFE000
FFFFE000
FC000000
FC000000
FC000000
FC000000
FC000000
FC000000
FC000000
FC000000
FC000000
FC000000
FC000000
FC000000
FC000000
FC000000
FC000000
FC000000
FC000000
FC000000
FC000000
FC000000
FC000000
FC000000
FFFFFFC0
FFFFFFC0
FFFFFFC0
FFFFFFC0
FFFFFFC0
ENDCHAR
STARTCHAR 00CA
ENCODING 202
SWIDTH 432 0
DWIDTH 36 0
BBX 26 76 6 0
BITMAP
003F0000
007F8000
007F8000
00FFC000
00FBE000
01F3E000
03F1F000
03E1F800
07C0F800
0FC0FC00
0F807C00
00000000
00000000
00000000
00000000
00000000
00000000
FFFFFFC0
FFFFFFC0
FFFFFFC0
FFFFFFC0
FFFFFFC0
FC000000
FC000000
FC000000
FC000000
FC000000
FC000000
FC000000
FC000000
FC000000
FC000000
FC000000
FC000000
FC000000
FC000000
FC000000
FC000000
FC000000
FC000000
FC000000
FC000000
FC000000
FC000000
FFFFE000
FFFFE000
FFFFE000
FFFFE000
FFFFE000
FC000000
FC000000
FC000000
FC000000
FC000000
FC000000
FC000000
FC000000
FC000000
FC000000
FC000000
FC000000
FC000000
FC000000
FC000000
FC000000
FC000000
FC000000
FC000000
FC000000
FC000000
FC000000
FFFFFFC0
FFFFFFC0
FFFFFFC0
FFFFFFC0
FFFFFFC0
ENDCHAR
STARTCHAR 00CB
ENCODING 203
SWIDTH 432 0
DWIDTH 36 0
BBX 26 75 6 0
BITMAP
07807C00
1FE0FE00
1FE1FF00
3FF1FF00
3FF1FF00
3FF1FF00
1FE1FF00
1FE0FE00
07807C00
00000000
00000000
00000000
00000000
00000000
00000000
00000000
FFFFFFC0
FFFFFFC0
FFFFFFC0
FFFFFFC0
FFFFFFC0
FC000000
FC000000
FC000000
FC000000
FC000000
FC000000
FC000000
FC000000
FC000000
FC000000
FC000000
FC000000
FC000000
FC000000
FC000000
FC000000
FC000000
FC000000
FC000000
FC000000
FC000000
FC000000
FFFFE000
FFFFE000
FFFFE000
FFFFE000
FFFFE000
FC000000
FC000000
FC000000
FC000000
FC000000
FC000000
FC000000
FC000000
FC000000
FC000000
FC000000
FC000000
FC000000
FC000000
FC000000
FC000000
FC000000
FC000000
FC000000
FC000000
FC000000
FC000000
FFFFFFC0
FFFFFFC0
FFFFFFC0
FFFFFFC0
FFFFFFC0
ENDCHAR
STARTCHAR 00CC
ENCODING 204
SWIDTH 216 0
DWIDTH 18 0
BBX 12 75 0 0
BITMAP
FC00
7C00
3E00
3E00
1F00
1F00
0F80
0780
07C0
03E0
01E0
0000
0000
0000
0000
0000
03F0
03F0
03F0
03F0
03F0
03F0
03F0
03F0
03F0
03F0
03F0
03F0
03F0
03F0
03F0
03F0
03F0
03F0
03F0
03F0
03F0
03F0
03F0
03F0
03F0
03F0
03F0
03F0
03F0
03F0
03F0
03F0
03F0
03F0
03F0
03F0
03F0
03F0
03F0
03F0
03F0
03F0
03F0
03F0
03F0
03F0
03F0
03F0
03F0
03F0
03F0
03F0
03F0
03F0
03F0
03F0
03F0
03F0
03F0
ENDCHAR
STARTCHAR 00CD
ENCODING 205
SWIDTH 216 0
DWIDTH 18 0
BBX 11 75 5 0
BITMAP
03E0
07C0
07C0
0F80
0F00
1F00
3E00
3E00
7C00
7800
F800
0000
0000
0000
0000
0000
7E00
7E00
7E00
7E00
7E00
7E00
7E00
7E00
7E00
7E00
7E00
7E00
7E00
7E00
7E00
7E00
7E00
7E00
7E00
7E00
7E00
7E00
7E00
7E00
7E00
7E00
7E00
7E00
7E00
7E00
7E00
7E00
7E00
7E00
7E00
7E00
7E00
7E00
7E00
7E00
7E00
7E00
7E00
7E00
7E00
7E00
7E00
7E00
7E00
7E00
7E00
7E00
7E00
7E00
7E00
7E00
7E00
7E00
7E00
ENDCHAR
STARTCHAR 00CE
ENCODING 206
SWIDTH 216 0
DWIDTH 18 0
BBX 18 76 0 0
BITMAP
03E000
07F800
0FF800
0FFC00
1F7C00
1F3E00
3E1F00
7E1F00
7C0F80
FC0FC0
F807C0
000000
000000
000000
000000
000000
000000
03F000
03F000
03F000
03F000
03F000
03F000
03F000
03F000
03F000
03F000
03F000
03F000
03F000
03F000
03F000
03F000
03F000
03F000
03F000
03F000
03F000
03F000
03F000
03F000
03F000
03F000
03F000
03F000
03F000
03F000
03F000
03F000
03F000
03F000
03F000
03F000
03F000
03F000
03F000
03F000
03F000
03F000
03F000
03F000
03F000
03F000
03F000
03F000
03F000
03F000
03F000
03F000
03F000
03F000
03F000
03F000
03F000
03F000
03F000
ENDCHAR
STARTCHAR 00CF
ENCODING 207
SWIDTH 216 0
DWIDTH 18 0
BBX 22 75 -2 0
BITMAP
3E01E0
7F03F8
FF87F8
FF87FC
FF8FFC
FF87FC
FF87F8
7F03F8
3E01E0
000000
000000
000000
000000
000000
000000
000000
00FC00
00FC00
00FC00
00FC00
00FC00
00FC00
00FC00
00FC00
00FC00
00FC00
00FC00
00FC00
00FC00
00FC00
00FC00
00FC00
00FC00
00FC00
00FC00
00FC00
00FC00
00FC00
00FC00
00FC00
00FC00
00FC00
00FC00
00FC00
00FC00
00FC00
00FC00
00FC00
00FC00
00FC00
00FC00
00FC00
00FC00
00FC00
00FC00
00FC00
00FC00
00FC00
00FC00
00FC00
00FC00
00FC00
00FC00
00FC00
00FC00
00FC00
00FC00
00FC00
00FC00
00FC00
00FC00
00FC00
00FC00
00FC00
00FC00
ENDCHAR
STARTCHAR 00D0
ENCODING 208
SWIDTH 504 0
DWIDTH 42 0
BBX 31 59 6 0
BITMAP
0FFFF800
0FFFFF00
0FFFFFC0
0FFFFFE0
0FFFFFF0
0FC01FF0
0FC007F8
0FC001FC
0FC001FC
0FC000FC
0FC000FE
0FC0007E
0FC0007E
0FC0007E
0FC0007E
0FC0007E
0FC0007E
0FC0007E
0FC0007E
0FC0007E
0FC0007E
0FC0007E
0FC0007E
0FC0007E
0FC0007E
0FC0007E
FFFF807E
FFFF807E
FFFF807E
FFFF807E
0FC0007E
0FC0007E
0FC0007E
0FC0007E
0FC0007E
0FC0007E
0FC0007E
0FC0007E
0FC0007E
0FC0007E
0FC0007E
0FC0007E
0FC0007E
0FC0007E
0FC0007E
0FC0007E
0FC0007E
0FC0007E
0FC000FE
0FC000FC
0FC001FC
0FC001FC
0FC007F8
0FC01FF0
0FFFFFF0
0FFFFFE0
0FFFFFC0
0FFFFF00
0FFFF800
ENDCHAR
STARTCHAR 00D1
ENCODING 209
SWIDTH 492 0
DWIDTH 41 0
BBX 29 76 6 0
BITMAP
00780000
01FE0180
03FF81C0
07FFC3C0
0787FFC0
0701FF80
0100FF00
00003C00
00000000
00000000
00000000
00000000
00000000
00000000
00000000
00000000
00000000
FE0001F8
FE0001F8
FE0001F8
FF0001F8
FF0001F8
FF0001F8
FF8001F8
FF8001F8
FFC001F8
FFC001F8
FFC001F8
FFE001F8
FFE001F8
FFE001F8
FFF001F8
FFF001F8
FDF801F8
FDF801F8
FCF801F8
FCFC01F8
FCFC01F8
FC7C01F8
FC7E01F8
FC7E01F8
FC3E01F8
FC3F01F8
FC1F01F8
FC1F81F8
FC1F81F8
FC0F81F8
FC0FC1F8
FC0FC1F8
FC07C1F8
FC07E1F8
FC03E1F8
FC03F1F8
FC03F1F8
FC01F1F8
FC01F9F8
FC01F9F8
FC00F9F8
FC00FDF8
FC007DF8
FC007FF8
FC007FF8
FC003FF8
FC003FF8
FC003FF8
FC001FF8
FC001FF8
FC000FF8
FC000FF8
FC000FF8
FC0007F8
FC0007F8
FC0007F8
FC0003F8
FC0003F8
FC0001F8
ENDCHAR
STARTCHAR 00D2
ENCODING 210
SWIDTH 456 0
DWIDTH 38 0
BBX 28 76 5 -1
BITMAP
07C00000
03E00000
03F00000
01F00000
00F80000
00F80000
007C0000
003C0000
003E0000
001E0000
000F0000
00000000
00000000
00000000
00000000
00000000
003FC000
01FFF800
07FFFE00
0FFFFF00
1FFFFF80
3FF0FFC0
3F801FC0
7F000FE0
7E0007E0
FE0007F0
FC0003F0
FC0003F0
FC0003F0
FC0003F0
FC0003F0
FC0003F0
FC0003F0
FC0003F0
FC0003F0
FC0003F0
FC0003F0
FC0003F0
FC0003F0
FC0003F0
FC0003F0
FC0003F0
FC0003F0
FC0003F0
FC0003F0
FC0003F0
FC0003F0
FC0003F0
FC0003F0
FC0003F0
FC0003F0
FC0003F0
FC0003F0
FC0003F0
FC0003F0
FC0003F0
FC0003F0
FC0003F0
FC0003F0
FC0003F0
FC0003F0
FC0003F0
FC0003F0
FC0003F0
FC0003F0
FC0003F0
FE0007F0
7F000FE0
7F801FE0
3FC03FC0
1FFFFF80
0FFFFF00
07FFFE00
03FFFC00
00FFF000
00060000
ENDCHAR
STARTCHAR 00D3
ENCODING 211
SWIDTH 456 0
DWIDTH 38 0
BBX 28 76 5 -1
BITMAP
0000F800
0001F000
0001F000
0003E000
0003C000
0007C000
000F8000
000F8000
001F0000
001E0000
003E0000
00000000
00000000
00000000
00000000
00000000
003FC000
01FFF800
07FFFE00
0FFFFF00
1FFFFF80
3FF0FFC0
3F801FC0
7F000FE0
7E0007E0
FE0007F0
FC0003F0
FC0003F0
FC0003F0
FC0003F0
FC0003F0
FC0003F0
FC0003F0
FC0003F0
FC0003F0
FC0003F0
FC0003F0
FC0003F0
FC0003F0
FC0003F0
FC0003F0
FC0003F0
FC0003F0
FC0003F0
FC0003F0
FC0003F0
FC0003F0
FC0003F0
FC0003F0
FC0003F0
FC0003F0
FC0003F0
FC0003F0
FC0003F0
FC0003F0
FC0003F0
FC0003F0
FC0003F0
FC0003F0
FC0003F0
FC0003F0
FC0003F0
FC0003F0
FC0003F0
FC0003F0
FC0003F0
FE0007F0
7F000FE0
7F801FE0
3FC03FC0
1FFFFF80
0FFFFF00
07FFFE00
03FFFC00
00FFF000
00060000
ENDCHAR
STARTCHAR 00D4
ENCODING 212
SWIDTH 456 0
DWIDTH 38 0
BBX 28 77 5 -1
BITMAP
001F0000
003FC000
007FC000
007FE000
00FBE000
00F9F000
01F0F800
03F0F800
03E07C00
07E07E00
07C03E00
00000000
00000000
00000000
00000000
00000000
00000000
003FC000
01FFF800
07FFFE00
0FFFFF00
1FFFFF80
3FF0FFC0
3F801FC0
7F000FE0
7E0007E0
FE0007F0
FC0003F0
FC0003F0
FC0003F0
FC0003F0
FC0003F0
FC0003F0
FC0003F0
FC0003F0
FC0003F0
FC0003F0
FC0003F0
FC0003F0
FC0003F0
FC0003F0
FC0003F0
FC0003F0
FC0003F0
FC0003F0
FC0003F0
FC0003F0
FC0003F0
FC0003F0
FC0003F0
FC0003F0
FC0003F0
FC0003F0
FC0003F0
FC0003F0
FC0003F0
FC0003F0
FC0003F0
FC0003F0
FC0003F0
FC0003F0
FC0003F0
FC0003F0
FC0003F0
FC0003F0
FC0003F0
FC0003F0
FE0007F0
7F000FE0
7F801FE0
3FC03FC0
1FFFFF80
0FFFFF00
07FFFE00
03FFFC00
00FFF000
00060000
ENDCHAR
STARTCHAR 00D5
ENCODING 213
SWIDTH 456 0
DWIDTH 38 0
BBX 28 76 5 -1
BITMAP
00F80000
03FE0100
07FF03C0
07FF87C0
0F87FF80
0703FF00
0201FE00
00007800
00000000
00000000
00000000
00000000
00000000
00000000
00000000
00000000
003FC000
01FFF800
07FFFE00
0FFFFF00
1FFFFF80
3FF0FFC0
3F801FC0
7F000FE0
7E0007E0
FE0007F0
FC0003F0
FC0003F0
FC0003F0
FC0003F0
FC0003F0
FC0003F0
FC0003F0
FC0003F0
FC0003F0
FC0003F0
FC0003F0
FC0003F0
FC0003F0
FC0003F0
FC0003F0
FC0003F0
FC0003F0
FC0003F0
FC0003F0
FC0003F0
FC0003F0
FC0003F0
FC0003F0
FC0003F0
FC0003F0
FC0003F0
FC0003F0
FC0003F0
FC0003F0
FC0003F0
FC0003F0
FC0003F0
FC0003F0
FC0003F0
FC0003F0
FC0003F0
FC0003F0
FC0003F0
FC0003F0
FC0003F0
FE0007F0
7F000FE0
7F801FE0
3FC03FC0
1FFFFF80
0FFFFF00
07FFFE00
03FFFC00
00FFF000
00060000
ENDCHAR
STARTCHAR 00D6
ENCODING 214
SWIDTH 456 0
DWIDTH 38 0
BBX 28 76 5 -1
BITMAP
07C03C00
0FE07F00
1FF0FF00
1FF0FF80
1FF1FF80
1FF0FF80
1FF0FF00
0FE07F00
07C03C00
00000000
00000000
00000000
00000000
00000000
00000000
00000000
003FC000
01FFF800
07FFFE00
0FFFFF00
1FFFFF80
3FF0FFC0
3F801FC0
7F000FE0
7E0007E0
FE0007F0
FC0003F0
FC0003F0
FC0003F0
FC0003F0
FC0003F0
FC0003F0
FC0003F0
FC0003F0
FC0003F0
FC0003F0
FC0003F0
FC0003F0
FC0003F0
FC0003F0
FC0003F0
FC0003F0
FC0003F0
FC0003F0
FC0003F0
FC0003F0
FC0003F0
FC0003F0
FC0003F0
FC0003F0
FC0003F0
FC0003F0
FC0003F0
FC0003F0
FC0003F0
FC0003F0
FC0003F0
FC0003F0
FC0003F0
FC0003F0
FC0003F0
FC0003F0
FC0003F0
FC0003F0
FC0003F0
FC0003F0
FE0007F0
7F000FE0
7F801FE0
3FC03FC0
1FFFFF80
0FFFFF00
07FFFE00
03FFFC00
00FFF000
00060000
ENDCHAR
STARTCHAR 00D7
ENCODING 215
SWIDTH 372 0
DWIDTH 31 0
BBX 25 25 3 13
BITMAP
30000600
78000F00
FC001F80
7E003F00
3F007E00
1F80FC00
0FC1F800
07E3F000
03F7E000
01FFC000
00FF8000
007F0000
007F0000
00FF8000
01FFC000
03F7E000
07E3F000
0FC1F800
1F80FC00
3F007E00
7E003F00
FC001F80
78000F00
30000600
20000400
ENDCHAR
STARTCHAR 00D8
ENCODING 216
SWIDTH 528 0
DWIDTH 44 0
BBX 30 64 4 -3
BITMAP
00000030
0000003C
001FE07C
00FFFC78
03FFFFF8
07FFFFF8
0FFFFFF0
1FF87FF0
1FC00FE0
3F8007F0
3F0003F0
7F0007F8
7E0007F8
7E0007F8
7E000FF8
7E000FF8
7E001FFC
7E001FFC
7E003EFC
7E003EFC
7E003CFC
7E007CFC
7E0078FC
7E00F8FC
7E00F8FC
7E01F0FC
7E01F0FC
7E01E0FC
7E03E0FC
7E03C0FC
7E07C0FC
7E07C0FC
7E0F80FC
7E0F80FC
7E0F00FC
7E1F00FC
7E1E00FC
7E3E00FC
7E3E00FC
7E7C00FC
7E7C00FC
7E7800FC
7EF800FC
7EF000FC
7FF000FC
7FF000FC
7FE000FC
7FE000F8
7FC000F8
7FC001F8
7F8001F8
7F8001F8
3F8003F8
3F8007F0
3FC00FF0
1FE01FE0
3FFFFFC0
3FFFFF80
7FFFFF00
7DFFFE00
F87FF800
F8030000
70000000
10000000
ENDCHAR
STARTCHAR 00D9
ENCODING 217
SWIDTH 480 0
DWIDTH 40 0
BBX 29 76 5 -1
BITMAP
03E00000
01F00000
01F80000
00F80000
007C0000
007C0000
003E0000
001E0000
001F0000
000F0000
000F8000
00000000
00000000
00000000
00000000
00000000
7C0001F8
FC0001F8
FC0001F8
FC0001F8
FC0001F8
FC0001F8
FC0001F8
FC0001F8
FC0001F8
FC0001F8
FC0001F8
FC0001F8
FC0001F8
FC0001F8
FC0001F8
FC0001F8
FC0001F8
FC0001F8
FC0001F8
FC0001F8
FC0001F8
FC0001F8
FC0001F8
FC0001F8
FC0001F8
FC0001F8
FC0001F8
FC0001F8
FC0001F8
FC0001F8
FC0001F8
FC0001F8
FC0001F8
FC0001F8
FC0001F8
FC0001F8
FC0001F8
FC0001F8
FC0001F8
FC0001F8
FC0001F8
FC0001F8
FC0001F8
FC0001F8
FC0001F8
7C0001F8
7E0001F8
7E0001F8
7E0001F8
7F0003F0
3F0003F0
3F8007F0
1FC00FE0
1FE03FC0
0FFFFFC0
07FFFF80
03FFFF00
01FFFC00
007FF000
00030000
ENDCHAR
STARTCHAR 00DA
ENCODING 218
SWIDTH 480 0
DWIDTH 40 0
BBX 29 76 5 -1
BITMAP
00007C00
0000F800
0001F800
0001F000
0003E000
0003E000
0007C000
00078000
000F8000
000F0000
001E0000
00000000
00000000
00000000
00000000
00000000
7C0001F8
FC0001F8
FC0001F8
FC0001F8
FC0001F8
FC0001F8
FC0001F8
FC0001F8
FC0001F8
FC0001F8
FC0001F8
FC0001F8
FC0001F8
FC0001F8
FC0001F8
FC0001F8
FC0001F8
FC0001F8
FC0001F8
FC0001F8
FC0001F8
FC0001F8
FC0001F8
FC0001F8
FC0001F8
FC0001F8
FC0001F8
FC0001F8
FC0001F8
FC0001F8
FC0001F8
FC0001F8
FC0001F8
FC0001F8
FC0001F8
FC0001F8
FC0001F8
FC0001F8
FC0001F8
FC0001F8
FC0001F8
FC0001F8
FC0001F8
FC0001F8
FC0001F8
7C0001F8
7E0001F8
7E0001F8
7E0001F8
7F0003F0
3F0003F0
3F8007F0
1FC00FE0
1FE03FC0
0FFFFFC0
07FFFF80
03FFFF00
01FFFC00
007FF000
00030000
ENDCHAR
STARTCHAR 00DB
ENCODING 219
SWIDTH 480 0
DWIDTH 40 0
BBX 29 77 5 -1
BITMAP
000F8000
001FC000
003FE000
003FF000
007DF000
00FCF800
00F8FC00
01F87C00
01F07E00
03E03E00
03E01F00
00000000
00000000
00000000
00000000
00000000
00000000
7C0001F8
FC0001F8
FC0001F8
FC0001F8
FC0001F8
FC0001F8
FC0001F8
FC0001F8
FC0001F8
FC0001F8
FC0001F8
FC0001F8
FC0001F8
FC0001F8
FC0001F8
FC0001F8
FC0001F8
FC0001F8
FC0001F8
FC0001F8
FC0001F8
FC0001F8
FC0001F8
FC0001F8
FC0001F8
FC0001F8
FC0001F8
FC0001F8
FC0001F8
FC0001F8
FC0001F8
FC0001F8
FC0001F8
FC0001F8
FC0001F8
FC0001F8
FC0001F8
FC0001F8
FC0001F8
FC0001F8
FC0001F8
FC0001F8
FC0001F8
FC0001F8
FC0001F8
7C0001F8
7E0001F8
7E0001F8
7E0001F8
7F0003F0
3F0003F0
3F8007F0
1FC00FE0
1FE03FC0
0FFFFFC0
07FFFF80
03FFFF00
01FFFC00
007FF000
00030000
ENDCHAR
STARTCHAR 00DC
ENCODING 220
SWIDTH 480 0
DWIDTH 40 0
BBX 29 76 5 -1
BITMAP
03E01E00
07F07F80
0FF87F80
0FF8FFC0
0FF8FFC0
0FF8FFC0
0FF87F80
07F07F80
03E01E00
00000000
00000000
00000000
00000000
00000000
00000000
00000000
7C0001F8
FC0001F8
FC0001F8
FC0001F8
FC0001F8
FC0001F8
FC0001F8
FC0001F8
FC0001F8
FC0001F8
FC0001F8
FC0001F8
FC0001F8
FC0001F8
FC0001F8
FC0001F8
FC0001F8
FC0001F8
FC0001F8
FC0001F8
FC0001F8
FC0001F8
FC0001F8
FC0001F8
FC0001F8
FC0001F8
FC0001F8
FC0001F8
FC0001F8
FC0001F8
FC0001F8
FC0001F8
FC0001F8
FC0001F8
FC0001F8
FC0001F8
FC0001F8
FC0001F8
FC0001F8
FC0001F8
FC0001F8
FC0001F8
FC0001F8
FC0001F8
FC0001F8
7C0001F8
7E0001F8
7E0001F8
7E0001F8
7F0003F0
3F0003F0
3F8007F0
1FC00FE0
1FE03FC0
0FFFFFC0
07FFFF80
03FFFF00
01FFFC00
007FF000
00030000
ENDCHAR
STARTCHAR 00DD
ENCODING 221
SWIDTH 420 0
DWIDTH 35 0
BBX 29 75 3 0
BITMAP
00007800
0000F800
0001F000
0001F000
0003E000
0003E000
0007C000
00078000
000F8000
001F0000
001E0000
00000000
00000000
00000000
00000000
00000000
FC0001F8
FE0001F8
7E0003F8
7E0003F0
7F0003F0
3F0007F0
3F0007E0
3F8007E0
1F800FE0
1F800FC0
0F800FC0
0FC00F80
0FC01F80
07C01F80
07E01F00
07E03F00
03E03F00
03F03E00
03F07E00
01F07E00
01F87C00
00F8FC00
00F8F800
00FCF800
007DF800
007DF000
007FF000
003FF000
003FE000
001FE000
001FE000
001FC000
000FC000
000FC000
000FC000
000FC000
000FC000
000FC000
000FC000
000FC000
000FC000
000FC000
000FC000
000FC000
000FC000
000FC000
000FC000
000FC000
000FC000
000FC000
000FC000
000FC000
000FC000
000FC000
000FC000
000FC000
000FC000
000FC000
000FC000
ENDCHAR
STARTCHAR 00DE
ENCODING 222
SWIDTH 444 0
DWIDTH 37 0
BBX 28 59 6 0
BITMAP
FC000000
FC000000
FC000000
FC000000
FC000000
FC000000
FC000000
FC000000
FC000000
FC000000
FC000000
FC000000
FC000000
FFFFC000
FFFFF800
FFFFFC00
FFFFFE00
FFFFFF00
FC00FF80
FC003FC0
FC001FC0
FC000FE0
FC0007E0
FC0007E0
FC0007F0
FC0003F0
FC0003F0
FC0003F0
FC0003F0
FC0003F0
FC0003F0
FC0003F0
FC0003F0
FC0003F0
FC0007F0
FC0007E0
FC0007E0
FC000FE0
FC001FC0
FC003FC0
FC00FF80
FFFFFF00
FFFFFE00
FFFFFC00
FFFFF800
FFFFC000
FC000000
FC000000
FC000000
FC000000
FC000000
FC000000
FC000000
FC000000
FC000000
FC000000
FC000000
FC000000
FC000000
ENDCHAR
STARTCHAR 00DF
ENCODING 223
SWIDTH 432 0
DWIDTH 36 0
BBX 27 59 5 0
BITMAP
007F8000
01FFE000
07FFF800
0FFFFC00
1FFFFE00
1FE1FF00
3F807F00
3F003F80
7E001F80
7E001F80
7E000FC0
FC000FC0
FC000FC0
FC000FC0
FC000FC0
FC000FC0
FC000FC0
FC000FC0
FC000FC0
FC000FC0
FC000F80
FC001F80
FC001F80
FC003F00
FC00FF00
FC3FFE00
FC3FFC00
FC3FF000
FC3FFC00
FC3FFE00
FC01FE00
FC007F00
FC003F80
FC001F80
FC000FC0
FC000FC0
FC000FC0
FC0007C0
FC0007C0
FC0007E0
FC0007E0
FC0007E0
FC0007E0
FC0007E0
FC0007E0
FC0007E0
FC000FC0
FC000FC0
FC000FC0
FC001FC0
FC001F80
FC003F80
FC007F00
FC01FF00
FC7FFE00
FC7FFC00
FC7FF800
FC7FE000
FC7F8000
ENDCHAR
STARTCHAR 00E0
ENCODING 224
SWIDTH 408 0
DWIDTH 34 0
BBX 27 60 3 -1
BITMAP
03E00000
03E00000
01F00000
01F00000
00F80000
007C0000
007C0000
003E0000
003E0000
001F0000
000F0000
00000000
00000000
00000000
00000000
00000000
003FC000
00FFF800
03FFFC00
07FFFE00
0FFFFF00
1FF0FF80
1FC03FC0
3F801FC0
3F800FC0
3F000FE0
3F0007E0
3F0007E0
000007E0
000007E0
000007E0
000007E0
000007E0
000007E0
007FFFE0
01FFFFE0
07FFFFE0
0FFFFFE0
1FFFFFE0
3FF007E0
3F8007E0
7F0007E0
7F0007E0
7E0007E0
7E0007E0
FE0007E0
FC0007E0
FC0007E0
FC0007E0
FE0007E0
FE000FE0
7E001FE0
7F003FE0
7FC07FE0
3FFFFFE0
3FFFFFE0
1FFFF7E0
07FFE7E0
03FF87E0
00100000
ENDCHAR
STARTCHAR 00E1
ENCODING 225
SWIDTH 408 0
DWIDTH 34 0
BBX 27 60 3 -1
BITMAP
0000F800
0001F000
0001F000
0003E000
0003E000
0007C000
00078000
000F8000
001F0000
001E0000
001E0000
00000000
00000000
00000000
00000000
00000000
003FC000
00FFF800
03FFFC00
07FFFE00
0FFFFF00
1FF0FF80
1FC03FC0
3F801FC0
3F800FC0
3F000FE0
3F0007E0
3F0007E0
000007E0
000007E0
000007E0
000007E0
000007E0
000007E0
007FFFE0
01FFFFE0
07FFFFE0
0FFFFFE0
1FFFFFE0
3FF007E0
3F8007E0
7F0007E0
7F0007E0
7E0007E0
7E0007E0
FE0007E0
FC0007E0
FC0007E0
FC0007E0
FE0007E0
FE000FE0
7E001FE0
7F003FE0
7FC07FE0
3FFFFFE0
3FFFFFE0
1FFFF7E0
07FFE7E0
03FF87E0
00100000
ENDCHAR
STARTCHAR 00E2
ENCODING 226
SWIDTH 408 0
DWIDTH 34 0
BBX 27 61 3 -1
BITMAP
001F8000
003FC000
003FC000
007FE000
00FDF000
00F9F000
01F0F800
01F0FC00
03E07C00
07E07E00
07C03E00
00000000
00000000
00000000
00000000
00000000
00000000
003FC000
00FFF800
03FFFC00
07FFFE00
0FFFFF00
1FF0FF80
1FC03FC0
3F801FC0
3F800FC0
3F000FE0
3F0007E0
3F0007E0
000007E0
000007E0
000007E0
000007E0
000007E0
000007E0
007FFFE0
01FFFFE0
07FFFFE0
0FFFFFE0
1FFFFFE0
3FF007E0
3F8007E0
7F0007E0
7F0007E0
7E0007E0
7E0007E0
FE0007E0
FC0007E0
FC0007E0
FC0007E0
FE0007E0
FE000FE0
7E001FE0
7F003FE0
7FC07FE0
3FFFFFE0
3FFFFFE0
1FFFF7E0
07FFE7E0
03FF87E0
00100000
ENDCHAR
STARTCHAR 00E3
ENCODING 227
SWIDTH 408 0
DWIDTH 34 0
BBX 27 60 3 -1
BITMAP
00F80000
01FE0100
03FF03C0
07FFC7C0
0F87FF80
0703FF00
0200FF00
00007C00
00000000
00000000
00000000
00000000
00000000
00000000
00000000
00000000
003FC000
00FFF800
03FFFC00
07FFFE00
0FFFFF00
1FF0FF80
1FC03FC0
3F801FC0
3F800FC0
3F000FE0
3F0007E0
3F0007E0
000007E0
000007E0
000007E0
000007E0
000007E0
000007E0
007FFFE0
01FFFFE0
07FFFFE0
0FFFFFE0
1FFFFFE0
3FF007E0
3F8007E0
7F0007E0
7F0007E0
7E0007E0
7E0007E0
FE0007E0
FC0007E0
FC0007E0
FC0007E0
FE0007E0
FE000FE0
7E001FE0
7F003FE0
7FC07FE0
3FFFFFE0
3FFFFFE0
1FFFF7E0
07FFE7E0
03FF87E0
00100000
ENDCHAR
STARTCHAR 00E4
ENCODING 228
SWIDTH 408 0
DWIDTH 34 0
BBX 27 60 3 -1
BITMAP
03C03E00
0FF07F00
0FF0FF80
1FF8FF80
1FF8FF80
1FF8FF80
0FF0FF80
0FF07F00
03C03E00
00000000
00000000
00000000
00000000
00000000
00000000
00000000
003FC000
00FFF800
03FFFC00
07FFFE00
0FFFFF00
1FF0FF80
1FC03FC0
3F801FC0
3F800FC0
3F000FE0
3F0007E0
3F0007E0
000007E0
000007E0
000007E0
000007E0
000007E0
000007E0
007FFFE0
01FFFFE0
07FFFFE0
0FFFFFE0
1FFFFFE0
3FF007E0
3F8007E0
7F0007E0
7F0007E0
7E0007E0
7E0007E0
FE0007E0
FC0007E0
FC0007E0
FC0007E0
FE0007E0
FE000FE0
7E001FE0
7F003FE0
7FC07FE0
3FFFFFE0
3FFFFFE0
1FFFF7E0
07FFE7E0
03FF87E0
00100000
ENDCHAR
STARTCHAR 00E5
ENCODING 229
SWIDTH 408 0
DWIDTH 34 0
BBX 27 68 3 -1
BITMAP
001F8000
007FE000
00FFF000
01FFF800
03F0FC00
03C03C00
03C01E00
07801E00
07801E00
07801E00
07801E00
03C01E00
03C03C00
03F07C00
01FFF800
00FFF000
007FE000
001F8000
00000000
00000000
00000000
00000000
00000000
00000000
003FC000
00FFF800
03FFFC00
07FFFE00
0FFFFF00
1FF0FF80
1FC03FC0
3F801FC0
3F800FC0
3F000FE0
3F0007E0
3F0007E0
000007E0
000007E0
000007E0
000007E0
000007E0
000007E0
007FFFE0
01FFFFE0
07FFFFE0
0FFFFFE0
1FFFFFE0
3FF007E0
3F8007E0
7F0007E0
7F0007E0
7E0007E0
7E0007E0
FE0007E0
FC0007E0
FC0007E0
FC0007E0
FE0007E0
FE000FE0
7E001FE0
7F003FE0
7FC07FE0
3FFFFFE0
3FFFFFE0
1FFFF7E0
07FFE7E0
03FF87E0
00100000
ENDCHAR
STARTCHAR 00E6
ENCODING 230
SWIDTH 648 0
DWIDTH 54 0
BBX 48 44 3 -1
BITMAP
003FC001FE00
01FFF007FF80
03FFF81FFFE0
07FFFC3FFFF0
0FFFFE7FFFF8
1FF0FFFF07FC
3FC03FFE01FC
3F801FF800FE
3F000FF8007E
7E000FF0007E
7E0007F0007E
7E0007F0003F
000007E0003F
000007E0003F
000007E0003F
000007E0003F
000007E0003F
000007E0003F
000007E0003F
007FFFFFFFFF
03FFFFFFFFFF
0FFFFFFFFFFF
1FFFFFFFFFFF
3FFFFFFFFFFF
3FE007E00000
7F8007E00000
7F0007E00000
7E0007E00000
7E0007E00000
FC0007E00000
FC0007E00000
FC0007E00000
FC0007F0003E
FE0007F0007E
FE000FF0007E
7E001FF800FE
7F003FFC01FE
7FC07FFE03FC
3FFFFE7FFFF8
3FFFFE7FFFF8
1FFFF83FFFF0
0FFFF00FFFE0
03FFC007FF80
001800003000
ENDCHAR
STARTCHAR 00E7
ENCODING 231
SWIDTH 408 0
DWIDTH 34 0
BBX 26 59 4 -16
BITMAP
007F8000
01FFF000
07FFFC00
0FFFFE00
1FFFFF00
3FE1FF00
3F807F80
7F001FC0
7E001FC0
7E000FC0
FC000FC0
FC000FC0
FC000FC0
FC0007C0
FC000000
FC000000
FC000000
FC000000
FC000000
FC000000
FC000000
FC000000
FC000000
FC000000
FC000000
FC000000
FC000000
FC000000
FC000000
FC000000
FC000000
FC000FC0
FC000FC0
FC000FC0
FE000FC0
7E001FC0
7F001FC0
7F803F80
3FC0FF80
1FFFFF00
0FFFFE00
07FFFC00
03FFF000
007FC000
000F0000
000F8000
00078000
0003C000
0003C000
0001E000
0001E000
0001E000
0001E000
0001E000
0003E000
003FE000
007FC000
007F8000
007E0000
ENDCHAR
STARTCHAR 00E8
ENCODING 232
SWIDTH 408 0
DWIDTH 34 0
BBX 26 60 4 -1
BITMAP
0FC00000
07C00000
03E00000
03E00000
01F00000
01F00000
00F80000
00780000
007C0000
003E0000
001E0000
00000000
00000000
00000000
00000000
00000000
007F8000
03FFF000
07FFFC00
0FFFFE00
1FFFFF00
3FE1FF00
3F807F80
7F001F80
7E001FC0
FE000FC0
FC000FC0
FC000FC0
FC000FC0
FC000FC0
FC000FC0
FC000FC0
FC000FC0
FC000FC0
FC000FC0
FFFFFFC0
FFFFFFC0
FFFFFFC0
FFFFFFC0
FFFFFFC0
FC000000
FC000000
FC000000
FC000000
FC000000
FC000000
FC000000
FC000000
FC000FC0
FE000FC0
7E001FC0
7F001F80
7F003F80
3FC0FF00
3FFFFF00
1FFFFE00
0FFFFC00
03FFF800
01FFE000
000C0000
ENDCHAR
STARTCHAR 00E9
ENCODING 233
SWIDTH 408 0
DWIDTH 34 0
BBX 26 60 4 -1
BITMAP
0001F000
0003E000
0003E000
0007C000
0007C000
000F8000
001F0000
001F0000
003E0000
003C0000
007C0000
00000000
00000000
00000000
00000000
00000000
007F8000
03FFF000
07FFFC00
0FFFFE00
1FFFFF00
3FE1FF00
3F807F80
7F001F80
7E001FC0
FE000FC0
FC000FC0
FC000FC0
FC000FC0
FC000FC0
FC000FC0
FC000FC0
FC000FC0
FC000FC0
FC000FC0
FFFFFFC0
FFFFFFC0
FFFFFFC0
FFFFFFC0
FFFFFFC0
FC000000
FC000000
FC000000
FC000000
FC000000
FC000000
FC000000
FC000000
FC000FC0
FE000FC0
7E001FC0
7F001F80
7F003F80
3FC0FF00
3FFFFF00
1FFFFE00
0FFFFC00
03FFF800
01FFE000
000C0000
ENDCHAR
STARTCHAR 00EA
ENCODING 234
SWIDTH 408 0
DWIDTH 34 0
BBX 26 61 4 -1
BITMAP
003E0000
007F8000
007F8000
00FFC000
01FFE000
01F3E000
03E1F000
07E1F000
07C0F800
0FC0FC00
0F807C00
00000000
00000000
00000000
00000000
00000000
00000000
007F8000
03FFF000
07FFFC00
0FFFFE00
1FFFFF00
3FE1FF00
3F807F80
7F001F80
7E001FC0
FE000FC0
FC000FC0
FC000FC0
FC000FC0
FC000FC0
FC000FC0
FC000FC0
FC000FC0
FC000FC0
FC000FC0
FFFFFFC0
FFFFFFC0
FFFFFFC0
FFFFFFC0
FFFFFFC0
FC000000
FC000000
FC000000
FC000000
FC000000
FC000000
FC000000
FC000000
FC000FC0
FE000FC0
7E001FC0
7F001F80
7F003F80
3FC0FF00
3FFFFF00
1FFFFE00
0FFFFC00
03FFF800
01FFE000
000C0000
ENDCHAR
STARTCHAR 00EB
ENCODING 235
SWIDTH 408 0
DWIDTH 34 0
BBX 26 60 4 -1
BITMAP
07807C00
1FC0FE00
1FE1FF00
3FE1FF00
3FF1FF00
3FE1FF00
1FE1FE00
1FC0FE00
0F807800
00000000
00000000
00000000
00000000
00000000
00000000
00000000
007F8000
03FFF000
07FFFC00
0FFFFE00
1FFFFF00
3FE1FF00
3F807F80
7F001F80
7E001FC0
FE000FC0
FC000FC0
FC000FC0
FC000FC0
FC000FC0
FC000FC0
FC000FC0
FC000FC0
FC000FC0
FC000FC0
FFFFFFC0
FFFFFFC0
FFFFFFC0
FFFFFFC0
FFFFFFC0
FC000000
FC000000
FC000000
FC000000
FC000000
FC000000
FC000000
FC000000
FC000FC0
FE000FC0
7E001FC0
7F001F80
7F003F80
3FC0FF00
3FFFFF00
1FFFFE00
0FFFFC00
03FFF800
01FFE000
000C0000
ENDCHAR
STARTCHAR 00EC
ENCODING 236
SWIDTH 168 0
DWIDTH 14 0
BBX 11 59 -1 0
BITMAP
F800
F800
7C00
7C00
3E00
1E00
1F00
0F80
0F80
07C0
03C0
0000
0000
0000
0000
0000
07E0
07E0
07E0
07E0
07E0
07E0
07E0
07E0
07E0
07E0
07E0
07E0
07E0
07E0
07E0
07E0
07E0
07E0
07E0
07E0
07E0
07E0
07E0
07E0
07E0
07E0
07E0
07E0
07E0
07E0
07E0
07E0
07E0
07E0
07E0
07E0
07E0
07E0
07E0
07E0
07E0
07E0
07E0
ENDCHAR
STARTCHAR 00ED
ENCODING 237
SWIDTH 168 0
DWIDTH 14 0
BBX 11 59 3 0
BITMAP
03E0
07C0
07C0
0F80
0F80
1F00
3E00
3E00
7C00
7800
F800
0000
0000
0000
0000
0000
7E00
7E00
7E00
7E00
7E00
7E00
7E00
7E00
7E00
7E00
7E00
7E00
7E00
7E00
7E00
7E00
7E00
7E00
7E00
7E00
7E00
7E00
7E00
7E00
7E00
7E00
7E00
7E00
7E00
7E00
7E00
7E00
7E00
7E00
7E00
7E00
7E00
7E00
7E00
7E00
7E00
7E00
7E00
ENDCHAR
STARTCHAR 00EE
ENCODING 238
SWIDTH 168 0
DWIDTH 14 0
BBX 18 60 -2 0
BITMAP
03E000
07F800
07F800
0FFC00
1FFE00
1F3E00
3E1F00
7E1F00
7C0F80
FC0FC0
F807C0
000000
000000
000000
000000
000000
000000
03F000
03F000
03F000
03F000
03F000
03F000
03F000
03F000
03F000
03F000
03F000
03F000
03F000
03F000
03F000
03F000
03F000
03F000
03F000
03F000
03F000
03F000
03F000
03F000
03F000
03F000
03F000
03F000
03F000
03F000
03F000
03F000
03F000
03F000
03F000
03F000
03F000
03F000
03F000
03F000
03F000
03F000
03F000
ENDCHAR
STARTCHAR 00EF
ENCODING 239
SWIDTH 168 0
DWIDTH 14 0
BBX 22 59 -4 0
BITMAP
1E01F0
7F03F8
7F87FC
FF87FC
FFC7FC
FF87FC
7F87F8
7F03F8
3E01E0
000000
000000
000000
000000
000000
000000
000000
00FC00
00FC00
00FC00
00FC00
00FC00
00FC00
00FC00
00FC00
00FC00
00FC00
00FC00
00FC00
00FC00
00FC00
00FC00
00FC00
00FC00
00FC00
00FC00
00FC00
00FC00
00FC00
00FC00
00FC00
00FC00
00FC00
00FC00
00FC00
00FC00
00FC00
00FC00
00FC00
00FC00
00FC00
00FC00
00FC00
00FC00
00FC00
00FC00
00FC00
00FC00
00FC00
00FC00
ENDCHAR
STARTCHAR 00F0
ENCODING 240
SWIDTH 432 0
DWIDTH 36 0
BBX 28 60 4 -1
BITMAP
007E0000
003F0000
001F8000
000FC000
0007C1E0
0007EFF0
0003FFE0
0007FF00
007FF800
00FFFC00
007C7C00
00407E00
00003E00
00003E00
00001F00
00001F00
007F1F80
03FFDF80
07FFEF80
0FFFFF80
1FFFFF80
3FE1FFC0
3F807FC0
7F003FC0
7E001FC0
7E000FC0
FC000FC0
FC000FC0
FC000FC0
FC000FC0
FC000FC0
FC000FC0
FC000FC0
FC000FC0
FC000FC0
FC000FC0
FC000FC0
FC000FC0
FC000FC0
FC000FC0
FC000FC0
FC000FC0
FC000FC0
FC000FC0
FC000FC0
FC000FC0
FC000FC0
FC000FC0
FC000FC0
FE000FC0
7E001FC0
7F001FC0
7F803F80
3FC07F80
3FFFFF00
1FFFFE00
0FFFFC00
03FFF800
00FFE000
00040000
ENDCHAR
STARTCHAR 00F1
ENCODING 241
SWIDTH 420 0
DWIDTH 35 0
BBX 26 59 5 0
BITMAP
00F00000
03F80400
07FE0E00
07FF1E00
0F8FFE00
0707FC00
0203F800
0000F000
00000000
00000000
00000000
00000000
00000000
00000000
00000000
00000000
FC0FE000
FC7FF800
FCFFFC00
FDFFFE00
FFFFFF00
FFE1FF00
FF807F80
FF003F80
FE001F80
FE001F80
FC001FC0
FC000FC0
FC000FC0
FC000FC0
FC000FC0
FC000FC0
FC000FC0
FC000FC0
FC000FC0
FC000FC0
FC000FC0
FC000FC0
FC000FC0
FC000FC0
FC000FC0
FC000FC0
FC000FC0
FC000FC0
FC000FC0
FC000FC0
FC000FC0
FC000FC0
FC000FC0
FC000FC0
FC000FC0
FC000FC0
FC000FC0
FC000FC0
FC000FC0
FC000FC0
FC000FC0
FC000FC0
FC000FC0
ENDCHAR
STARTCHAR 00F2
ENCODING 242
SWIDTH 420 0
DWIDTH 35 0
BBX 26 60 4 -1
BITMAP
07C00000
07C00000
03E00000
03E00000
01F00000
00F80000
00F80000
007C0000
003C0000
003E0000
001E0000
00000000
00000000
00000000
00000000
00000000
007F8000
01FFF000
07FFFC00
0FFFFE00
1FFFFF00
3FE1FF00
3F807F80
7F003F80
7E001FC0
7E000FC0
FC000FC0
FC000FC0
FC000FC0
FC000FC0
FC000FC0
FC000FC0
FC000FC0
FC000FC0
FC000FC0
FC000FC0
FC000FC0
FC000FC0
FC000FC0
FC000FC0
FC000FC0
FC000FC0
FC000FC0
FC000FC0
FC000FC0
FC000FC0
FC000FC0
FC000FC0
FC000FC0
FE000FC0
7E000FC0
7F001FC0
7F003F80
3FC07F80
3FFFFF00
1FFFFE00
0FFFFC00
03FFF800
01FFE000
00040000
ENDCHAR
STARTCHAR 00F3
ENCODING 243
SWIDTH 420 0
DWIDTH 35 0
BBX 26 60 4 -1
BITMAP
0001F000
0003F000
0003E000
0007C000
0007C000
000F8000
000F8000
001F0000
001E0000
003E0000
003C0000
00000000
00000000
00000000
00000000
00000000
007F8000
01FFF000
07FFFC00
0FFFFE00
1FFFFF00
3FE1FF00
3F807F80
7F003F80
7E001FC0
7E000FC0
FC000FC0
FC000FC0
FC000FC0
FC000FC0
FC000FC0
FC000FC0
FC000FC0
FC000FC0
FC000FC0
FC000FC0
FC000FC0
FC000FC0
FC000FC0
FC000FC0
FC000FC0
FC000FC0
FC000FC0
FC000FC0
FC000FC0
FC000FC0
FC000FC0
FC000FC0
FC000FC0
FE000FC0
7E000FC0
7F001FC0
7F003F80
3FC07F80
3FFFFF00
1FFFFE00
0FFFFC00
03FFF800
01FFE000
00040000
ENDCHAR
STARTCHAR 00F4
ENCODING 244
SWIDTH 420 0
DWIDTH 35 0
BBX 26 61 4 -1
BITMAP
001F0000
007F8000
007FC000
00FFC000
00FBE000
01F3E000
03F1F000
03E1F800
07C0F800
07C07C00
0F807C00
00000000
00000000
00000000
00000000
00000000
00000000
007F8000
01FFF000
07FFFC00
0FFFFE00
1FFFFF00
3FE1FF00
3F807F80
7F003F80
7E001FC0
7E000FC0
FC000FC0
FC000FC0
FC000FC0
FC000FC0
FC000FC0
FC000FC0
FC000FC0
FC000FC0
FC000FC0
FC000FC0
FC000FC0
FC000FC0
FC000FC0
FC000FC0
FC000FC0
FC000FC0
FC000FC0
FC000FC0
FC000FC0
FC000FC0
FC000FC0
FC000FC0
FC000FC0
FE000FC0
7E000FC0
7F001FC0
7F003F80
3FC07F80
3FFFFF00
1FFFFE00
0FFFFC00
03FFF800
01FFE000
00040000
ENDCHAR
STARTCHAR 00F5
ENCODING 245
SWIDTH 420 0
DWIDTH 35 0
BBX 26 60 4 -1
BITMAP
01F00000
03FC0300
07FE0780
0FFF8F80
1F0FFF00
0E07FF00
0401FE00
0000F800
00000000
00000000
00000000
00000000
00000000
00000000
00000000
00000000
007F8000
01FFF000
07FFFC00
0FFFFE00
1FFFFF00
3FE1FF00
3F807F80
7F003F80
7E001FC0
7E000FC0
FC000FC0
FC000FC0
FC000FC0
FC000FC0
FC000FC0
FC000FC0
FC000FC0
FC000FC0
FC000FC0
FC000FC0
FC000FC0
FC000FC0
FC000FC0
FC000FC0
FC000FC0
FC000FC0
FC000FC0
FC000FC0
FC000FC0
FC000FC0
FC000FC0
FC000FC0
FC000FC0
FE000FC0
7E000FC0
7F001FC0
7F003F80
3FC07F80
3FFFFF00
1FFFFE00
0FFFFC00
03FFF800
01FFE000
00040000
ENDCHAR
STARTCHAR 00F6
ENCODING 246
SWIDTH 420 0
DWIDTH 35 0
BBX 26 60 4 -1
BITMAP
07807C00
1FE0FE00
1FE1FF00
1FF1FF00
3FF1FF00
3FF1FF00
1FE1FF00
1FE0FE00
07807C00
00000000
00000000
00000000
00000000
00000000
00000000
00000000
007F8000
01FFF000
07FFFC00
0FFFFE00
1FFFFF00
3FE1FF00
3F807F80
7F003F80
7E001FC0
7E000FC0
FC000FC0
FC000FC0
FC000FC0
FC000FC0
FC000FC0
FC000FC0
FC000FC0
FC000FC0
FC000FC0
FC000FC0
FC000FC0
FC000FC0
FC000FC0
FC000FC0
FC000FC0
FC000FC0
FC000FC0
FC000FC0
FC000FC0
FC000FC0
FC000FC0
FC000FC0
FC000FC0
FE000FC0
7E000FC0
7F001FC0
7F003F80
3FC07F80
3FFFFF00
1FFFFE00
0FFFFC00
03FFF800
01FFE000
00040000
ENDCHAR
STARTCHAR 00F7
ENCODING 247
SWIDTH 444 0
DWIDTH 37 0
BBX 31 34 3 10
BITMAP
00078000
000FE000
001FE000
001FF000
001FF000
001FF000
001FE000
000FE000
00078000
00000000
00000000
00000000
00000000
00000000
FFFFFFFE
FFFFFFFE
FFFFFFFE
FFFFFFFE
FFFFFFFE
00000000
00000000
00000000
00000000
00000000
00000000
00078000
000FE000
001FE000
001FF000
001FF000
001FF000
001FE000
000FE000
00078000
ENDCHAR
STARTCHAR 00F8
ENCODING 248
SWIDTH 432 0
DWIDTH 36 0
BBX 27 51 4 -4
BITMAP
00000200
00000380
000007E0
000007C0
007FCFC0
01FFFF80
07FFFF80
0FFFFF80
1FFFFF00
3FE1FF00
3F807F80
7F007FC0
7E007FC0
7E007FC0
FE00FFC0
FC00FFC0
FC01FFC0
FC01F7E0
FC03F7E0
FC03E7E0
FC07E7E0
FC07C7E0
FC0FC7E0
FC0F87E0
FC0F87E0
FC1F87E0
FC1F07E0
FC3F07E0
FC3E07E0
FC7E07E0
FC7C07E0
FCFC07E0
FCF807E0
FCF807E0
FDF807E0
FDF007C0
FFF00FC0
FFE00FC0
7FE00FC0
7FC01FC0
7FC03F80
3FC07F80
3FFFFF00
1FFFFE00
1FFFFC00
3FFFF800
3EFFE000
7E060000
7C000000
3C000000
08000000
ENDCHAR
STARTCHAR 00F9
ENCODING 249
SWIDTH 420 0
DWIDTH 35 0
BBX 25 60 5 -1
BITMAP
0F800000
0FC00000
07C00000
03E00000
03E00000
01F00000
01F00000
00F80000
00780000
007C0000
003C0000
00000000
00000000
00000000
00000000
00000000
FC001F80
FC001F80
FC001F80
FC001F80
FC001F80
FC001F80
FC001F80
FC001F80
FC001F80
FC001F80
FC001F80
FC001F80
FC001F80
FC001F80
FC001F80
FC001F80
FC001F80
FC001F80
FC001F80
FC001F80
FC001F80
FC001F80
FC001F80
FC001F80
FC001F80
FC001F80
FC001F80
FC001F80
FC001F80
FC001F80
FC001F80
FC001F80
FC001F80
FC001F80
FC003F80
FE003F80
FF007F80
7F80FF80
7FFFFF80
3FFFFF80
1FFFDF80
0FFF9F80
03FE1F80
00200000
ENDCHAR
STARTCHAR 00FA
ENCODING 250
SWIDTH 420 0
DWIDTH 35 0
BBX 25 60 5 -1
BITMAP
0003E000
0003E000
0007C000
000F8000
000F8000
001F0000
001F0000
003E0000
003C0000
007C0000
00780000
00000000
00000000
00000000
00000000
00000000
FC001F80
FC001F80
FC001F80
FC001F80
FC001F80
FC001F80
FC001F80
FC001F80
FC001F80
FC001F80
FC001F80
FC001F80
FC001F80
FC001F80
FC001F80
FC001F80
FC001F80
FC001F80
FC001F80
FC001F80
FC001F80
FC001F80
FC001F80
FC001F80
FC001F80
FC001F80
FC001F80
FC001F80
FC001F80
FC001F80
FC001F80
FC001F80
FC001F80
FC001F80
FC003F80
FE003F80
FF007F80
7F80FF80
7FFFFF80
3FFFFF80
1FFFDF80
0FFF9F80
03FE1F80
00200000
ENDCHAR
STARTCHAR 00FB
ENCODING 251
SWIDTH 420 0
DWIDTH 35 0
BBX 25 61 5 -1
BITMAP
003E0000
00FF0000
00FF8000
01FF8000
01F7C000
03E7E000
07E3E000
07C3F000
0FC1F000
0F80F800
1F00FC00
00000000
00000000
00000000
00000000
00000000
00000000
FC001F80
FC001F80
FC001F80
FC001F80
FC001F80
FC001F80
FC001F80
FC001F80
FC001F80
FC001F80
FC001F80
FC001F80
FC001F80
FC001F80
FC001F80
FC001F80
FC001F80
FC001F80
FC001F80
FC001F80
FC001F80
FC001F80
FC001F80
FC001F80
FC001F80
FC001F80
FC001F80
FC001F80
FC001F80
FC001F80
FC001F80
FC001F80
FC001F80
FC001F80
FC003F80
FE003F80
FF007F80
7F80FF80
7FFFFF80
3FFFFF80
1FFFDF80
0FFF9F80
03FE1F80
00200000
ENDCHAR
STARTCHAR 00FC
ENCODING 252
SWIDTH 420 0
DWIDTH 35 0
BBX 25 60 5 -1
BITMAP
0F00F800
1FC1FC00
3FC3FE00
3FE3FE00
7FE3FE00
3FE3FE00
3FC3FE00
1FC1FC00
0F00F800
00000000
00000000
00000000
00000000
00000000
00000000
00000000
FC001F80
FC001F80
FC001F80
FC001F80
FC001F80
FC001F80
FC001F80
FC001F80
FC001F80
FC001F80
FC001F80
FC001F80
FC001F80
FC001F80
FC001F80
FC001F80
FC001F80
FC001F80
FC001F80
FC001F80
FC001F80
FC001F80
FC001F80
FC001F80
FC001F80
FC001F80
FC001F80
FC001F80
FC001F80
FC001F80
FC001F80
FC001F80
FC001F80
FC001F80
FC003F80
FE003F80
FF007F80
7F80FF80
7FFFFF80
3FFFFF80
1FFFDF80
0FFF9F80
03FE1F80
00200000
ENDCHAR
STARTCHAR 00FD
ENCODING 253
SWIDTH 372 0
DWIDTH 31 0
BBX 27 76 2 -17
BITMAP
0001F000
0003F000
0003E000
0007C000
0007C000
000F8000
000F8000
001F0000
001E0000
003E0000
003C0000
00000000
00000000
00000000
00000000
00000000
FC0007E0
FC0007E0
FC000FE0
FC000FC0
7E000FC0
7E000FC0
7E001FC0
7E001F80
3F001F80
3F001F80
3F001F80
3F003F00
1F003F00
1F803F00
1F803F00
1F803E00
0F807E00
0F807E00
0FC07E00
0FC07C00
07C0FC00
07C0FC00
07E0FC00
07E0F800
03E0F800
03E1F800
03E1F800
03F1F000
01F1F000
01F1F000
01F3F000
01FBE000
00FBE000
00FBE000
00FFE000
00FFC000
007FC000
007FC000
007FC000
007F8000
003F8000
003F8000
003F8000
003F0000
003F0000
003F0000
003E0000
007E0000
007E0000
007E0000
00FC0000
00FC0000
01FC0000
03F80000
0FF80000
7FF00000
7FF00000
7FE00000
7F800000
7E000000
ENDCHAR
STARTCHAR 00FE
ENCODING 254
SWIDTH 420 0
DWIDTH 35 0
BBX 26 76 5 -17
BITMAP
F8000000
FC000000
FC000000
FC000000
FC000000
FC000000
FC000000
FC000000
FC000000
FC000000
FC000000
FC000000
FC000000
FC000000
FC000000
FC000000
FC1FC000
FC7FF000
FCFFFC00
FDFFFE00
FFFFFE00
FFC1FF00
FF007F80
FE003F80
FE003F80
FC001F80
FC001FC0
FC000FC0
FC000FC0
FC000FC0
FC000FC0
FC000FC0
FC000FC0
FC000FC0
FC000FC0
FC000FC0
FC000FC0
FC000FC0
FC000FC0
FC000FC0
FC000FC0
FC000FC0
FC000FC0
FC000FC0
FC000FC0
FC000FC0
FC000FC0
FC000FC0
FC000FC0
FC001F80
FC001F80
FE003F80
FF007F80
FF80FF00
FFFFFF00
FFFFFE00
FDFFFC00
FCFFF800
FC3FE000
FC020000
FC000000
FC000000
FC000000
FC000000
FC000000
FC000000
FC000000
FC000000
FC000000
FC000000
FC000000
FC000000
FC000000
FC000000
FC000000
F8000000
ENDCHAR
STARTCHAR 00FF
ENCODING 255
SWIDTH 372 0
DWIDTH 31 0
BBX 27 76 2 -17
BITMAP
07807C00
0FE0FE00
1FE1FF00
1FF1FF00
3FF1FF00
1FF1FF00
1FE1FF00
0FE0FE00
07807C00
00000000
00000000
00000000
00000000
00000000
00000000
00000000
FC0007E0
FC0007E0
FC000FE0
FC000FC0
7E000FC0
7E000FC0
7E001FC0
7E001F80
3F001F80
3F001F80
3F001F80
3F003F00
1F003F00
1F803F00
1F803F00
1F803E00
0F807E00
0F807E00
0FC07E00
0FC07C00
07C0FC00
07C0FC00
07E0FC00
07E0F800
03E0F800
03E1F800
03E1F800
03F1F000
01F1F000
01F1F000
01F3F000
01FBE000
00FBE000
00FBE000
00FFE000
00FFC000
007FC000
007FC000
007FC000
007F8000
003F8000
003F8000
003F8000
003F0000
003F0000
003F0000
003E0000
007E0000
007E0000
007E0000
00FC0000
00FC0000
01FC0000
03F80000
0FF80000
7FF00000
7FF00000
7FE00000
7F800000
7E000000
ENDCHAR
STARTCHAR 0100
ENCODING 256
SWIDTH 408 0
DWIDTH 34 0
BBX 32 70 1 0
BITMAP
00FFFF00
01FFFF00
01FFFF00
00FFFF00
00000000
00000000
00000000
00000000
00000000
00000000
00000000
0007E000
000FF000
000FF000
000FF000
000FF000
000FF000
001FF800
001FF800
001FF800
001FF800
003FFC00
003E7C00
003E7C00
003E7C00
003E7C00
007E7E00
007C3E00
007C3E00
007C3E00
00FC3F00
00FC3F00
00F81F00
00F81F00
00F81F00
01F81F80
01F80F80
01F00F80
01F00F80
01F00FC0
03F00FC0
03F007C0
03E007C0
03E007C0
07E007E0
07E007E0
07E003E0
07C003E0
07C003F0
0FC003F0
0FC003F0
0F8001F0
0F8001F0
1FFFFFF8
1FFFFFF8
1FFFFFF8
1FFFFFF8
1FFFFFFC
3F0000FC
3F0000FC
3F0000FC
3F00007C
7E00007E
7E00007E
7E00007E
7E00007E
7E00003F
FC00003F
FC00003F
FC00003F
ENDCHAR
STARTCHAR 0101
ENCODING 257
SWIDTH 408 0
DWIDTH 34 0
BBX 27 55 3 -1
BITMAP
03FFFC00
03FFFE00
03FFFE00
03FFFC00
00000000
00000000
00000000
00000000
00000000
00000000
00000000
003FC000
00FFF800
03FFFC00
07FFFE00
0FFFFF00
1FF0FF80
1FC03FC0
3F801FC0
3F800FC0
3F000FE0
3F0007E0
3F0007E0
000007E0
000007E0
000007E0
000007E0
000007E0
000007E0
007FFFE0
01FFFFE0
07FFFFE0
0FFFFFE0
1FFFFFE0
3FF007E0
3F8007E0
7F0007E0
7F0007E0
7E0007E0
7E0007E0
FE0007E0
FC0007E0
FC0007E0
FC0007E0
FE0007E0
FE000FE0
7E001FE0
7F003FE0
7FC07FE0
3FFFFFE0
3FFFFFE0
1FFFF7E0
07FFE7E0
03FF87E0
00100000
ENDCHAR
STARTCHAR 0102
ENCODING 258
SWIDTH 408 0
DWIDTH 34 0
BBX 32 72 1 0
BITMAP
01E00780
01E00780
00E00780
00F00F00
00F80F00
007C3E00
003FFC00
001FF800
0007E000
00000000
00000000
00000000
00000000
0007E000
000FF000
000FF000
000FF000
000FF000
000FF000
001FF800
001FF800
001FF800
001FF800
003FFC00
003E7C00
003E7C00
003E7C00
003E7C00
007E7E00
007C3E00
007C3E00
007C3E00
00FC3F00
00FC3F00
00F81F00
00F81F00
00F81F00
01F81F80
01F80F80
01F00F80
01F00F80
01F00FC0
03F00FC0
03F007C0
03E007C0
03E007C0
07E007E0
07E007E0
07E003E0
07C003E0
07C003F0
0FC003F0
0FC003F0
0F8001F0
0F8001F0
1FFFFFF8
1FFFFFF8
1FFFFFF8
1FFFFFF8
1FFFFFFC
3F0000FC
3F0000FC
3F0000FC
3F00007C
7E00007E
7E00007E
7E00007E
7E00007E
7E00003F
FC00003F
FC00003F
FC00003F
ENDCHAR
STARTCHAR 0103
ENCODING 259
SWIDTH 408 0
DWIDTH 34 0
BBX 27 57 3 -1
BITMAP
07801E00
07801E00
03801E00
03C03C00
03E03C00
01F0F800
00FFF000
007FE000
001F8000
00000000
00000000
00000000
00000000
003FC000
00FFF800
03FFFC00
07FFFE00
0FFFFF00
1FF0FF80
1FC03FC0
3F801FC0
3F800FC0
3F000FE0
3F0007E0
3F0007E0
000007E0
000007E0
000007E0
000007E0
000007E0
000007E0
007FFFE0
01FFFFE0
07FFFFE0
0FFFFFE0
1FFFFFE0
3FF007E0
3F8007E0
7F0007E0
7F0007E0
7E0007E0
7E0007E0
FE0007E0
FC0007E0
FC0007E0
FC0007E0
FE0007E0
FE000FE0
7E001FE0
7F003FE0
7FC07FE0
3FFFFFE0
3FFFFFE0
1FFFF7E0
07FFE7E0
03FF87E0
00100000
ENDCHAR
STARTCHAR 0104
ENCODING 260
SWIDTH 408 0
DWIDTH 34 0
BBX 33 75 1 -16
BITMAP
0007E00000
000FF00000
000FF00000
000FF00000
000FF00000
000FF00000
001FF80000
001FF80000
001FF80000
001FF80000
003FFC0000
003E7C0000
003E7C0000
003E7C0000
003E7C0000
007E7E0000
007C3E0000
007C3E0000
007C3E0000
00FC3F0000
00FC3F0000
00F81F0000
00F81F0000
00F81F0000
01F81F8000
01F80F8000
01F00F8000
01F00F8000
01F00FC000
03F00FC000
03F007C000
03E007C000
03E007C000
07E007E000
07E007E000
07E003E000
07C003E000
07C003F000
0FC003F000
0FC003F000
0F8001F000
0F8001F000
1FFFFFF800
1FFFFFF800
1FFFFFF800
1FFFFFF800
1FFFFFFC00
3F0000FC00
3F0000FC00
3F0000FC00
3F00007C00
7E00007E00
7E00007E00
7E00007E00
7E00007E00
7E00003F00
FC00003F00
FC00003F00
FC00003F00
0000000E00
0000001F00
0000003C00
0000007C00
0000007800
000000F000
000000F000
000000F000
000000F000
000000F000
000000F000
000000F800
000000FF80
0000007F80
0000003F80
0000001F80
ENDCHAR
STARTCHAR 0105
ENCODING 261
SWIDTH 408 0
DWIDTH 34 0
BBX 28 59 3 -16
BITMAP
003FC000
00FFF800
03FFFC00
07FFFE00
0FFFFF00
1FF0FF80
1FC03FC0
3F801FC0
3F800FC0
3F000FE0
3F0007E0
3F0007E0
000007E0
000007E0
000007E0
000007E0
000007E0
000007E0
007FFFE0
01FFFFE0
07FFFFE0
0FFFFFE0
1FFFFFE0
3FF007E0
3F8007E0
7F0007E0
7F0007E0
7E0007E0
7E0007E0
FE0007E0
FC0007E0
FC0007E0
FC0007E0
FE0007E0
FE000FE0
7E001FE0
7F003FE0
7FC07FE0
3FFFFFE0
3FFFFFE0
1FFFF7E0
07FFE7E0
03FF87E0
001003C0
000007C0
00000F80
00000F00
00001E00
00001E00
00001E00
00001E00
00003E00
00003E00
00001E00
00001F00
00001FF0
00000FF0
000007F0
000003F0
ENDCHAR
STARTCHAR 0106
ENCODING 262
SWIDTH 444 0
DWIDTH 37 0
BBX 28 76 5 -1
BITMAP
0000F000
0001F000
0003E000
0003E000
0007C000
0007C000
000F8000
000F0000
001F0000
003E0000
003C0000
00000000
00000000
00000000
00000000
00000000
007FC000
01FFF800
07FFFC00
0FFFFF00
1FFFFF80
3FF0FF80
7F803FC0
7F000FE0
7E000FE0
FC0007E0
FC0007F0
FC0003F0
FC0003F0
FC0003F0
FC0003F0
FC0003F0
FC0003F0
FC000000
FC000000
FC000000
FC000000
FC000000
FC000000
FC000000
FC000000
FC000000
FC000000
FC000000
FC000000
FC000000
FC000000
FC000000
FC000000
FC000000
FC000000
FC000000
FC000000
FC000000
FC000000
FC000000
FC000000
FC000000
FC000000
FC0003F0
FC0003F0
FC0003F0
FC0003F0
FC0003F0
FC0003F0
FC0007E0
FE0007E0
7E000FE0
7F001FC0
3FC03FC0
3FFFFF80
1FFFFF00
0FFFFE00
03FFFC00
00FFF000
00060000
ENDCHAR
STARTCHAR 0107
ENCODING 263
SWIDTH 408 0
DWIDTH 34 0
BBX 26 60 4 -1
BITMAP
0001F000
0003F000
0003E000
0007C000
0007C000
000F8000
000F0000
001F0000
001E0000
003E0000
003C0000
00000000
00000000
00000000
00000000
00000000
007F8000
01FFF000
07FFFC00
0FFFFE00
1FFFFF00
3FE1FF80
3F807F80
7F001FC0
7E001FC0
FE000FC0
FC000FC0
FC000FC0
FC000FC0
FC000000
FC000000
FC000000
FC000000
FC000000
FC000000
FC000000
FC000000
FC000000
FC000000
FC000000
FC000000
FC000000
FC000000
FC000000
FC000000
FC000000
FC000FC0
FC000FC0
FC000FC0
FE000FC0
7E000FC0
7F001FC0
7F003F80
3FC07F80
3FFFFF00
1FFFFE00
0FFFFC00
03FFF800
01FFE000
000C0000
ENDCHAR
STARTCHAR 0108
ENCODING 264
SWIDTH 444 0
DWIDTH 37 0
BBX 28 77 5 -1
BITMAP
001F0000
003F8000
007FC000
007FE000
00FBE000
01F9F000
01F1F800
03F0F800
03E0FC00
07C07C00
07C03E00
00000000
00000000
00000000
00000000
00000000
00000000
007FC000
01FFF800
07FFFC00
0FFFFF00
1FFFFF80
3FF0FF80
7F803FC0
7F000FE0
7E000FE0
FC0007E0
FC0007F0
FC0003F0
FC0003F0
FC0003F0
FC0003F0
FC0003F0
FC0003F0
FC000000
FC000000
FC000000
FC000000
FC000000
FC000000
FC000000
FC000000
FC000000
FC000000
FC000000
FC000000
FC000000
FC000000
FC000000
FC000000
FC000000
FC000000
FC000000
FC000000
FC000000
FC000000
FC000000
FC000000
FC000000
FC000000
FC0003F0
FC0003F0
FC0003F0
FC0003F0
FC0003F0
FC0003F0
FC0007E0
FE0007E0
7E000FE0
7F001FC0
3FC03FC0
3FFFFF80
1FFFFF00
0FFFFE00
03FFFC00
00FFF000
00060000
ENDCHAR
STARTCHAR 0109
ENCODING 265
SWIDTH 408 0
DWIDTH 34 0
BBX 26 61 4 -1
BITMAP
003F0000
007F8000
007F8000
00FFC000
00FBE000
01F3E000
03F1F000
03E1F800
07C0F800
0FC0FC00
0F807C00
00000000
00000000
00000000
00000000
00000000
00000000
007F8000
01FFF000
07FFFC00
0FFFFE00
1FFFFF00
3FE1FF80
3F807F80
7F001FC0
7E001FC0
FE000FC0
FC000FC0
FC000FC0
FC000FC0
FC000000
FC000000
FC000000
FC000000
FC000000
FC000000
FC000000
FC000000
FC000000
FC000000
FC000000
FC000000
FC000000
FC000000
FC000000
FC000000
FC000000
FC000FC0
FC000FC0
FC000FC0
FE000FC0
7E000FC0
7F001FC0
7F003F80
3FC07F80
3FFFFF00
1FFFFE00
0FFFFC00
03FFF800
01FFE000
000C0000
ENDCHAR
STARTCHAR 010A
ENCODING 266
SWIDTH 444 0
DWIDTH 37 0
BBX 28 76 5 -1
BITMAP
001F0000
003F8000
003FC000
007FC000
007FE000
007FC000
003FC000
003F8000
001F0000
00000000
00000000
00000000
00000000
00000000
00000000
00000000
007FC000
01FFF800
07FFFC00
0FFFFF00
1FFFFF80
3FF0FF80
7F803FC0
7F000FE0
7E000FE0
FC0007E0
FC0007F0
FC0003F0
FC0003F0
FC0003F0
FC0003F0
FC0003F0
FC0003F0
FC000000
FC000000
FC000000
FC000000
FC000000
FC000000
FC000000
FC000000
FC000000
FC000000
FC000000
FC000000
FC000000
FC000000
FC000000
FC000000
FC000000
FC000000
FC000000
FC000000
FC000000
FC000000
FC000000
FC000000
FC000000
FC000000
FC0003F0
FC0003F0
FC0003F0
FC0003F0
FC0003F0
FC0003F0
FC0007E0
FE0007E0
7E000FE0
7F001FC0
3FC03FC0
3FFFFF80
1FFFFF00
0FFFFE00
03FFFC00
00FFF000
00060000
ENDCHAR
STARTCHAR 010B
ENCODING 267
SWIDTH 408 0
DWIDTH 34 0
BBX 26 60 4 -1
BITMAP
001F0000
003F8000
007FC000
007FC000
007FC000
007FC000
007F8000
003F8000
001E0000
00000000
00000000
00000000
00000000
00000000
00000000
00000000
007F8000
01FFF000
07FFFC00
0FFFFE00
1FFFFF00
3FE1FF80
3F807F80
7F001FC0
7E001FC0
FE000FC0
FC000FC0
FC000FC0
FC000FC0
FC000000
FC000000
FC000000
FC000000
FC000000
FC000000
FC000000
FC000000
FC000000
FC000000
FC000000
FC000000
FC000000
FC000000
FC000000
FC000000
FC000000
FC000FC0
FC000FC0
FC000FC0
FE000FC0
7E000FC0
7F001FC0
7F003F80
3FC07F80
3FFFFF00
1FFFFE00
0FFFFC00
03FFF800
01FFE000
000C0000
ENDCHAR
STARTCHAR 010C
ENCODING 268
SWIDTH 444 0
DWIDTH 37 0
BBX 28 77 5 -1
BITMAP
07801C00
07C03E00
03E07C00
03E0FC00
01F0F800
01F9F000
00F9F000
007FE000
007FE000
003FC000
003F8000
00000000
00000000
00000000
00000000
00000000
00000000
007FC000
01FFF800
07FFFC00
0FFFFF00
1FFFFF80
3FF0FF80
7F803FC0
7F000FE0
7E000FE0
FC0007E0
FC0007F0
FC0003F0
FC0003F0
FC0003F0
FC0003F0
FC0003F0
FC0003F0
FC000000
FC000000
FC000000
FC000000
FC000000
FC000000
FC000000
FC000000
FC000000
FC000000
FC000000
FC000000
FC000000
FC000000
FC000000
FC000000
FC000000
FC000000
FC000000
FC000000
FC000000
FC000000
FC000000
FC000000
FC000000
FC000000
FC0003F0
FC0003F0
FC0003F0
FC0003F0
FC0003F0
FC0003F0
FC0007E0
FE0007E0
7E000FE0
7F001FC0
3FC03FC0
3FFFFF80
1FFFFF00
0FFFFE00
03FFFC00
00FFF000
00060000
ENDCHAR
STARTCHAR 010D
ENCODING 269
SWIDTH 408 0
DWIDTH 34 0
BBX 26 61 4 -1
BITMAP
07003C00
0FC07C00
07C0FC00
03E0F800
03E1F000
01F1F000
01FBE000
00FFE000
007FC000
007F8000
003F8000
00000000
00000000
00000000
00000000
00000000
00000000
007F8000
01FFF000
07FFFC00
0FFFFE00
1FFFFF00
3FE1FF80
3F807F80
7F001FC0
7E001FC0
FE000FC0
FC000FC0
FC000FC0
FC000FC0
FC000000
FC000000
FC000000
FC000000
FC000000
FC000000
FC000000
FC000000
FC000000
FC000000
FC000000
FC000000
FC000000
FC000000
FC000000
FC000000
FC000000
FC000FC0
FC000FC0
FC000FC0
FE000FC0
7E000FC0
7F001FC0
7F003F80
3FC07F80
3FFFFF00
1FFFFE00
0FFFFC00
03FFF800
01FFE000
000C0000
ENDCHAR
STARTCHAR 010E
ENCODING 270
SWIDTH 468 0
DWIDTH 39 0
BBX 28 76 6 0
BITMAP
07003C00
0FC07C00
07C0FC00
07E0F800
03E1F000
01F1F000
01F3E000
00FFE000
007FC000
007F8000
003F8000
00000000
00000000
00000000
00000000
00000000
00000000
FFFFC000
FFFFF000
FFFFFC00
FFFFFE00
FFFFFF00
FC00FF80
FC003FC0
FC001FC0
FC000FE0
FC000FE0
FC0007E0
FC0007E0
FC0007F0
FC0003F0
FC0003F0
FC0003F0
FC0003F0
FC0003F0
FC0003F0
FC0003F0
FC0003F0
FC0003F0
FC0003F0
FC0003F0
FC0003F0
FC0003F0
FC0003F0
FC0003F0
FC0003F0
FC0003F0
FC0003F0
FC0003F0
FC0003F0
FC0003F0
FC0003F0
FC0003F0
FC0003F0
FC0003F0
FC0003F0
FC0003F0
FC0003F0
FC0003F0
FC0003F0
FC0003F0
FC0003F0
FC0003F0
FC0007F0
FC0007E0
FC0007E0
FC000FE0
FC000FC0
FC001FC0
FC003FC0
FC00FF80
FFFFFF00
FFFFFE00
FFFFFC00
FFFFF000
FFFFC000
ENDCHAR
STARTCHAR 010F
ENCODING 271
SWIDTH 420 0
DWIDTH 35 0
BBX 42 60 4 -1
BITMAP
00000FC007C0
00000FC00F80
00000FC01F80
00000FC01F00
00000FC03E00
00000FC03E00
00000FC07C00
00000FC07800
00000FC0F800
00000FC0F000
00000FC1E000
00000FC00000
00000FC00000
00000FC00000
00000FC00000
00000FC00000
00FE0FC00000
03FF8FC00000
0FFFEFC00000
1FFFFFC00000
3FFFFFC00000
3FE1FFC00000
7F807FC00000
7F003FC00000
7E001FC00000
FE000FC00000
FC000FC00000
FC000FC00000
FC000FC00000
FC000FC00000
FC000FC00000
FC000FC00000
FC000FC00000
FC000FC00000
FC000FC00000
FC000FC00000
FC000FC00000
FC000FC00000
FC000FC00000
FC000FC00000
FC000FC00000
FC000FC00000
FC000FC00000
FC000FC00000
FC000FC00000
FC000FC00000
FC000FC00000
FC000FC00000
FC000FC00000
FC000FC00000
7E001FC00000
7F001FC00000
7F003FC00000
3FC07FC00000
3FFFFFC00000
1FFFFFC00000
0FFFEFC00000
07FFCFC00000
01FF8FC00000
001800000000
ENDCHAR
STARTCHAR 0110
ENCODING 272
SWIDTH 504 0
DWIDTH 42 0
BBX 31 59 6 0
BITMAP
0FFFF800
0FFFFF00
0FFFFFC0
0FFFFFE0
0FFFFFF0
0FC01FF0
0FC007F8
0FC001FC
0FC001FC
0FC000FC
0FC000FE
0FC0007E
0FC0007E
0FC0007E
0FC0007E
0FC0007E
0FC0007E
0FC0007E
0FC0007E
0FC0007E
0FC0007E
0FC0007E
0FC0007E
0FC0007E
0FC0007E
0FC0007E
FFFF807E
FFFF807E
FFFF807E
FFFF807E
0FC0007E
0FC0007E
0FC0007E
0FC0007E
0FC0007E
0FC0007E
0FC0007E
0FC0007E
0FC0007E
0FC0007E
0FC0007E
0FC0007E
0FC0007E
0FC0007E
0FC0007E
0FC0007E
0FC0007E
0FC0007E
0FC000FE
0FC000FC
0FC001FC
0FC001FC
0FC007F8
0FC01FF0
0FFFFFF0
0FFFFFE0
0FFFFFC0
0FFFFF00
0FFFF800
ENDCHAR
STARTCHAR 0111
ENCODING 273
SWIDTH 420 0
DWIDTH 35 0
BBX 30 60 4 -1
BITMAP
00000FC0
00000FC0
00000FC0
00000FC0
00000FC0
00000FC0
00000FC0
00FFFFFC
00FFFFFC
00FFFFFC
00FFFFFC
00000FC0
00000FC0
00000FC0
00000FC0
00000FC0
00FE0FC0
03FF8FC0
0FFFEFC0
1FFFFFC0
3FFFFFC0
3FE1FFC0
7F807FC0
7F003FC0
7E001FC0
FE000FC0
FC000FC0
FC000FC0
FC000FC0
FC000FC0
FC000FC0
FC000FC0
FC000FC0
FC000FC0
FC000FC0
FC000FC0
FC000FC0
FC000FC0
FC000FC0
FC000FC0
FC000FC0
FC000FC0
FC000FC0
FC000FC0
FC000FC0
FC000FC0
FC000FC0
FC000FC0
FC000FC0
FC000FC0
7E001FC0
7F001FC0
7F003FC0
3FC07FC0
3FFFFFC0
1FFFFFC0
0FFFEFC0
07FFCFC0
01FF8FC0
00180000
ENDCHAR
STARTCHAR 0112
ENCODING 274
SWIDTH 432 0
DWIDTH 36 0
BBX 26 70 6 0
BITMAP
07FFFC00
07FFFC00
07FFFC00
07FFFC00
00000000
00000000
00000000
00000000
00000000
00000000
00000000
FFFFFFC0
FFFFFFC0
FFFFFFC0
FFFFFFC0
FFFFFFC0
FC000000
FC000000
FC000000
FC000000
FC000000
FC000000
FC000000
FC000000
FC000000
FC000000
FC000000
FC000000
FC000000
FC000000
FC000000
FC000000
FC000000
FC000000
FC000000
FC000000
FC000000
FC000000
FFFFE000
FFFFE000
FFFFE000
FFFFE000
FFFFE000
FC000000
FC000000
FC000000
FC000000
FC000000
FC000000
FC000000
FC000000
FC000000
FC000000
FC000000
FC000000
FC000000
FC000000
FC000000
FC000000
FC000000
FC000000
FC000000
FC000000
FC000000
FC000000
FFFFFFC0
FFFFFFC0
FFFFFFC0
FFFFFFC0
FFFFFFC0
ENDCHAR
STARTCHAR 0113
ENCODING 275
SWIDTH 408 0
DWIDTH 34 0
BBX 26 57 4 -1
BITMAP
0FFFF800
0FFFF800
0FFFF800
0FFFF800
00000000
00000000
00000000
00000000
00000000
00000000
00000000
00000000
00000000
007F8000
03FFF000
07FFFC00
0FFFFE00
1FFFFF00
3FE1FF00
3F807F80
7F001F80
7E001FC0
FE000FC0
FC000FC0
FC000FC0
FC000FC0
FC000FC0
FC000FC0
FC000FC0
FC000FC0
FC000FC0
FC000FC0
FFFFFFC0
FFFFFFC0
FFFFFFC0
FFFFFFC0
FFFFFFC0
FC000000
FC000000
FC000000
FC000000
FC000000
FC000000
FC000000
FC000000
FC000FC0
FE000FC0
7E001FC0
7F001F80
7F003F80
3FC0FF00
3FFFFF00
1FFFFE00
0FFFFC00
03FFF800
01FFE000
000C0000
ENDCHAR
STARTCHAR 0116
ENCODING 278
SWIDTH 432 0
DWIDTH 36 0
BBX 26 75 6 0
BITMAP
001F0000
003F8000
007FC000
007FC000
007FC000
007FC000
007F8000
003F8000
001E0000
00000000
00000000
00000000
00000000
00000000
00000000
00000000
FFFFFFC0
FFFFFFC0
FFFFFFC0
FFFFFFC0
FFFFFFC0
FC000000
FC000000
FC000000
FC000000
FC000000
FC000000
FC000000
FC000000
FC000000
FC000000
FC000000
FC000000
FC000000
FC000000
FC000000
FC000000
FC000000
FC000000
FC000000
FC000000
FC000000
FC000000
FFFFE000
FFFFE000
FFFFE000
FFFFE000
FFFFE000
FC000000
FC000000
FC000000
FC000000
FC000000
FC000000
FC000000
FC000000
FC000000
FC000000
FC000000
FC000000
FC000000
FC000000
FC000000
FC000000
FC000000
FC000000
FC000000
FC000000
FC000000
FC000000
FFFFFFC0
FFFFFFC0
FFFFFFC0
FFFFFFC0
FFFFFFC0
ENDCHAR
STARTCHAR 0117
ENCODING 279
SWIDTH 408 0
DWIDTH 34 0
BBX 26 60 4 -1
BITMAP
001E0000
007F8000
007F8000
00FFC000
00FFC000
00FFC000
007F8000
007F8000
001E0000
00000000
00000000
00000000
00000000
00000000
00000000
00000000
007F8000
03FFF000
07FFFC00
0FFFFE00
1FFFFF00
3FE1FF00
3F807F80
7F001F80
7E001FC0
FE000FC0
FC000FC0
FC000FC0
FC000FC0
FC000FC0
FC000FC0
FC000FC0
FC000FC0
FC000FC0
FC000FC0
FFFFFFC0
FFFFFFC0
FFFFFFC0
FFFFFFC0
FFFFFFC0
FC000000
FC000000
FC000000
FC000000
FC000000
FC000000
FC000000
FC000000
FC000FC0
FE000FC0
7E001FC0
7F001F80
7F003F80
3FC0FF00
3FFFFF00
1FFFFE00
0FFFFC00
03FFF800
01FFE000
000C0000
ENDCHAR
STARTCHAR 0118
ENCODING 280
SWIDTH 432 0
DWIDTH 36 0
BBX 26 74 6 -15
BITMAP
FFFFFFC0
FFFFFFC0
FFFFFFC0
FFFFFFC0
FFFFFFC0
FC000000
FC000000
FC000000
FC000000
FC000000
FC000000
FC000000
FC000000
FC000000
FC000000
FC000000
FC000000
FC000000
FC000000
FC000000
FC000000
FC000000
FC000000
FC000000
FC000000
FC000000
FC000000
FFFFE000
FFFFE000
FFFFE000
FFFFE000
FFFFE000
FC000000
FC000000
FC000000
FC000000
FC000000
FC000000
FC000000
FC000000
FC000000
FC000000
FC000000
FC000000
FC000000
FC000000
FC000000
FC000000
FC000000
FC000000
FC000000
FC000000
FC000000
FC000000
FFFFFFC0
FFFFFFC0
FFFFFFC0
FFFFFFC0
FFFFFFC0
003E0000
007C0000
00F80000
00F00000
01F00000
01E00000
01E00000
01E00000
01E00000
01F00000
01F00000
01FF0000
00FF8000
007F8000
001F8000
ENDCHAR
STARTCHAR 0119
ENCODING 281
SWIDTH 408 0
DWIDTH 34 0
BBX 26 58 4 -15
BITMAP
007F8000
03FFF000
07FFF800
0FFFFE00
1FFFFF00
3FE1FF00
3F807F80
7F003F80
7E001FC0
FE000FC0
FC000FC0
FC000FC0
FC000FC0
FC000FC0
FC000FC0
FC000FC0
FC000FC0
FC000FC0
FC000FC0
FFFFFFC0
FFFFFFC0
FFFFFFC0
FFFFFFC0
FFFFFFC0
FC000000
FC000000
FC000000
FC000000
FC000000
FC000000
FC000000
FC000000
FC000FC0
FE000FC0
7E000FC0
7E001F80
7F003F80
3FC07F00
3FFFFF00
1FFFFE00
0FFFFC00
07FFF800
01FFE000
003C0000
007C0000
00780000
00F00000
00F00000
01E00000
01E00000
01E00000
01E00000
01F00000
01F80000
00FF8000
00FF8000
007F8000
001F8000
ENDCHAR
STARTCHAR 011A
ENCODING 282
SWIDTH 432 0
DWIDTH 36 0
BBX 26 76 6 0
BITMAP
07803C00
0FC07E00
07C0FC00
03E0F800
03E1F800
01F1F000
01FBE000
00FFE000
007FC000
007F8000
003F8000
00000000
00000000
00000000
00000000
00000000
00000000
FFFFFFC0
FFFFFFC0
FFFFFFC0
FFFFFFC0
FFFFFFC0
FC000000
FC000000
FC000000
FC000000
FC000000
FC000000
FC000000
FC000000
FC000000
FC000000
FC000000
FC000000
FC000000
FC000000
FC000000
FC000000
FC000000
FC000000
FC000000
FC000000
FC000000
FC000000
FFFFE000
FFFFE000
FFFFE000
FFFFE000
FFFFE000
FC000000
FC000000
FC000000
FC000000
FC000000
FC000000
FC000000
FC000000
FC000000
FC000000
FC000000
FC000000
FC000000
FC000000
FC000000
FC000000
FC000000
FC000000
FC000000
FC000000
FC000000
FC000000
FFFFFFC0
FFFFFFC0
FFFFFFC0
FFFFFFC0
FFFFFFC0
ENDCHAR
STARTCHAR 011B
ENCODING 283
SWIDTH 408 0
DWIDTH 34 0
BBX 26 61 4 -1
BITMAP
07003C00
0F807C00
07C0FC00
07E0F800
03E1F000
01F3F000
01F3E000
00FFC000
00FFC000
007F8000
003F8000
00000000
00000000
00000000
00000000
00000000
00000000
007F8000
03FFF000
07FFFC00
0FFFFE00
1FFFFF00
3FE1FF00
3F807F80
7F001F80
7E001FC0
FE000FC0
FC000FC0
FC000FC0
FC000FC0
FC000FC0
FC000FC0
FC000FC0
FC000FC0
FC000FC0
FC000FC0
FFFFFFC0
FFFFFFC0
FFFFFFC0
FFFFFFC0
FFFFFFC0
FC000000
FC000000
FC000000
FC000000
FC000000
FC000000
FC000000
FC000000
FC000FC0
FE000FC0
7E001FC0
7F001F80
7F003F80
3FC0FF00
3FFFFF00
1FFFFE00
0FFFFC00
03FFF800
01FFE000
000C0000
ENDCHAR
STARTCHAR 011C
ENCODING 284
SWIDTH 456 0
DWIDTH 38 0
BBX 28 77 5 -1
BITMAP
001F0000
003F8000
007FC000
007FE000
00FBE000
01F9F000
01F1F800
03F0F800
03E0FC00
07C07C00
07C03E00
00000000
00000000
00000000
00000000
00000000
00000000
007FC000
01FFF800
07FFFE00
0FFFFF00
1FFFFF80
3FF0FFC0
7F803FC0
7F000FE0
7E0007E0
FC0007E0
FC0003F0
FC0003F0
FC0003F0
FC0003F0
FC0003F0
FC0003F0
FC0003F0
FC0003F0
FC000000
FC000000
FC000000
FC000000
FC000000
FC000000
FC000000
FC000000
FC000000
FC000000
FC000000
FC03FFF0
FC03FFF0
FC03FFF0
FC03FFF0
FC03FFF0
FC0003F0
FC0003F0
FC0003F0
FC0003F0
FC0003F0
FC0003F0
FC0003F0
FC0003F0
FC0003F0
FC0003F0
FC0003F0
FC0003F0
FC0003F0
FC0003F0
FC0003F0
FC0007E0
FE0007E0
7E000FE0
7F001FC0
3FC03FC0
3FFFFF80
1FFFFF00
0FFFFE00
03FFFC00
00FFF000
00060000
ENDCHAR
STARTCHAR 011D
ENCODING 285
SWIDTH 408 0
DWIDTH 34 0
BBX 26 77 4 -17
BITMAP
001F0000
007F8000
007FC000
00FFC000
00FBE000
01F3E000
03F1F000
03E1F800
07C0F800
07C07C00
0F807C00
00000000
00000000
00000000
00000000
00000000
00000000
00FE0FC0
03FF8FC0
0FFFCFC0
1FFFEFC0
3FFFFFC0
3FE1FFC0
7F807FC0
7F003FC0
7E001FC0
FE000FC0
FC000FC0
FC000FC0
FC000FC0
FC000FC0
FC000FC0
FC000FC0
FC000FC0
FC000FC0
FC000FC0
FC000FC0
FC000FC0
FC000FC0
FC000FC0
FC000FC0
FC000FC0
FC000FC0
FC000FC0
FC000FC0
FC000FC0
FC000FC0
FC000FC0
FC000FC0
FC000FC0
FE000FC0
7E001FC0
7F003FC0
7F807FC0
3FE1FFC0
3FFFFFC0
1FFFEFC0
0FFFCFC0
07FF8FC0
00FE0FC0
00000FC0
00000FC0
00000FC0
00000FC0
00000FC0
00001F80
00001F80
00003F80
00003F00
00007F00
0001FE00
000FFE00
01FFFC00
01FFF800
01FFE000
01FF8000
01FC0000
ENDCHAR
STARTCHAR 011E
ENCODING 286
SWIDTH 456 0
DWIDTH 38 0
BBX 28 73 5 -1
BITMAP
07801E00
07801C00
07803C00
03C03C00
03C07800
01F0F800
01FFF000
007FE000
001F8000
00000000
00000000
00000000
00000000
007FC000
01FFF800
07FFFE00
0FFFFF00
1FFFFF80
3FF0FFC0
7F803FC0
7F000FE0
7E0007E0
FC0007E0
FC0003F0
FC0003F0
FC0003F0
FC0003F0
FC0003F0
FC0003F0
FC0003F0
FC0003F0
FC000000
FC000000
FC000000
FC000000
FC000000
FC000000
FC000000
FC000000
FC000000
FC000000
FC000000
FC03FFF0
FC03FFF0
FC03FFF0
FC03FFF0
FC03FFF0
FC0003F0
FC0003F0
FC0003F0
FC0003F0
FC0003F0
FC0003F0
FC0003F0
FC0003F0
FC0003F0
FC0003F0
FC0003F0
FC0003F0
FC0003F0
FC0003F0
FC0003F0
FC0007E0
FE0007E0
7E000FE0
7F001FC0
3FC03FC0
3FFFFF80
1FFFFF00
0FFFFE00
03FFFC00
00FFF000
00060000
ENDCHAR
STARTCHAR 011F
ENCODING 287
SWIDTH 408 0
DWIDTH 34 0
BBX 26 73 4 -17
BITMAP
0F003C00
07003C00
07803C00
07807800
03C07800
03E1F000
01FFF000
00FFC000
003F0000
00000000
00000000
00000000
00000000
00FE0FC0
03FF8FC0
0FFFCFC0
1FFFEFC0
3FFFFFC0
3FE1FFC0
7F807FC0
7F003FC0
7E001FC0
FE000FC0
FC000FC0
FC000FC0
FC000FC0
FC000FC0
FC000FC0
FC000FC0
FC000FC0
FC000FC0
FC000FC0
FC000FC0
FC000FC0
FC000FC0
FC000FC0
FC000FC0
FC000FC0
FC000FC0
FC000FC0
FC000FC0
FC000FC0
FC000FC0
FC000FC0
FC000FC0
FC000FC0
FE000FC0
7E001FC0
7F003FC0
7F807FC0
3FE1FFC0
3FFFFFC0
1FFFEFC0
0FFFCFC0
07FF8FC0
00FE0FC0
00000FC0
00000FC0
00000FC0
00000FC0
00000FC0
00001F80
00001F80
00003F80
00003F00
00007F00
0001FE00
000FFE00
01FFFC00
01FFF800
01FFE000
01FF8000
01FC0000
ENDCHAR
STARTCHAR 0120
ENCODING 288
SWIDTH 456 0
DWIDTH 38 0
BBX 28 76 5 -1
BITMAP
001F0000
003F8000
003FC000
007FC000
007FE000
007FC000
003FC000
003F8000
001F0000
00000000
00000000
00000000
00000000
00000000
00000000
00000000
007FC000
01FFF800
07FFFE00
0FFFFF00
1FFFFF80
3FF0FFC0
7F803FC0
7F000FE0
7E0007E0
FC0007E0
FC0003F0
FC0003F0
FC0003F0
FC0003F0
FC0003F0
FC0003F0
FC0003F0
FC0003F0
FC000000
FC000000
FC000000
FC000000
FC000000
FC000000
FC000000
FC000000
FC000000
FC000000
FC000000
FC03FFF0
FC03FFF0
FC03FFF0
FC03FFF0
FC03FFF0
FC0003F0
FC0003F0
FC0003F0
FC0003F0
FC0003F0
FC0003F0
FC0003F0
FC0003F0
FC0003F0
FC0003F0
FC0003F0
FC0003F0
FC0003F0
FC0003F0
FC0003F0
FC0007E0
FE0007E0
7E000FE0
7F001FC0
3FC03FC0
3FFFFF80
1FFFFF00
0FFFFE00
03FFFC00
00FFF000
00060000
ENDCHAR
STARTCHAR 0121
ENCODING 289
SWIDTH 408 0
DWIDTH 34 0
BBX 26 76 4 -17
BITMAP
001F0000
003F8000
007FC000
007FC000
007FC000
007FC000
007FC000
003F8000
001F0000
00000000
00000000
00000000
00000000
00000000
00000000
00000000
00FE0FC0
03FF8FC0
0FFFCFC0
1FFFEFC0
3FFFFFC0
3FE1FFC0
7F807FC0
7F003FC0
7E001FC0
FE000FC0
FC000FC0
FC000FC0
FC000FC0
FC000FC0
FC000FC0
FC000FC0
FC000FC0
FC000FC0
FC000FC0
FC000FC0
FC000FC0
FC000FC0
FC000FC0
FC000FC0
FC000FC0
FC000FC0
FC000FC0
FC000FC0
FC000FC0
FC000FC0
FC000FC0
FC000FC0
FC000FC0
FE000FC0
7E001FC0
7F003FC0
7F807FC0
3FE1FFC0
3FFFFFC0
1FFFEFC0
0FFFCFC0
07FF8FC0
00FE0FC0
00000FC0
00000FC0
00000FC0
00000FC0
00000FC0
00001F80
00001F80
00003F80
00003F00
00007F00
0001FE00
000FFE00
01FFFC00
01FFF800
01FFE000
01FF8000
01FC0000
ENDCHAR
STARTCHAR 0122
ENCODING 290
SWIDTH 456 0
DWIDTH 38 0
BBX 28 75 5 -16
BITMAP
007FC000
01FFF800
07FFFE00
0FFFFF00
1FFFFF80
3FF0FFC0
7F803FC0
7F000FE0
7E0007E0
FC0007E0
FC0003F0
FC0003F0
FC0003F0
FC0003F0
FC0003F0
FC0003F0
FC0003F0
FC0003F0
FC000000
FC000000
FC000000
FC000000
FC000000
FC000000
FC000000
FC000000
FC000000
FC000000
FC000000
FC03FFF0
FC03FFF0
FC03FFF0
FC03FFF0
FC03FFF0
FC0003F0
FC0003F0
FC0003F0
FC0003F0
FC0003F0
FC0003F0
FC0003F0
FC0003F0
FC0003F0
FC0003F0
FC0003F0
FC0003F0
FC0003F0
FC0003F0
FC0003F0
FC0007E0
FE0007E0
7E000FE0
7F001FC0
3FC03FC0
3FFFFF80
1FFFFF00
0FFFFE00
03FFFC00
00FFF000
00060000
00000000
00000000
00000000
00000000
0001F000
0003E000
0003E000
0007C000
0007C000
000F8000
000F0000
001F0000
003E0000
003C0000
003C0000
ENDCHAR
STARTCHAR 0123
ENCODING 291
SWIDTH 408 0
DWIDTH 34 0
BBX 26 76 4 -17
BITMAP
00078000
000F8000
000F0000
001F0000
001E0000
003E0000
007C0000
007C0000
00F80000
00F80000
01F00000
00000000
00000000
00000000
00000000
00000000
00FE0FC0
03FF8FC0
0FFFCFC0
1FFFEFC0
3FFFFFC0
3FE1FFC0
7F807FC0
7F003FC0
7E001FC0
FE000FC0
FC000FC0
FC000FC0
FC000FC0
FC000FC0
FC000FC0
FC000FC0
FC000FC0
FC000FC0
FC000FC0
FC000FC0
FC000FC0
FC000FC0
FC000FC0
FC000FC0
FC000FC0
FC000FC0
FC000FC0
FC000FC0
FC000FC0
FC000FC0
FC000FC0
FC000FC0
FC000FC0
FE000FC0
7E001FC0
7F003FC0
7F807FC0
3FE1FFC0
3FFFFFC0
1FFFEFC0
0FFFCFC0
07FF8FC0
00FE0FC0
00000FC0
00000FC0
00000FC0
00000FC0
00000FC0
00001F80
00001F80
00003F80
00003F00
00007F00
0001FE00
000FFE00
01FFFC00
01FFF800
01FFE000
01FF8000
01FC0000
ENDCHAR
STARTCHAR 0124
ENCODING 292
SWIDTH 468 0
DWIDTH 39 0
BBX 27 76 6 0
BITMAP
001F0000
003F8000
007FC000
00FFC000
00FBE000
01F3F000
01F1F000
03E0F800
07E0FC00
07C07C00
0F807E00
00000000
00000000
00000000
00000000
00000000
00000000
FC0007E0
FC0007E0
FC0007E0
FC0007E0
FC0007E0
FC0007E0
FC0007E0
FC0007E0
FC0007E0
FC0007E0
FC0007E0
FC0007E0
FC0007E0
FC0007E0
FC0007E0
FC0007E0
FC0007E0
FC0007E0
FC0007E0
FC0007E0
FC0007E0
FC0007E0
FC0007E0
FC0007E0
FC0007E0
FC0007E0
FC0007E0
FFFFFFE0
FFFFFFE0
FFFFFFE0
FFFFFFE0
FFFFFFE0
FC0007E0
FC0007E0
FC0007E0
FC0007E0
FC0007E0
FC0007E0
FC0007E0
FC0007E0
FC0007E0
FC0007E0
FC0007E0
FC0007E0
FC0007E0
FC0007E0
FC0007E0
FC0007E0
FC0007E0
FC0007E0
FC0007E0
FC0007E0
FC0007E0
FC0007E0
FC0007E0
FC0007E0
FC0007E0
FC0007E0
FC0007E0
ENDCHAR
STARTCHAR 0125
ENCODING 293
SWIDTH 420 0
DWIDTH 35 0
BBX 26 74 5 0
BITMAP
003F0000
007F8000
007F8000
00FFC000
00FBE000
01F3E000
03F1F000
03E1F800
07C0F800
0FC0FC00
0F807C00
00000000
00000000
00000000
00000000
FC000000
FC000000
FC000000
FC000000
FC000000
FC000000
FC000000
FC000000
FC000000
FC000000
FC000000
FC000000
FC000000
FC000000
FC000000
FC000000
FC0FE000
FC7FF800
FCFFFC00
FDFFFE00
FFFFFF00
FFE1FF00
FF807F80
FF003F80
FE001F80
FE001F80
FC001FC0
FC000FC0
FC000FC0
FC000FC0
FC000FC0
FC000FC0
FC000FC0
FC000FC0
FC000FC0
FC000FC0
FC000FC0
FC000FC0
FC000FC0
FC000FC0
FC000FC0
FC000FC0
FC000FC0
FC000FC0
FC000FC0
FC000FC0
FC000FC0
FC000FC0
FC000FC0
FC000FC0
FC000FC0
FC000FC0
FC000FC0
FC000FC0
FC000FC0
FC000FC0
FC000FC0
FC000FC0
FC000FC0
ENDCHAR
STARTCHAR 0126
ENCODING 294
SWIDTH 468 0
DWIDTH 39 0
BBX 35 59 2 0
BITMAP
0FC0007E00
0FC0007E00
0FC0007E00
0FC0007E00
0FC0007E00
0FC0007E00
0FC0007E00
0FC0007E00
0FC0007E00
0FC0007E00
0FC0007E00
0FC0007E00
FFFFFFFFE0
FFFFFFFFE0
FFFFFFFFE0
FFFFFFFFE0
0FC0007E00
0FC0007E00
0FC0007E00
0FC0007E00
0FC0007E00
0FC0007E00
0FC0007E00
0FC0007E00
0FC0007E00
0FC0007E00
0FC0007E00
0FFFFFFE00
0FFFFFFE00
0FFFFFFE00
0FFFFFFE00
0FFFFFFE00
0FC0007E00
0FC0007E00
0FC0007E00
0FC0007E00
0FC0007E00
0FC0007E00
0FC0007E00
0FC0007E00
0FC0007E00
0FC0007E00
0FC0007E00
0FC0007E00
0FC0007E00
0FC0007E00
0FC0007E00
0FC0007E00
0FC0007E00
0FC0007E00
0FC0007E00
0FC0007E00
0FC0007E00
0FC0007E00
0FC0007E00
0FC0007E00
0FC0007E00
0FC0007E00
0FC0007E00
ENDCHAR
STARTCHAR 0127
ENCODING 295
SWIDTH 420 0
DWIDTH 35 0
BBX 30 59 1 0
BITMAP
0FC00000
0FC00000
0FC00000
0FC00000
0FC00000
0FC00000
0FC00000
0FC00000
FFFFFC00
FFFFFC00
FFFFFC00
FFFFFC00
0FC00000
0FC00000
0FC00000
0FC00000
0FC0FE00
0FC7FF80
0FCFFFC0
0FDFFFE0
0FFFFFF0
0FFE1FF0
0FF807F8
0FF003F8
0FE001F8
0FE001F8
0FC001FC
0FC000FC
0FC000FC
0FC000FC
0FC000FC
0FC000FC
0FC000FC
0FC000FC
0FC000FC
0FC000FC
0FC000FC
0FC000FC
0FC000FC
0FC000FC
0FC000FC
0FC000FC
0FC000FC
0FC000FC
0FC000FC
0FC000FC
0FC000FC
0FC000FC
0FC000FC
0FC000FC
0FC000FC
0FC000FC
0FC000FC
0FC000FC
0FC000FC
0FC000FC
0FC000FC
0FC000FC
0FC000FC
ENDCHAR
STARTCHAR 0128
ENCODING 296
SWIDTH 216 0
DWIDTH 18 0
BBX 22 75 -1 0
BITMAP
0F8000
3FE010
7FF03C
7FF87C
F87FF8
703FF0
201FE0
000780
000000
000000
000000
000000
000000
000000
000000
000000
01F800
01F800
01F800
01F800
01F800
01F800
01F800
01F800
01F800
01F800
01F800
01F800
01F800
01F800
01F800
01F800
01F800
01F800
01F800
01F800
01F800
01F800
01F800
01F800
01F800
01F800
01F800
01F800
01F800
01F800
01F800
01F800
01F800
01F800
01F800
01F800
01F800
01F800
01F800
01F800
01F800
01F800
01F800
01F800
01F800
01F800
01F800
01F800
01F800
01F800
01F800
01F800
01F800
01F800
01F800
01F800
01F800
01F800
01F800
ENDCHAR
STARTCHAR 0129
ENCODING 297
SWIDTH 168 0
DWIDTH 14 0
BBX 22 59 -3 0
BITMAP
0F8000
3FE010
7FF03C
7FFC7C
F87FF8
703FF0
200FE0
0007C0
000000
000000
000000
000000
000000
000000
000000
000000
01F800
01F800
01F800
01F800
01F800
01F800
01F800
01F800
01F800
01F800
01F800
01F800
01F800
01F800
01F800
01F800
01F800
01F800
01F800
01F800
01F800
01F800
01F800
01F800
01F800
01F800
01F800
01F800
01F800
01F800
01F800
01F800
01F800
01F800
01F800
01F800
01F800
01F800
01F800
01F800
01F800
01F800
01F800
ENDCHAR
STARTCHAR 012A
ENCODING 298
SWIDTH 216 0
DWIDTH 18 0
BBX 17 70 0 0
BITMAP
FFFF80
FFFF80
FFFF80
FFFF80
000000
000000
000000
000000
000000
000000
000000
03F000
03F000
03F000
03F000
03F000
03F000
03F000
03F000
03F000
03F000
03F000
03F000
03F000
03F000
03F000
03F000
03F000
03F000
03F000
03F000
03F000
03F000
03F000
03F000
03F000
03F000
03F000
03F000
03F000
03F000
03F000
03F000
03F000
03F000
03F000
03F000
03F000
03F000
03F000
03F000
03F000
03F000
03F000
03F000
03F000
03F000
03F000
03F000
03F000
03F000
03F000
03F000
03F000
03F000
03F000
03F000
03F000
03F000
03F000
ENDCHAR
STARTCHAR 012B
ENCODING 299
SWIDTH 168 0
DWIDTH 14 0
BBX 17 54 -2 0
BITMAP
7FFF80
FFFF80
FFFF80
7FFF80
000000
000000
000000
000000
000000
000000
000000
03F000
03F000
03F000
03F000
03F000
03F000
03F000
03F000
03F000
03F000
03F000
03F000
03F000
03F000
03F000
03F000
03F000
03F000
03F000
03F000
03F000
03F000
03F000
03F000
03F000
03F000
03F000
03F000
03F000
03F000
03F000
03F000
03F000
03F000
03F000
03F000
03F000
03F000
03F000
03F000
03F000
03F000
03F000
ENDCHAR
STARTCHAR 012D
ENCODING 301
SWIDTH 168 0
DWIDTH 14 0
BBX 18 58 -2 0
BITMAP
F003C0
F003C0
F00380
780780
7C0F80
3E1F00
1FFE00
0FFC00
03F000
000000
000000
000000
000000
000000
000000
03F000
03F000
03F000
03F000
03F000
03F000
03F000
03F000
03F000
03F000
03F000
03F000
03F000
03F000
03F000
03F000
03F000
03F000
03F000
03F000
03F000
03F000
03F000
03F000
03F000
03F000
03F000
03F000
03F000
03F000
03F000
03F000
03F000
03F000
03F000
03F000
03F000
03F000
03F000
03F000
03F000
03F000
03F000
ENDCHAR
STARTCHAR 012E
ENCODING 302
SWIDTH 192 0
DWIDTH 16 0
BBX 10 75 2 -16
BITMAP
1F80
1F80
1F80
1F80
1F80
1F80
1F80
1F80
1F80
1F80
1F80
1F80
1F80
1F80
1F80
1F80
1F80
1F80
1F80
1F80
1F80
1F80
1F80
1F80
1F80
1F80
1F80
1F80
1F80
1F80
1F80
1F80
1F80
1F80
1F80
1F80
1F80
1F80
1F80
1F80
1F80
1F80
1F80
1F80
1F80
1F80
1F80
1F80
1F80
1F80
1F80
1F80
1F80
1F80
1F80
1F80
1F80
1F80
1F80
0600
1F00
1E00
3C00
7800
7800
F800
F000
F000
F000
F800
FC00
7FC0
7FC0
3FC0
0FC0
ENDCHAR
STARTCHAR 012F
ENCODING 303
SWIDTH 228 0
DWIDTH 19 0
BBX 11 75 4 -16
BITMAP
0F00
3FC0
3FC0
7FE0
7FE0
7FE0
3FC0
3FC0
0F00
0000
0000
0000
0000
0000
0000
0000
1F80
1F80
1F80
1F80
1F80
1F80
1F80
1F80
1F80
1F80
1F80
1F80
1F80
1F80
1F80
1F80
1F80
1F80
1F80
1F80
1F80
1F80
1F80
1F80
1F80
1F80
1F80
1F80
1F80
1F80
1F80
1F80
1F80
1F80
1F80
1F80
1F80
1F80
1F80
1F80
1F80
1F80
1F80
0700
0F00
1E00
3C00
7C00
7800
7800
7800
F800
F800
F800
7C00
7FC0
7FC0
3FC0
0FC0
ENDCHAR
STARTCHAR 0130
ENCODING 304
SWIDTH 216 0
DWIDTH 18 0
BBX 10 75 4 0
BITMAP
1E00
7F80
7F80
FFC0
FFC0
FFC0
7F80
7F80
1E00
0000
0000
0000
0000
0000
0000
0000
3F00
3F00
3F00
3F00
3F00
3F00
3F00
3F00
3F00
3F00
3F00
3F00
3F00
3F00
3F00
3F00
3F00
3F00
3F00
3F00
3F00
3F00
3F00
3F00
3F00
3F00
3F00
3F00
3F00
3F00
3F00
3F00
3F00
3F00
3F00
3F00
3F00
3F00
3F00
3F00
3F00
3F00
3F00
3F00
3F00
3F00
3F00
3F00
3F00
3F00
3F00
3F00
3F00
3F00
3F00
3F00
3F00
3F00
3F00
ENDCHAR
STARTCHAR 0131
ENCODING 305
SWIDTH 168 0
DWIDTH 14 0
BBX 6 43 4 0
BITMAP
FC
FC
FC
FC
FC
FC
FC
FC
FC
FC
FC
FC
FC
FC
FC
FC
FC
FC
FC
FC
FC
FC
FC
FC
FC
FC
FC
FC
FC
FC
FC
FC
FC
FC
FC
FC
FC
FC
FC
FC
FC
FC
FC
ENDCHAR
STARTCHAR 0133
ENCODING 307
SWIDTH 408 0
DWIDTH 34 0
BBX 26 77 4 -17
BITMAP
3E001F00
7F003F80
FF807FC0
FF807FC0
FF807FC0
FF807FC0
FF807FC0
7F003F80
3E001F00
00000000
00000000
00000000
00000000
00000000
00000000
00000000
00000000
3F001F00
3F003F00
3F003F00
3F003F00
3F003F00
3F003F00
3F003F00
3F003F00
3F003F00
3F003F00
3F003F00
3F003F00
3F003F00
3F003F00
3F003F00
3F003F00
3F003F00
3F003F00
3F003F00
3F003F00
3F003F00
3F003F00
3F003F00
3F003F00
3F003F00
3F003F00
3F003F00
3F003F00
3F003F00
3F003F00
3F003F00
3F003F00
3F003F00
3F003F00
3F003F00
3F003F00
3F003F00
3F003F00
3F003F00
3F003F00
3F003F00
3F003F00
3F003F00
00003F00
00003F00
00003F00
00003F00
00003F00
00003F00
00003F00
00003F00
00003F00
00007F00
0000FE00
0003FE00
001FFC00
001FFC00
001FF800
001FE000
001F8000
ENDCHAR
STARTCHAR 0134
ENCODING 308
SWIDTH 432 0
DWIDTH 36 0
BBX 34 77 2 -1
BITMAP
000003E000
000007F000
00000FF800
00001FF800
00001F7C00
00003E7E00
00003E3E00
00007C1F00
0000FC1F80
0000F80F80
0001F00FC0
0000000000
0000000000
0000000000
0000000000
0000000000
0000000000
000003E000
000003F000
000003F000
000003F000
000003F000
000003F000
000003F000
000003F000
000003F000
000003F000
000003F000
000003F000
000003F000
000003F000
000003F000
000003F000
000003F000
000003F000
000003F000
000003F000
000003F000
000003F000
000003F000
000003F000
000003F000
000003F000
000003F000
000003F000
000003F000
000003F000
000003F000
000003F000
000003F000
000003F000
000003F000
000003F000
000003F000
F80003F000
FC0003F000
FC0003F000
FC0003F000
FC0003F000
FC0003F000
FC0003F000
FC0003F000
FC0003E000
FC0003E000
FC0007E000
FC0007E000
FE0007E000
7E000FE000
7F000FC000
7F801FC000
3FC07F8000
1FFFFF8000
0FFFFF0000
07FFFE0000
03FFF80000
00FFE00000
0006000000
ENDCHAR
STARTCHAR 0135
ENCODING 309
SWIDTH 204 0
DWIDTH 17 0
BBX 20 77 -3 -17
BITMAP
00F800
01FE00
01FE00
03FF00
07FF80
07CF80
0F87C0
1F87C0
1F03E0
3F03F0
3E01F0
000000
000000
000000
000000
000000
000000
00FC00
00FC00
00FC00
00FC00
00FC00
00FC00
00FC00
00FC00
00FC00
00FC00
00FC00
00FC00
00FC00
00FC00
00FC00
00FC00
00FC00
00FC00
00FC00
00FC00
00FC00
00FC00
00FC00
00FC00
00FC00
00FC00
00FC00
00FC00
00FC00
00FC00
00FC00
00FC00
00FC00
00FC00
00FC00
00FC00
00FC00
00FC00
00FC00
00FC00
00FC00
00FC00
00FC00
00FC00
00FC00
00FC00
00FC00
00FC00
00FC00
00FC00
00FC00
01F800
01F800
03F800
0FF800
7FF000
FFE000
FFC000
FF8000
7C0000
ENDCHAR
STARTCHAR 0136
ENCODING 310
SWIDTH 456 0
DWIDTH 38 0
BBX 30 74 6 -15
BITMAP
FC0001F8
FC0003F0
FC0007F0
FC0007E0
FC000FE0
FC000FC0
FC001FC0
FC003F80
FC003F00
FC007F00
FC007E00
FC00FE00
FC00FC00
FC01FC00
FC03F800
FC03F000
FC07F000
FC07E000
FC0FE000
FC1FC000
FC1FC000
FC3F8000
FC3F0000
FC7F0000
FC7F0000
FCFF0000
FDFF0000
FDFF8000
FFFF8000
FFFFC000
FFEFC000
FFCFE000
FF87E000
FF87E000
FF03F000
FE03F000
FE03F800
FC01F800
FC01FC00
FC00FC00
FC00FC00
FC007E00
FC007E00
FC007F00
FC003F00
FC003F80
FC001F80
FC001F80
FC001FC0
FC000FC0
FC000FE0
FC0007E0
FC0007F0
FC0003F0
FC0003F0
FC0003F8
FC0001F8
FC0001FC
FC0000FC
00000000
00000000
00000000
00000000
0000F800
0001F800
0001F000
0003E000
0003E000
0007C000
00078000
000F8000
000F0000
001F0000
001E0000
ENDCHAR
STARTCHAR 0137
ENCODING 311
SWIDTH 408 0
DWIDTH 34 0
BBX 26 74 5 -15
BITMAP
FC000000
FC000000
FC000000
FC000000
FC000000
FC000000
FC000000
FC000000
FC000000
FC000000
FC000000
FC000000
FC000000
FC000000
FC000000
FC000000
FC001F80
FC003F00
FC003F00
FC007E00
FC00FC00
FC00FC00
FC01F800
FC03F000
FC07F000
FC07E000
FC0FC000
FC1FC000
FC1F8000
FC3F0000
FC7F8000
FC7F8000
FCFF8000
FDFFC000
FDFFC000
FFF7C000
FFE7E000
FFC3E000
FFC3E000
FF83F000
FF01F000
FF01F000
FE01F800
FC01F800
FC00FC00
FC00FC00
FC00FC00
FC007E00
FC007E00
FC007E00
FC003F00
FC003F00
FC003F00
FC001F80
FC001F80
FC001F80
FC000FC0
FC000FC0
FC000FC0
00000000
00000000
00000000
00000000
0003E000
0003E000
0007C000
000F8000
000F8000
001F0000
001F0000
003E0000
003C0000
007C0000
00780000
ENDCHAR
STARTCHAR 0139
ENCODING 313
SWIDTH 396 0
DWIDTH 33 0
BBX 27 75 5 0
BITMAP
03E00000
07C00000
07C00000
0F800000
0F000000
1F000000
3E000000
3E000000
7C000000
78000000
F8000000
00000000
00000000
00000000
00000000
00000000
7E000000
7E000000
7E000000
7E000000
7E000000
7E000000
7E000000
7E000000
7E000000
7E000000
7E000000
7E000000
7E000000
7E000000
7E000000
7E000000
7E000000
7E000000
7E000000
7E000000
7E000000
7E000000
7E000000
7E000000
7E000000
7E000000
7E000000
7E000000
7E000000
7E000000
7E000000
7E000000
7E000000
7E000000
7E000000
7E000000
7E000000
7E000000
7E000000
7E000000
7E000000
7E000000
7E000000
7E000000
7E000000
7E000000
7E000000
7E000000
7E000000
7E000000
7E000000
7E000000
7E000000
7E000000
7FFFFFE0
7FFFFFE0
7FFFFFE0
7FFFFFE0
7FFFFFE0
ENDCHAR
STARTCHAR 013A
ENCODING 314
SWIDTH 180 0
DWIDTH 15 0
BBX 10 75 4 0
BITMAP
07C0
07C0
0F80
0F80
1F00
1E00
3E00
3C00
7C00
F800
F000
0000
0000
0000
0000
0000
7C00
7E00
7E00
7E00
7E00
7E00
7E00
7E00
7E00
7E00
7E00
7E00
7E00
7E00
7E00
7E00
7E00
7E00
7E00
7E00
7E00
7E00
7E00
7E00
7E00
7E00
7E00
7E00
7E00
7E00
7E00
7E00
7E00
7E00
7E00
7E00
7E00
7E00
7E00
7E00
7E00
7E00
7E00
7E00
7E00
7E00
7E00
7E00
7E00
7E00
7E00
7E00
7E00
7E00
7E00
7E00
7E00
7E00
7C00
ENDCHAR
STARTCHAR 013B
ENCODING 315
SWIDTH 396 0
DWIDTH 33 0
BBX 26 74 6 -15
BITMAP
FC000000
FC000000
FC000000
FC000000
FC000000
FC000000
FC000000
FC000000
FC000000
FC000000
FC000000
FC000000
FC000000
FC000000
FC000000
FC000000
FC000000
FC000000
FC000000
FC000000
FC000000
FC000000
FC000000
FC000000
FC000000
FC000000
FC000000
FC000000
FC000000
FC000000
FC000000
FC000000
FC000000
FC000000
FC000000
FC000000
FC000000
FC000000
FC000000
FC000000
FC000000
FC000000
FC000000
FC000000
FC000000
FC000000
FC000000
FC000000
FC000000
FC000000
FC000000
FC000000
FC000000
FC000000
FFFFFFC0
FFFFFFC0
FFFFFFC0
FFFFFFC0
FFFFFFC0
00000000
00000000
00000000
00000000
000F8000
001F0000
001F0000
003E0000
003E0000
007C0000
00F80000
00F80000
01F00000
01E00000
03E00000
ENDCHAR
STARTCHAR 013C
ENCODING 316
SWIDTH 180 0
DWIDTH 15 0
BBX 12 74 -1 -15
BITMAP
03E0
03F0
03F0
03F0
03F0
03F0
03F0
03F0
03F0
03F0
03F0
03F0
03F0
03F0
03F0
03F0
03F0
03F0
03F0
03F0
03F0
03F0
03F0
03F0
03F0
03F0
03F0
03F0
03F0
03F0
03F0
03F0
03F0
03F0
03F0
03F0
03F0
03F0
03F0
03F0
03F0
03F0
03F0
03F0
03F0
03F0
03F0
03F0
03F0
03F0
03F0
03F0
03F0
03F0
03F0
03F0
03F0
03F0
03E0
0000
0000
0000
0000
07C0
07C0
0F80
0F80
1F00
3E00
3E00
7C00
7800
F800
F000
ENDCHAR
STARTCHAR 013D
ENCODING 317
SWIDTH 396 0
DWIDTH 33 0
BBX 26 59 6 0
BITMAP
FC00F800
FC01F000
FC03F000
FC03E000
FC07C000
FC07C000
FC0F8000
FC0F0000
FC1F0000
FC1E0000
FC3C0000
FC000000
FC000000
FC000000
FC000000
FC000000
FC000000
FC000000
FC000000
FC000000
FC000000
FC000000
FC000000
FC000000
FC000000
FC000000
FC000000
FC000000
FC000000
FC000000
FC000000
FC000000
FC000000
FC000000
FC000000
FC000000
FC000000
FC000000
FC000000
FC000000
FC000000
FC000000
FC000000
FC000000
FC000000
FC000000
FC000000
FC000000
FC000000
FC000000
FC000000
FC000000
FC000000
FC000000
FFFFFFC0
FFFFFFC0
FFFFFFC0
FFFFFFC0
FFFFFFC0
ENDCHAR
STARTCHAR 013E
ENCODING 318
SWIDTH 336 0
DWIDTH 28 0
BBX 19 59 5 0
BITMAP
F803E0
FC03E0
FC07C0
FC07C0
FC0F80
FC1F00
FC1F00
FC3E00
FC3C00
FC7C00
FC7800
FC0000
FC0000
FC0000
FC0000
FC0000
FC0000
FC0000
FC0000
FC0000
FC0000
FC0000
FC0000
FC0000
FC0000
FC0000
FC0000
FC0000
FC0000
FC0000
FC0000
FC0000
FC0000
FC0000
FC0000
FC0000
FC0000
FC0000
FC0000
FC0000
FC0000
FC0000
FC0000
FC0000
FC0000
FC0000
FC0000
FC0000
FC0000
FC0000
FC0000
FC0000
FC0000
FC0000
FC0000
FC0000
FC0000
FC0000
F80000
ENDCHAR
STARTCHAR 0140
ENCODING 320
SWIDTH 228 0
DWIDTH 19 0
BBX 9 75 5 0
BITMAP
3E00
7F00
FF80
FF80
FF80
FF80
FF80
7F00
3E00
0000
0000
0000
0000
0000
0000
0000
7E00
7E00
7E00
7E00
7E00
7E00
7E00
7E00
7E00
7E00
7E00
7E00
7E00
7E00
7E00
7E00
7E00
7E00
7E00
7E00
7E00
7E00
7E00
7E00
7E00
7E00
7E00
7E00
7E00
7E00
7E00
7E00
7E00
7E00
7E00
7E00
7E00
7E00
7E00
7E00
7E00
7E00
7E00
7E00
7E00
7E00
7E00
7E00
7E00
7E00
7E00
7E00
7E00
7E00
7E00
7E00
7E00
7E00
7E00
ENDCHAR
STARTCHAR 0141
ENCODING 321
SWIDTH 420 0
DWIDTH 35 0
BBX 35 59 -1 0
BITMAP
007E000000
007E000000
007E000000
007E000000
007E000000
007E000000
007E000000
007E000000
007E000000
007E000000
007E000000
007E000000
007E000000
007E000000
007E000000
007E000000
007E000000
007E000000
007E000C00
007E001E00
007E007F00
007E00FF00
007E01FE00
007E07F800
007E0FF000
007E3FE000
007E7F8000
007EFF0000
007FFC0000
007FF80000
007FF00000
007FC00000
007F800000
00FF000000
03FE000000
07FE000000
0FFE000000
3FFE000000
7FFE000000
FF7E000000
FC7E000000
787E000000
207E000000
007E000000
007E000000
007E000000
007E000000
007E000000
007E000000
007E000000
007E000000
007E000000
007E000000
007E000000
007FFFFFE0
007FFFFFE0
007FFFFFE0
007FFFFFE0
007FFFFFE0
ENDCHAR
STARTCHAR 0142
ENCODING 322
SWIDTH 288 0
DWIDTH 24 0
BBX 21 59 2 0
BITMAP
01F800
01F800
01F800
01F800
01F800
01F800
01F800
01F800
01F800
01F800
01F800
01F800
01F800
01F800
01F800
01F800
01F800
01F800
01F800
01F800
01F800
01F800
01F800
01F860
01F8F0
01FBF0
01FFF8
01FFF0
01FFC0
01FF00
07FE00
0FF800
3FF800
FFF800
FFF800
FDF800
71F800
61F800
01F800
01F800
01F800
01F800
01F800
01F800
01F800
01F800
01F800
01F800
01F800
01F800
01F800
01F800
01F800
01F800
01F800
01F800
01F800
01F800
01F800
ENDCHAR
STARTCHAR 0143
ENCODING 323
SWIDTH 492 0
DWIDTH 41 0
BBX 29 76 6 0
BITMAP
0000F800
0000F800
0001F000
0001F000
0003E000
0003C000
0007C000
000F8000
000F8000
001F0000
001E0000
00000000
00000000
00000000
00000000
00000000
00000000
FE0001F8
FE0001F8
FE0001F8
FF0001F8
FF0001F8
FF0001F8
FF8001F8
FF8001F8
FFC001F8
FFC001F8
FFC001F8
FFE001F8
FFE001F8
FFE001F8
FFF001F8
FFF001F8
FDF801F8
FDF801F8
FCF801F8
FCFC01F8
FCFC01F8
FC7C01F8
FC7E01F8
FC7E01F8
FC3E01F8
FC3F01F8
FC1F01F8
FC1F81F8
FC1F81F8
FC0F81F8
FC0FC1F8
FC0FC1F8
FC07C1F8
FC07E1F8
FC03E1F8
FC03F1F8
FC03F1F8
FC01F1F8
FC01F9F8
FC01F9F8
FC00F9F8
FC00FDF8
FC007DF8
FC007FF8
FC007FF8
FC003FF8
FC003FF8
FC003FF8
FC001FF8
FC001FF8
FC000FF8
FC000FF8
FC000FF8
FC0007F8
FC0007F8
FC0007F8
FC0003F8
FC0003F8
FC0001F8
ENDCHAR
STARTCHAR 0144
ENCODING 324
SWIDTH 420 0
DWIDTH 35 0
BBX 26 59 5 0
BITMAP
0001F000
0003E000
0003E000
0007C000
0007C000
000F8000
001F0000
001F0000
003E0000
003C0000
007C0000
00000000
00000000
00000000
00000000
00000000
FC0FE000
FC7FF800
FCFFFC00
FDFFFE00
FFFFFF00
FFE1FF00
FF807F80
FF003F80
FE001F80
FE001F80
FC001FC0
FC000FC0
FC000FC0
FC000FC0
FC000FC0
FC000FC0
FC000FC0
FC000FC0
FC000FC0
FC000FC0
FC000FC0
FC000FC0
FC000FC0
FC000FC0
FC000FC0
FC000FC0
FC000FC0
FC000FC0
FC000FC0
FC000FC0
FC000FC0
FC000FC0
FC000FC0
FC000FC0
FC000FC0
FC000FC0
FC000FC0
FC000FC0
FC000FC0
FC000FC0
FC000FC0
FC000FC0
FC000FC0
ENDCHAR
STARTCHAR 0145
ENCODING 325
SWIDTH 492 0
DWIDTH 41 0
BBX 29 74 6 -15
BITMAP
FE0001F8
FE0001F8
FE0001F8
FF0001F8
FF0001F8
FF0001F8
FF8001F8
FF8001F8
FFC001F8
FFC001F8
FFC001F8
FFE001F8
FFE001F8
FFE001F8
FFF001F8
FFF001F8
FDF801F8
FDF801F8
FCF801F8
FCFC01F8
FCFC01F8
FC7C01F8
FC7E01F8
FC7E01F8
FC3E01F8
FC3F01F8
FC1F01F8
FC1F81F8
FC1F81F8
FC0F81F8
FC0FC1F8
FC0FC1F8
FC07C1F8
FC07E1F8
FC03E1F8
FC03F1F8
FC03F1F8
FC01F1F8
FC01F9F8
FC01F9F8
FC00F9F8
FC00FDF8
FC007DF8
FC007FF8
FC007FF8
FC003FF8
FC003FF8
FC003FF8
FC001FF8
FC001FF8
FC000FF8
FC000FF8
FC000FF8
FC0007F8
FC0007F8
FC0007F8
FC0003F8
FC0003F8
FC0001F8
00000000
00000000
00000000
00000000
0000F800
0001F000
0001F000
0003E000
0003E000
0007C000
00078000
000F8000
001F0000
001E0000
001E0000
ENDCHAR
STARTCHAR 0146
ENCODING 326
SWIDTH 420 0
DWIDTH 35 0
BBX 26 58 5 -15
BITMAP
FC0FE000
FC7FF800
FCFFFC00
FDFFFE00
FFFFFF00
FFE1FF00
FF807F80
FF003F80
FE001F80
FE001F80
FC001FC0
FC000FC0
FC000FC0
FC000FC0
FC000FC0
FC000FC0
FC000FC0
FC000FC0
FC000FC0
FC000FC0
FC000FC0
FC000FC0
FC000FC0
FC000FC0
FC000FC0
FC000FC0
FC000FC0
FC000FC0
FC000FC0
FC000FC0
FC000FC0
FC000FC0
FC000FC0
FC000FC0
FC000FC0
FC000FC0
FC000FC0
FC000FC0
FC000FC0
FC000FC0
FC000FC0
FC000FC0
FC000FC0
00000000
00000000
00000000
00000000
0001E000
0003E000
0007C000
0007C000
000F8000
000F8000
001F0000
001E0000
003E0000
007C0000
00780000
ENDCHAR
STARTCHAR 0147
ENCODING 327
SWIDTH 492 0
DWIDTH 41 0
BBX 29 77 6 0
BITMAP
03C01E00
07E03F00
03F03E00
01F07C00
01F87C00
00F8F800
007DF800
007FF000
003FE000
001FE000
001FC000
00000000
00000000
00000000
00000000
00000000
00000000
00000000
FE0001F8
FE0001F8
FE0001F8
FF0001F8
FF0001F8
FF0001F8
FF8001F8
FF8001F8
FFC001F8
FFC001F8
FFC001F8
FFE001F8
FFE001F8
FFE001F8
FFF001F8
FFF001F8
FDF801F8
FDF801F8
FCF801F8
FCFC01F8
FCFC01F8
FC7C01F8
FC7E01F8
FC7E01F8
FC3E01F8
FC3F01F8
FC1F01F8
FC1F81F8
FC1F81F8
FC0F81F8
FC0FC1F8
FC0FC1F8
FC07C1F8
FC07E1F8
FC03E1F8
FC03F1F8
FC03F1F8
FC01F1F8
FC01F9F8
FC01F9F8
FC00F9F8
FC00FDF8
FC007DF8
FC007FF8
FC007FF8
FC003FF8
FC003FF8
FC003FF8
FC001FF8
FC001FF8
FC000FF8
FC000FF8
FC000FF8
FC0007F8
FC0007F8
FC0007F8
FC0003F8
FC0003F8
FC0001F8
ENDCHAR
STARTCHAR 0148
ENCODING 328
SWIDTH 420 0
DWIDTH 35 0
BBX 26 60 5 0
BITMAP
07003C00
0F807C00
07C0FC00
07E0F800
03E1F000
01F3F000
01F3E000
00FFC000
00FFC000
007F8000
003F8000
00000000
00000000
00000000
00000000
00000000
00000000
FC0FE000
FC7FF800
FCFFFC00
FDFFFE00
FFFFFF00
FFE1FF00
FF807F80
FF003F80
FE001F80
FE001F80
FC001FC0
FC000FC0
FC000FC0
FC000FC0
FC000FC0
FC000FC0
FC000FC0
FC000FC0
FC000FC0
FC000FC0
FC000FC0
FC000FC0
FC000FC0
FC000FC0
FC000FC0
FC000FC0
FC000FC0
FC000FC0
FC000FC0
FC000FC0
FC000FC0
FC000FC0
FC000FC0
FC000FC0
FC000FC0
FC000FC0
FC000FC0
FC000FC0
FC000FC0
FC000FC0
FC000FC0
FC000FC0
FC000FC0
ENDCHAR
STARTCHAR 014A
ENCODING 330
SWIDTH 492 0
DWIDTH 41 0
BBX 29 72 6 -13
BITMAP
FE0001F8
FE0001F8
FE0001F8
FF0001F8
FF0001F8
FF0001F8
FF8001F8
FF8001F8
FFC001F8
FFC001F8
FFC001F8
FFE001F8
FFE001F8
FFE001F8
FFF001F8
FFF001F8
FDF801F8
FDF801F8
FCF801F8
FCFC01F8
FCFC01F8
FC7C01F8
FC7E01F8
FC7E01F8
FC3E01F8
FC3F01F8
FC1F01F8
FC1F81F8
FC1F81F8
FC0F81F8
FC0FC1F8
FC0FC1F8
FC07C1F8
FC07E1F8
FC03E1F8
FC03F1F8
FC03F1F8
FC01F1F8
FC01F9F8
FC01F9F8
FC00F9F8
FC00FDF8
FC007DF8
FC007FF8
FC007FF8
FC003FF8
FC003FF8
FC003FF8
FC001FF8
FC001FF8
FC000FF8
FC000FF8
FC000FF8
FC0007F8
FC0007F8
FC0007F8
FC0003F8
FC0003F8
FC0001F8
000001F8
000001F8
000001F8
000001F8
000001F8
000003F8
000003F8
00000FF0
00007FF0
00007FF0
00007FE0
00007F80
00007E00
ENDCHAR
STARTCHAR 014B
ENCODING 331
SWIDTH 420 0
DWIDTH 35 0
BBX 26 57 5 -14
BITMAP
FC0FE000
FC7FF800
FCFFFC00
FDFFFE00
FFFFFF00
FFE1FF00
FF807F80
FF003F80
FE001F80
FE001F80
FC001FC0
FC000FC0
FC000FC0
FC000FC0
FC000FC0
FC000FC0
FC000FC0
FC000FC0
FC000FC0
FC000FC0
FC000FC0
FC000FC0
FC000FC0
FC000FC0
FC000FC0
FC000FC0
FC000FC0
FC000FC0
FC000FC0
FC000FC0
FC000FC0
FC000FC0
FC000FC0
FC000FC0
FC000FC0
FC000FC0
FC000FC0
FC000FC0
FC000FC0
FC000FC0
FC000FC0
FC000FC0
FC000FC0
00000FC0
00000FC0
00000FC0
00000FC0
00001FC0
00001F80
00001F80
00003F80
0000FF80
0007FF00
0007FF00
0007FE00
0007F800
0007E000
ENDCHAR
STARTCHAR 014C
ENCODING 332
SWIDTH 456 0
DWIDTH 38 0
BBX 28 71 5 -1
BITMAP
07FFFC00
07FFFC00
07FFFC00
07FFFC00
00000000
00000000
00000000
00000000
00000000
00000000
00000000
003FC000
01FFF800
07FFFE00
0FFFFF00
1FFFFF80
3FF0FFC0
3F801FC0
7F000FE0
7E0007E0
FE0007F0
FC0003F0
FC0003F0
FC0003F0
FC0003F0
FC0003F0
FC0003F0
FC0003F0
FC0003F0
FC0003F0
FC0003F0
FC0003F0
FC0003F0
FC0003F0
FC0003F0
FC0003F0
FC0003F0
FC0003F0
FC0003F0
FC0003F0
FC0003F0
FC0003F0
FC0003F0
FC0003F0
FC0003F0
FC0003F0
FC0003F0
FC0003F0
FC0003F0
FC0003F0
FC0003F0
FC0003F0
FC0003F0
FC0003F0
FC0003F0
FC0003F0
FC0003F0
FC0003F0
FC0003F0
FC0003F0
FC0003F0
FE0007F0
7F000FE0
7F801FE0
3FC03FC0
1FFFFF80
0FFFFF00
07FFFE00
03FFFC00
00FFF000
00060000
ENDCHAR
STARTCHAR 014D
ENCODING 333
SWIDTH 420 0
DWIDTH 35 0
BBX 26 55 4 -1
BITMAP
07FFFC00
07FFFC00
07FFFC00
07FFFC00
00000000
00000000
00000000
00000000
00000000
00000000
00000000
007F8000
01FFF000
07FFFC00
0FFFFE00
1FFFFF00
3FE1FF00
3F807F80
7F003F80
7E001FC0
7E000FC0
FC000FC0
FC000FC0
FC000FC0
FC000FC0
FC000FC0
FC000FC0
FC000FC0
FC000FC0
FC000FC0
FC000FC0
FC000FC0
FC000FC0
FC000FC0
FC000FC0
FC000FC0
FC000FC0
FC000FC0
FC000FC0
FC000FC0
FC000FC0
FC000FC0
FC000FC0
FC000FC0
FE000FC0
7E000FC0
7F001FC0
7F003F80
3FC07F80
3FFFFF00
1FFFFE00
0FFFFC00
03FFF800
01FFE000
00040000
ENDCHAR
STARTCHAR 014F
ENCODING 335
SWIDTH 420 0
DWIDTH 35 0
BBX 26 59 4 -1
BITMAP
0F003C00
07003C00
07803C00
07807800
03C07800
03E1F000
01FFE000
00FFC000
003F0000
00000000
00000000
00000000
00000000
00000000
00000000
007F8000
01FFF000
07FFFC00
0FFFFE00
1FFFFF00
3FE1FF00
3F807F80
7F003F80
7E001FC0
7E000FC0
FC000FC0
FC000FC0
FC000FC0
FC000FC0
FC000FC0
FC000FC0
FC000FC0
FC000FC0
FC000FC0
FC000FC0
FC000FC0
FC000FC0
FC000FC0
FC000FC0
FC000FC0
FC000FC0
FC000FC0
FC000FC0
FC000FC0
FC000FC0
FC000FC0
FC000FC0
FC000FC0
FE000FC0
7E000FC0
7F001FC0
7F003F80
3FC07F80
3FFFFF00
1FFFFE00
0FFFFC00
03FFF800
01FFE000
00040000
ENDCHAR
STARTCHAR 0150
ENCODING 336
SWIDTH 456 0
DWIDTH 38 0
BBX 28 76 5 -1
BITMAP
000F83E0
001F03E0
001F07C0
003E07C0
003E0F80
007C0F80
00FC1F00
00F81F00
01F83E00
01F07C00
01F07C00
00000000
00000000
00000000
00000000
00000000
003FC000
01FFF800
07FFFE00
0FFFFF00
1FFFFF80
3FF0FFC0
3F801FC0
7F000FE0
7E0007E0
FE0007F0
FC0003F0
FC0003F0
FC0003F0
FC0003F0
FC0003F0
FC0003F0
FC0003F0
FC0003F0
FC0003F0
FC0003F0
FC0003F0
FC0003F0
FC0003F0
FC0003F0
FC0003F0
FC0003F0
FC0003F0
FC0003F0
FC0003F0
FC0003F0
FC0003F0
FC0003F0
FC0003F0
FC0003F0
FC0003F0
FC0003F0
FC0003F0
FC0003F0
FC0003F0
FC0003F0
FC0003F0
FC0003F0
FC0003F0
FC0003F0
FC0003F0
FC0003F0
FC0003F0
FC0003F0
FC0003F0
FC0003F0
FE0007F0
7F000FE0
7F801FE0
3FC03FC0
1FFFFF80
0FFFFF00
07FFFE00
03FFFC00
00FFF000
00060000
ENDCHAR
STARTCHAR 0151
ENCODING 337
SWIDTH 420 0
DWIDTH 35 0
BBX 26 60 4 -1
BITMAP
001F03C0
003F07C0
003E0FC0
007E0F80
007C1F00
00FC1F00
00F83E00
01F03E00
01F07C00
03E07C00
03E0F800
00000000
00000000
00000000
00000000
00000000
007F8000
01FFF000
07FFFC00
0FFFFE00
1FFFFF00
3FE1FF00
3F807F80
7F003F80
7E001FC0
7E000FC0
FC000FC0
FC000FC0
FC000FC0
FC000FC0
FC000FC0
FC000FC0
FC000FC0
FC000FC0
FC000FC0
FC000FC0
FC000FC0
FC000FC0
FC000FC0
FC000FC0
FC000FC0
FC000FC0
FC000FC0
FC000FC0
FC000FC0
FC000FC0
FC000FC0
FC000FC0
FC000FC0
FE000FC0
7E000FC0
7F001FC0
7F003F80
3FC07F80
3FFFFF00
1FFFFE00
0FFFFC00
03FFF800
01FFE000
00040000
ENDCHAR
STARTCHAR 0152
ENCODING 338
SWIDTH 684 0
DWIDTH 57 0
BBX 49 60 5 -1
BITMAP
007F81FFFFFF80
01FFE3FFFFFF80
07FFFBFFFFFF80
0FFFFFFFFFFF80
1FFFFFFFFFFF80
3FF0FFF0000000
3F801FF0000000
7F000FF0000000
7E0007F0000000
FE0007F0000000
FC0003F0000000
FC0003F0000000
FC0003F0000000
FC0003F0000000
FC0003F0000000
FC0003F0000000
FC0003F0000000
FC0003F0000000
FC0003F0000000
FC0003F0000000
FC0003F0000000
FC0003F0000000
FC0003F0000000
FC0003F0000000
FC0003F0000000
FC0003F0000000
FC0003F0000000
FC0003FFFFC000
FC0003FFFFC000
FC0003FFFFC000
FC0003FFFFC000
FC0003FFFFC000
FC0003F0000000
FC0003F0000000
FC0003F0000000
FC0003F0000000
FC0003F0000000
FC0003F0000000
FC0003F0000000
FC0003F0000000
FC0003F0000000
FC0003F0000000
FC0003F0000000
FC0003F0000000
FC0003F0000000
FC0003F0000000
FC0003F0000000
FC0003F0000000
FC0003F0000000
FC0003F0000000
FE0007F0000000
7F000FF0000000
7F801FF0000000
3FC03FF0000000
1FFFFFFFFFFF80
1FFFFFFFFFFF80
0FFFFBFFFFFF80
03FFF3FFFFFF80
00FFC1FFFFFF80
000C0000000000
ENDCHAR
STARTCHAR 0153
ENCODING 339
SWIDTH 660 0
DWIDTH 55 0
BBX 47 44 4 -1
BITMAP
007F8001FC00
01FFE00FFF80
07FFF81FFFC0
0FFFFC3FFFF0
1FFFFE7FFFF0
3FE1FEFF0FF8
3F807FFC03FC
7F001FF801FC
7E001FF000FE
7E000FF0007E
FC000FE0007E
FC000FE0007E
FC000FE0007E
FC000FE0007E
FC000FE0007E
FC000FE0007E
FC000FE0007E
FC000FE0007E
FC000FE0007E
FC000FFFFFFE
FC000FFFFFFE
FC000FFFFFFE
FC000FFFFFFE
FC000FE00000
FC000FE00000
FC000FE00000
FC000FE00000
FC000FE00000
FC000FE00000
FC000FE00000
FC000FE00000
FC000FE00000
FC000FE0007E
FE000FE0007E
7E000FF000FC
7F001FF800FC
7F803FF801FC
3FC07FFE07F8
3FFFFEFFFFF8
1FFFFC7FFFF0
0FFFF83FFFE0
03FFF01FFFC0
01FFC007FF00
000400002000
ENDCHAR
STARTCHAR 0154
ENCODING 340
SWIDTH 444 0
DWIDTH 37 0
BBX 28 75 6 0
BITMAP
0003E000
0003E000
0007C000
0007C000
000F8000
000F0000
001F0000
001E0000
003E0000
007C0000
00780000
00000000
00000000
00000000
00000000
00000000
FFFFC000
FFFFF800
FFFFFC00
FFFFFF00
FFFFFF00
FC00FF80
FC003FC0
FC001FC0
FC000FE0
FC0007E0
FC0007E0
FC0003F0
FC0003F0
FC0003F0
FC0003F0
FC0003F0
FC0003F0
FC0003F0
FC0003F0
FC0003F0
FC0003F0
FC0007F0
FC0007E0
FC000FE0
FC000FC0
FC003FC0
FC007F80
FFFFFF80
FFFFFF00
FFFFFE00
FFFFF800
FFFFE000
FC03F000
FC03F000
FC01F000
FC01F800
FC01F800
FC00F800
FC00FC00
FC00FC00
FC007C00
FC007E00
FC007E00
FC007E00
FC003F00
FC003F00
FC003F00
FC001F80
FC001F80
FC001F80
FC000FC0
FC000FC0
FC000FC0
FC0007E0
FC0007E0
FC0007E0
FC0003F0
FC0003F0
FC0003F0
ENDCHAR
STARTCHAR 0155
ENCODING 341
SWIDTH 288 0
DWIDTH 24 0
BBX 18 59 5 0
BITMAP
001F00
001F00
003E00
003E00
007C00
00F800
00F800
01F000
01E000
03E000
03C000
000000
000000
000000
000000
000000
FC1F80
FC3FC0
FC7FC0
FCFFC0
FDFFC0
FDFF80
FFE080
FF8000
FF0000
FF0000
FE0000
FE0000
FC0000
FC0000
FC0000
FC0000
FC0000
FC0000
FC0000
FC0000
FC0000
FC0000
FC0000
FC0000
FC0000
FC0000
FC0000
FC0000
FC0000
FC0000
FC0000
FC0000
FC0000
FC0000
FC0000
FC0000
FC0000
FC0000
FC0000
FC0000
FC0000
FC0000
FC0000
ENDCHAR
STARTCHAR 0156
ENCODING 342
SWIDTH 444 0
DWIDTH 37 0
BBX 28 74 6 -15
BITMAP
FFFFC000
FFFFF800
FFFFFC00
FFFFFF00
FFFFFF00
FC00FF80
FC003FC0
FC001FC0
FC000FE0
FC0007E0
FC0007E0
FC0003F0
FC0003F0
FC0003F0
FC0003F0
FC0003F0
FC0003F0
FC0003F0
FC0003F0
FC0003F0
FC0003F0
FC0007F0
FC0007E0
FC000FE0
FC000FC0
FC003FC0
FC007F80
FFFFFF80
FFFFFF00
FFFFFE00
FFFFF800
FFFFE000
FC03F000
FC03F000
FC01F000
FC01F800
FC01F800
FC00F800
FC00FC00
FC00FC00
FC007C00
FC007E00
FC007E00
FC007E00
FC003F00
FC003F00
FC003F00
FC001F80
FC001F80
FC001F80
FC000FC0
FC000FC0
FC000FC0
FC0007E0
FC0007E0
FC0007E0
FC0003F0
FC0003F0
FC0003F0
00000000
00000000
00000000
00000000
0001F000
0003E000
0003E000
0007C000
0007C000
000F8000
001F0000
001F0000
003E0000
003C0000
007C0000
ENDCHAR
STARTCHAR 0157
ENCODING 343
SWIDTH 288 0
DWIDTH 24 0
BBX 24 58 -1 -15
BITMAP
03F07E
03F0FF
03F1FF
03F3FF
03F7FF
03F7FE
03FF82
03FE00
03FC00
03FC00
03F800
03F800
03F000
03F000
03F000
03F000
03F000
03F000
03F000
03F000
03F000
03F000
03F000
03F000
03F000
03F000
03F000
03F000
03F000
03F000
03F000
03F000
03F000
03F000
03F000
03F000
03F000
03F000
03F000
03F000
03F000
03F000
03F000
000000
000000
000000
000000
03E000
07C000
07C000
0F8000
0F0000
1F0000
3E0000
3E0000
7C0000
780000
F80000
ENDCHAR
STARTCHAR 0158
ENCODING 344
SWIDTH 444 0
DWIDTH 37 0
BBX 28 76 6 0
BITMAP
0F003800
0F80FC00
0FC0F800
07C1F800
03E1F000
03E3E000
01F3E000
01FFC000
00FF8000
007F8000
007F0000
00000000
00000000
00000000
00000000
00000000
00000000
FFFFC000
FFFFF800
FFFFFC00
FFFFFF00
FFFFFF00
FC00FF80
FC003FC0
FC001FC0
FC000FE0
FC0007E0
FC0007E0
FC0003F0
FC0003F0
FC0003F0
FC0003F0
FC0003F0
FC0003F0
FC0003F0
FC0003F0
FC0003F0
FC0003F0
FC0007F0
FC0007E0
FC000FE0
FC000FC0
FC003FC0
FC007F80
FFFFFF80
FFFFFF00
FFFFFE00
FFFFF800
FFFFE000
FC03F000
FC03F000
FC01F000
FC01F800
FC01F800
FC00F800
FC00FC00
FC00FC00
FC007C00
FC007E00
FC007E00
FC007E00
FC003F00
FC003F00
FC003F00
FC001F80
FC001F80
FC001F80
FC000FC0
FC000FC0
FC000FC0
FC0007E0
FC0007E0
FC0007E0
FC0003F0
FC0003F0
FC0003F0
ENDCHAR
STARTCHAR 0159
ENCODING 345
SWIDTH 288 0
DWIDTH 24 0
BBX 19 60 5 0
BITMAP
7803C0
FC07E0
7C07C0
3E0F80
3F1F80
1F1F00
0FBE00
0FFE00
07FC00
07FC00
03F800
000000
000000
000000
000000
000000
000000
FC1F80
FC3FC0
FC7FC0
FCFFC0
FDFFC0
FDFF80
FFE080
FF8000
FF0000
FF0000
FE0000
FE0000
FC0000
FC0000
FC0000
FC0000
FC0000
FC0000
FC0000
FC0000
FC0000
FC0000
FC0000
FC0000
FC0000
FC0000
FC0000
FC0000
FC0000
FC0000
FC0000
FC0000
FC0000
FC0000
FC0000
FC0000
FC0000
FC0000
FC0000
FC0000
FC0000
FC0000
FC0000
ENDCHAR
STARTCHAR 015A
ENCODING 346
SWIDTH 420 0
DWIDTH 35 0
BBX 28 76 3 -1
BITMAP
0000F800
0001F000
0001F000
0003E000
0007C000
0007C000
000F8000
000F0000
001F0000
001E0000
003E0000
00000000
00000000
00000000
00000000
00000000
003FC000
01FFF800
03FFFC00
0FFFFE00
0FFFFF00
1FF0FF80
3FC03FC0
3F001FC0
7F000FE0
7E0007E0
7E0007E0
7C0003F0
FC0003F0
FC0003F0
FC0003F0
FC0003F0
7C0003F0
7E0003F0
7E000000
7F000000
3F000000
3F800000
1FC00000
1FE00000
0FF00000
07FC0000
03FE0000
01FF0000
00FFC000
007FE000
001FF000
000FFC00
0007FE00
0001FF00
0000FF80
00007F80
00003FC0
00001FE0
00000FE0
000007F0
000003F0
000003F0
7C0003F0
FC0003F0
FC0003F0
FC0003F0
7C0003F0
7E0003F0
7E0003F0
7E0003F0
7F0007E0
3F000FE0
3F801FC0
1FE03FC0
1FFFFF80
0FFFFF00
07FFFE00
01FFFC00
007FF000
00020000
ENDCHAR
STARTCHAR 015B
ENCODING 347
SWIDTH 372 0
DWIDTH 31 0
BBX 26 59 3 0
BITMAP
0001F000
0003E000
0003E000
0007C000
00078000
000F8000
001F0000
001F0000
003E0000
003C0000
007C0000
00000000
00000000
00000000
00000000
00000000
007F8000
03FFF000
07FFF800
0FFFFC00
1FFFFE00
3FE1FF00
3F807F00
7F003F80
7E001F80
7E001F80
7E000F80
7C000F80
7C000F80
7E000000
7E000000
7F000000
3F800000
3FE00000
1FF80000
0FFE0000
07FF8000
01FFE000
007FF800
001FFC00
0003FE00
0000FF00
00007F00
00003F80
00001F80
00000FC0
7C000FC0
FC000FC0
FC000FC0
FC000FC0
7E001F80
7F003F80
7F807F80
3FE1FF00
3FFFFF00
1FFFFE00
07FFFC00
03FFF000
007FC000
ENDCHAR
STARTCHAR 015C
ENCODING 348
SWIDTH 420 0
DWIDTH 35 0
BBX 28 77 3 -1
BITMAP
001F0000
003FC000
007FC000
007FE000
00FBE000
00F9F000
01F1F800
03F0F800
03E07C00
07C07E00
07C03E00
00000000
00000000
00000000
00000000
00000000
00000000
003FC000
01FFF800
03FFFC00
0FFFFE00
0FFFFF00
1FF0FF80
3FC03FC0
3F001FC0
7F000FE0
7E0007E0
7E0007E0
7C0003F0
FC0003F0
FC0003F0
FC0003F0
FC0003F0
7C0003F0
7E0003F0
7E000000
7F000000
3F000000
3F800000
1FC00000
1FE00000
0FF00000
07FC0000
03FE0000
01FF0000
00FFC000
007FE000
001FF000
000FFC00
0007FE00
0001FF00
0000FF80
00007F80
00003FC0
00001FE0
00000FE0
000007F0
000003F0
000003F0
7C0003F0
FC0003F0
FC0003F0
FC0003F0
7C0003F0
7E0003F0
7E0003F0
7E0003F0
7F0007E0
3F000FE0
3F801FC0
1FE03FC0
1FFFFF80
0FFFFF00
07FFFE00
01FFFC00
007FF000
00020000
ENDCHAR
STARTCHAR 015D
ENCODING 349
SWIDTH 372 0
DWIDTH 31 0
BBX 26 60 3 0
BITMAP
003E0000
007F8000
00FF8000
00FFC000
01F7C000
01F3E000
03E1F000
07E1F000
07C0F800
0FC0FC00
0F807C00
00000000
00000000
00000000
00000000
00000000
00000000
007F8000
03FFF000
07FFF800
0FFFFC00
1FFFFE00
3FE1FF00
3F807F00
7F003F80
7E001F80
7E001F80
7E000F80
7C000F80
7C000F80
7E000000
7E000000
7F000000
3F800000
3FE00000
1FF80000
0FFE0000
07FF8000
01FFE000
007FF800
001FFC00
0003FE00
0000FF00
00007F00
00003F80
00001F80
00000FC0
7C000FC0
FC000FC0
FC000FC0
FC000FC0
7E001F80
7F003F80
7F807F80
3FE1FF00
3FFFFF00
1FFFFE00
07FFFC00
03FFF000
007FC000
ENDCHAR
STARTCHAR 015E
ENCODING 350
SWIDTH 420 0
DWIDTH 35 0
BBX 28 75 3 -16
BITMAP
003FC000
01FFF800
03FFFC00
0FFFFE00
0FFFFF00
1FF0FF80
3FC03FC0
3F001FC0
7F000FE0
7E0007E0
7E0007E0
7E0003F0
FC0003F0
FC0003F0
FC0003F0
FC0003F0
7C0003F0
7E0003F0
7E000000
7F000000
3F000000
3F800000
1FC00000
1FE00000
0FF00000
07FC0000
03FE0000
01FF0000
00FFC000
007FE000
003FF000
000FF800
0007FC00
0003FF00
0000FF00
00007F80
00003FC0
00001FE0
00000FE0
000007F0
000007F0
000003F0
7C0003F0
FC0003F0
FC0003F0
FC0003F0
7C0003F0
7C0003F0
7E0003F0
7E0003F0
7F0007E0
3F0007E0
3F800FE0
1FC03FC0
1FF8FF80
0FFFFF80
07FFFF00
03FFFC00
00FFF800
001FC000
00078000
0003C000
0003E000
0001E000
0000F000
0000F000
0000F000
0000F000
0000F000
0000F000
0001F000
001FF000
001FE000
003FC000
001F0000
ENDCHAR
STARTCHAR 015F
ENCODING 351
SWIDTH 372 0
DWIDTH 31 0
BBX 26 59 3 -16
BITMAP
007F8000
03FFF000
07FFF800
0FFFFC00
1FFFFE00
3FE1FF00
3F807F00
7F003F80
7E001F80
7E001F80
7E000F80
7C000F80
7C000F80
7E000000
7E000000
7F000000
3F800000
3FC00000
1FF00000
1FFC0000
0FFF8000
03FFE000
01FFF000
007FFC00
000FFE00
0003FF00
0000FF00
00007F80
00003F80
00001F80
00000FC0
7C000FC0
FC000FC0
FC000FC0
FC000FC0
7E001F80
7E001F80
7F003F80
3FC0FF00
1FFFFE00
1FFFFC00
07FFF800
03FFE000
003F0000
000F0000
00078000
0007C000
0003C000
0003E000
0001E000
0001E000
0001E000
0001E000
0003E000
0003E000
003FE000
003FC000
007F8000
003E0000
ENDCHAR
STARTCHAR 0160
ENCODING 352
SWIDTH 420 0
DWIDTH 35 0
BBX 28 77 3 -1
BITMAP
07801E00
07C03E00
03E07C00
03F07C00
01F0F800
01F9F800
00F9F000
007FE000
007FE000
003FC000
001F8000
00000000
00000000
00000000
00000000
00000000
00000000
003FC000
01FFF800
03FFFC00
0FFFFE00
0FFFFF00
1FF0FF80
3FC03FC0
3F001FC0
7F000FE0
7E0007E0
7E0007E0
7C0003F0
FC0003F0
FC0003F0
FC0003F0
FC0003F0
7C0003F0
7E0003F0
7E000000
7F000000
3F000000
3F800000
1FC00000
1FE00000
0FF00000
07FC0000
03FE0000
01FF0000
00FFC000
007FE000
001FF000
000FFC00
0007FE00
0001FF00
0000FF80
00007F80
00003FC0
00001FE0
00000FE0
000007F0
000003F0
000003F0
7C0003F0
FC0003F0
FC0003F0
FC0003F0
7C0003F0
7E0003F0
7E0003F0
7E0003F0
7F0007E0
3F000FE0
3F801FC0
1FE03FC0
1FFFFF80
0FFFFF00
07FFFE00
01FFFC00
007FF000
00020000
ENDCHAR
STARTCHAR 0161
ENCODING 353
SWIDTH 372 0
DWIDTH 31 0
BBX 26 60 3 0
BITMAP
0F003C00
0F807C00
07C0F800
07E0F800
03E1F000
03F3F000
01F3E000
00FFC000
00FFC000
007F8000
003F0000
00000000
00000000
00000000
00000000
00000000
00000000
007F8000
03FFF000
07FFF800
0FFFFC00
1FFFFE00
3FE1FF00
3F807F00
7F003F80
7E001F80
7E001F80
7E000F80
7C000F80
7C000F80
7E000000
7E000000
7F000000
3F800000
3FE00000
1FF80000
0FFE0000
07FF8000
01FFE000
007FF800
001FFC00
0003FE00
0000FF00
00007F00
00003F80
00001F80
00000FC0
7C000FC0
FC000FC0
FC000FC0
FC000FC0
7E001F80
7F003F80
7F807F80
3FE1FF00
3FFFFF00
1FFFFE00
07FFFC00
03FFF000
007FC000
ENDCHAR
STARTCHAR 0162
ENCODING 354
SWIDTH 420 0
DWIDTH 35 0
BBX 29 75 3 -16
BITMAP
FFFFFFF8
FFFFFFF8
FFFFFFF8
FFFFFFF8
FFFFFFF8
001F8000
001F8000
001F8000
001F8000
001F8000
001F8000
001F8000
001F8000
001F8000
001F8000
001F8000
001F8000
001F8000
001F8000
001F8000
001F8000
001F8000
001F8000
001F8000
001F8000
001F8000
001F8000
001F8000
001F8000
001F8000
001F8000
001F8000
001F8000
001F8000
001F8000
001F8000
001F8000
001F8000
001F8000
001F8000
001F8000
001F8000
001F8000
001F8000
001F8000
001F8000
001F8000
001F8000
001F8000
001F8000
001F8000
001F8000
001F8000
001F8000
001F8000
001F8000
001F8000
001F8000
001F8000
0003C000
0003E000
0001E000
0000F000
0000F800
00007800
00007800
00007800
00007C00
00007C00
00007800
0000F800
000FF800
000FF000
000FF000
000FC000
ENDCHAR
STARTCHAR 0163
ENCODING 355
SWIDTH 264 0
DWIDTH 22 0
BBX 18 67 2 -14
BITMAP
07C000
07C000
07C000
07C000
07C000
07C000
07C000
07C000
07C000
07C000
FFFFC0
FFFFC0
FFFFC0
FFFFC0
07C000
07C000
07C000
07C000
07C000
07C000
07C000
07C000
07C000
07C000
07C000
07C000
07C000
07C000
07C000
07C000
07C000
07C000
07C000
07C000
07C000
07C000
07C000
07C000
07C000
07C000
07C000
07C000
07E000
07E000
07E000
07E000
07F000
07FC00
03FF80
03FFC0
01FFC0
00FFC0
003F80
001E00
001F00
000F00
000F80
000780
000780
000780
000780
000780
000F80
00FF80
00FF00
01FE00
00F800
ENDCHAR
STARTCHAR 0164
ENCODING 356
SWIDTH 420 0
DWIDTH 35 0
BBX 29 76 3 0
BITMAP
03C01E00
07E03F00
03E03E00
01F07C00
01F8FC00
00F8F800
007DF000
007FF000
003FE000
003FE000
001FC000
00000000
00000000
00000000
00000000
00000000
00000000
FFFFFFF8
FFFFFFF8
FFFFFFF8
FFFFFFF8
FFFFFFF8
001F8000
001F8000
001F8000
001F8000
001F8000
001F8000
001F8000
001F8000
001F8000
001F8000
001F8000
001F8000
001F8000
001F8000
001F8000
001F8000
001F8000
001F8000
001F8000
001F8000
001F8000
001F8000
001F8000
001F8000
001F8000
001F8000
001F8000
001F8000
001F8000
001F8000
001F8000
001F8000
001F8000
001F8000
001F8000
001F8000
001F8000
001F8000
001F8000
001F8000
001F8000
001F8000
001F8000
001F8000
001F8000
001F8000
001F8000
001F8000
001F8000
001F8000
001F8000
001F8000
001F8000
001F8000
ENDCHAR
STARTCHAR 0165
ENCODING 357
SWIDTH 264 0
DWIDTH 22 0
BBX 23 59 2 0
BITMAP
00003E
00007C
0000FC
0000F8
0001F0
0001F0
07C3E0
07C3C0
07C7C0
07C780
07CF00
07C000
07C000
07C000
07C000
07C000
FFFFC0
FFFFC0
FFFFC0
FFFFC0
07C000
07C000
07C000
07C000
07C000
07C000
07C000
07C000
07C000
07C000
07C000
07C000
07C000
07C000
07C000
07C000
07C000
07C000
07C000
07C000
07C000
07C000
07C000
07C000
07C000
07C000
07C000
07C000
07E000
07E000
07E000
07E000
07F000
07FC00
07FF80
03FFC0
01FFC0
00FFC0
003F80
ENDCHAR
STARTCHAR 0166
ENCODING 358
SWIDTH 420 0
DWIDTH 35 0
BBX 29 59 3 0
BITMAP
FFFFFFF8
FFFFFFF8
FFFFFFF8
FFFFFFF8
FFFFFFF8
001F8000
001F8000
001F8000
001F8000
001F8000
001F8000
001F8000
001F8000
001F8000
001F8000
001F8000
001F8000
001F8000
001F8000
001F8000
001F8000
001F8000
001F8000
001F8000
1FFFFF80
1FFFFF80
1FFFFF80
1FFFFF80
001F8000
001F8000
001F8000
001F8000
001F8000
001F8000
001F8000
001F8000
001F8000
001F8000
001F8000
001F8000
001F8000
001F8000
001F8000
001F8000
001F8000
001F8000
001F8000
001F8000
001F8000
001F8000
001F8000
001F8000
001F8000
001F8000
001F8000
001F8000
001F8000
001F8000
001F8000
ENDCHAR
STARTCHAR 0167
ENCODING 359
SWIDTH 264 0
DWIDTH 22 0
BBX 18 53 2 0
BITMAP
07C000
07C000
07C000
07C000
07C000
07C000
07C000
07C000
07C000
07C000
FFFFC0
FFFFC0
FFFFC0
FFFFC0
07C000
07C000
07C000
07C000
07C000
07C000
07C000
07C000
07C000
07C000
FFFFC0
FFFFC0
FFFFC0
FFFFC0
07C000
07C000
07C000
07C000
07C000
07C000
07C000
07C000
07C000
07C000
07C000
07C000
07C000
07C000
07C000
07E000
07E000
07E000
07F000
07FC00
07FF80
03FFC0
01FFC0
00FFC0
003F80
ENDCHAR
STARTCHAR 0168
ENCODING 360
SWIDTH 480 0
DWIDTH 40 0
BBX 29 76 5 -1
BITMAP
007C0000
01FE0080
03FF81E0
07FFC3C0
07C3FFC0
0381FF80
0100FF00
00003C00
00000000
00000000
00000000
00000000
00000000
00000000
00000000
00000000
7C0001F8
FC0001F8
FC0001F8
FC0001F8
FC0001F8
FC0001F8
FC0001F8
FC0001F8
FC0001F8
FC0001F8
FC0001F8
FC0001F8
FC0001F8
FC0001F8
FC0001F8
FC0001F8
FC0001F8
FC0001F8
FC0001F8
FC0001F8
FC0001F8
FC0001F8
FC0001F8
FC0001F8
FC0001F8
FC0001F8
FC0001F8
FC0001F8
FC0001F8
FC0001F8
FC0001F8
FC0001F8
FC0001F8
FC0001F8
FC0001F8
FC0001F8
FC0001F8
FC0001F8
FC0001F8
FC0001F8
FC0001F8
FC0001F8
FC0001F8
FC0001F8
FC0001F8
7C0001F8
7E0001F8
7E0001F8
7E0001F8
7F0003F0
3F0003F0
3F8007F0
1FC00FE0
1FE03FC0
0FFFFFC0
07FFFF80
03FFFF00
01FFFC00
007FF000
00030000
ENDCHAR
STARTCHAR 0169
ENCODING 361
SWIDTH 420 0
DWIDTH 35 0
BBX 25 60 5 -1
BITMAP
03E00000
07F80600
0FFC0F00
1FFF1F00
1E1FFE00
1C07FE00
0803FC00
0000F000
00000000
00000000
00000000
00000000
00000000
00000000
00000000
00000000
FC001F80
FC001F80
FC001F80
FC001F80
FC001F80
FC001F80
FC001F80
FC001F80
FC001F80
FC001F80
FC001F80
FC001F80
FC001F80
FC001F80
FC001F80
FC001F80
FC001F80
FC001F80
FC001F80
FC001F80
FC001F80
FC001F80
FC001F80
FC001F80
FC001F80
FC001F80
FC001F80
FC001F80
FC001F80
FC001F80
FC001F80
FC001F80
FC001F80
FC001F80
FC003F80
FE003F80
FF007F80
7F80FF80
7FFFFF80
3FFFFF80
1FFFDF80
0FFF9F80
03FE1F80
00200000
ENDCHAR
STARTCHAR 016A
ENCODING 362
SWIDTH 480 0
DWIDTH 40 0
BBX 29 71 5 -1
BITMAP
03FFFE00
03FFFE00
03FFFE00
03FFFE00
00000000
00000000
00000000
00000000
00000000
00000000
00000000
7C0001F8
FC0001F8
FC0001F8
FC0001F8
FC0001F8
FC0001F8
FC0001F8
FC0001F8
FC0001F8
FC0001F8
FC0001F8
FC0001F8
FC0001F8
FC0001F8
FC0001F8
FC0001F8
FC0001F8
FC0001F8
FC0001F8
FC0001F8
FC0001F8
FC0001F8
FC0001F8
FC0001F8
FC0001F8
FC0001F8
FC0001F8
FC0001F8
FC0001F8
FC0001F8
FC0001F8
FC0001F8
FC0001F8
FC0001F8
FC0001F8
FC0001F8
FC0001F8
FC0001F8
FC0001F8
FC0001F8
FC0001F8
FC0001F8
FC0001F8
FC0001F8
FC0001F8
7C0001F8
7E0001F8
7E0001F8
7E0001F8
7F0003F0
3F0003F0
3F8007F0
1FC00FE0
1FE03FC0
0FFFFFC0
07FFFF80
03FFFF00
01FFFC00
007FF000
00030000
ENDCHAR
STARTCHAR 016B
ENCODING 363
SWIDTH 420 0
DWIDTH 35 0
BBX 25 55 5 -1
BITMAP
0FFFF800
0FFFF800
0FFFF800
0FFFF800
00000000
00000000
00000000
00000000
00000000
00000000
00000000
FC001F80
FC001F80
FC001F80
FC001F80
FC001F80
FC001F80
FC001F80
FC001F80
FC001F80
FC001F80
FC001F80
FC001F80
FC001F80
FC001F80
FC001F80
FC001F80
FC001F80
FC001F80
FC001F80
FC001F80
FC001F80
FC001F80
FC001F80
FC001F80
FC001F80
FC001F80
FC001F80
FC001F80
FC001F80
FC001F80
FC001F80
FC001F80
FC001F80
FC001F80
FC003F80
FE003F80
FF007F80
7F80FF80
7FFFFF80
3FFFFF80
1FFFDF80
0FFF9F80
03FE1F80
00200000
ENDCHAR
STARTCHAR 016C
ENCODING 364
SWIDTH 480 0
DWIDTH 40 0
BBX 29 75 5 -1
BITMAP
03C00F00
03C00E00
03C01E00
01C01E00
01E03C00
00F87C00
00FFF800
003FF000
000FC000
00000000
00000000
00000000
00000000
00000000
00000000
7C0001F8
FC0001F8
FC0001F8
FC0001F8
FC0001F8
FC0001F8
FC0001F8
FC0001F8
FC0001F8
FC0001F8
FC0001F8
FC0001F8
FC0001F8
FC0001F8
FC0001F8
FC0001F8
FC0001F8
FC0001F8
FC0001F8
FC0001F8
FC0001F8
FC0001F8
FC0001F8
FC0001F8
FC0001F8
FC0001F8
FC0001F8
FC0001F8
FC0001F8
FC0001F8
FC0001F8
FC0001F8
FC0001F8
FC0001F8
FC0001F8
FC0001F8
FC0001F8
FC0001F8
FC0001F8
FC0001F8
FC0001F8
FC0001F8
FC0001F8
FC0001F8
FC0001F8
7C0001F8
7E0001F8
7E0001F8
7E0001F8
7F0003F0
3F0003F0
3F8007F0
1FC00FE0
1FE03FC0
0FFFFFC0
07FFFF80
03FFFF00
01FFFC00
007FF000
00030000
ENDCHAR
STARTCHAR 016D
ENCODING 365
SWIDTH 420 0
DWIDTH 35 0
BBX 25 59 5 -1
BITMAP
0E003800
0E007800
0F007800
0F007800
0780F000
07C1E000
03FFE000
01FF8000
007E0000
00000000
00000000
00000000
00000000
00000000
00000000
FC001F80
FC001F80
FC001F80
FC001F80
FC001F80
FC001F80
FC001F80
FC001F80
FC001F80
FC001F80
FC001F80
FC001F80
FC001F80
FC001F80
FC001F80
FC001F80
FC001F80
FC001F80
FC001F80
FC001F80
FC001F80
FC001F80
FC001F80
FC001F80
FC001F80
FC001F80
FC001F80
FC001F80
FC001F80
FC001F80
FC001F80
FC001F80
FC001F80
FC001F80
FC003F80
FE003F80
FF007F80
7F80FF80
7FFFFF80
3FFFFF80
1FFFDF80
0FFF9F80
03FE1F80
00200000
ENDCHAR
STARTCHAR 016E
ENCODING 366
SWIDTH 480 0
DWIDTH 40 0
BBX 29 84 5 -1
BITMAP
000FC000
003FF000
007FF800
00FFFC00
01F87C00
01E03E00
03C01E00
03C00E00
03C00F00
03C00F00
03C00E00
03C01E00
01E01E00
01F07C00
00FFFC00
007FF800
003FF000
000FC000
00000000
00000000
00000000
00000000
00000000
00000000
7C0001F8
FC0001F8
FC0001F8
FC0001F8
FC0001F8
FC0001F8
FC0001F8
FC0001F8
FC0001F8
FC0001F8
FC0001F8
FC0001F8
FC0001F8
FC0001F8
FC0001F8
FC0001F8
FC0001F8
FC0001F8
FC0001F8
FC0001F8
FC0001F8
FC0001F8
FC0001F8
FC0001F8
FC0001F8
FC0001F8
FC0001F8
FC0001F8
FC0001F8
FC0001F8
FC0001F8
FC0001F8
FC0001F8
FC0001F8
FC0001F8
FC0001F8
FC0001F8
FC0001F8
FC0001F8
FC0001F8
FC0001F8
FC0001F8
FC0001F8
FC0001F8
FC0001F8
7C0001F8
7E0001F8
7E0001F8
7E0001F8
7F0003F0
3F0003F0
3F8007F0
1FC00FE0
1FE03FC0
0FFFFFC0
07FFFF80
03FFFF00
01FFFC00
007FF000
00030000
ENDCHAR
STARTCHAR 016F
ENCODING 367
SWIDTH 420 0
DWIDTH 35 0
BBX 25 68 5 -1
BITMAP
007F0000
01FF8000
03FFE000
07FFE000
07C1F000
0F80F800
0F007800
0E007800
0E003800
0E003800
0E007800
0F007800
0F80F800
07C1F000
07FFE000
03FFE000
01FF8000
007E0000
00000000
00000000
00000000
00000000
00000000
00000000
FC001F80
FC001F80
FC001F80
FC001F80
FC001F80
FC001F80
FC001F80
FC001F80
FC001F80
FC001F80
FC001F80
FC001F80
FC001F80
FC001F80
FC001F80
FC001F80
FC001F80
FC001F80
FC001F80
FC001F80
FC001F80
FC001F80
FC001F80
FC001F80
FC001F80
FC001F80
FC001F80
FC001F80
FC001F80
FC001F80
FC001F80
FC001F80
FC001F80
FC001F80
FC003F80
FE003F80
FF007F80
7F80FF80
7FFFFF80
3FFFFF80
1FFFDF80
0FFF9F80
03FE1F80
00200000
ENDCHAR
STARTCHAR 0170
ENCODING 368
SWIDTH 480 0
DWIDTH 40 0
BBX 29 76 5 -1
BITMAP
000FC1F0
000F81F0
001F83E0
001F07E0
003F07C0
003E0F80
007E0F80
007C1F00
00F81F00
00F83E00
01F03E00
00000000
00000000
00000000
00000000
00000000
7C0001F8
FC0001F8
FC0001F8
FC0001F8
FC0001F8
FC0001F8
FC0001F8
FC0001F8
FC0001F8
FC0001F8
FC0001F8
FC0001F8
FC0001F8
FC0001F8
FC0001F8
FC0001F8
FC0001F8
FC0001F8
FC0001F8
FC0001F8
FC0001F8
FC0001F8
FC0001F8
FC0001F8
FC0001F8
FC0001F8
FC0001F8
FC0001F8
FC0001F8
FC0001F8
FC0001F8
FC0001F8
FC0001F8
FC0001F8
FC0001F8
FC0001F8
FC0001F8
FC0001F8
FC0001F8
FC0001F8
FC0001F8
FC0001F8
FC0001F8
FC0001F8
FC0001F8
7C0001F8
7E0001F8
7E0001F8
7E0001F8
7F0003F0
3F0003F0
3F8007F0
1FC00FE0
1FE03FC0
0FFFFFC0
07FFFF80
03FFFF00
01FFFC00
007FF000
00030000
ENDCHAR
STARTCHAR 0171
ENCODING 369
SWIDTH 420 0
DWIDTH 35 0
BBX 26 60 5 -1
BITMAP
003E07C0
007E0F80
007C0F80
00FC1F00
00F81F00
01F83E00
01F07E00
03F07C00
03E0F800
07C0F800
07C0F000
00000000
00000000
00000000
00000000
00000000
FC001F80
FC001F80
FC001F80
FC001F80
FC001F80
FC001F80
FC001F80
FC001F80
FC001F80
FC001F80
FC001F80
FC001F80
FC001F80
FC001F80
FC001F80
FC001F80
FC001F80
FC001F80
FC001F80
FC001F80
FC001F80
FC001F80
FC001F80
FC001F80
FC001F80
FC001F80
FC001F80
FC001F80
FC001F80
FC001F80
FC001F80
FC001F80
FC001F80
FC001F80
FC003F80
FE003F80
FF007F80
7F80FF80
7FFFFF80
3FFFFF80
1FFFDF80
0FFF9F80
03FE1F80
00200000
ENDCHAR
STARTCHAR 0172
ENCODING 370
SWIDTH 480 0
DWIDTH 40 0
BBX 29 74 5 -15
BITMAP
7C0001F8
FC0001F8
FC0001F8
FC0001F8
FC0001F8
FC0001F8
FC0001F8
FC0001F8
FC0001F8
FC0001F8
FC0001F8
FC0001F8
FC0001F8
FC0001F8
FC0001F8
FC0001F8
FC0001F8
FC0001F8
FC0001F8
FC0001F8
FC0001F8
FC0001F8
FC0001F8
FC0001F8
FC0001F8
FC0001F8
FC0001F8
FC0001F8
FC0001F8
FC0001F8
FC0001F8
FC0001F8
FC0001F8
FC0001F8
FC0001F8
FC0001F8
FC0001F8
FC0001F8
FC0001F8
FC0001F8
FC0001F8
FC0001F8
FC0001F8
FC0001F8
7C0001F8
7E0001F8
7E0001F8
7E0001F8
7E0003F8
7F0003F0
3F0007F0
3F8007E0
1FC00FE0
1FF03FC0
0FFFFF80
07FFFF80
03FFFF00
01FFFC00
007FF000
000F0000
001E0000
001E0000
003C0000
003C0000
00780000
00780000
00780000
00780000
007C0000
007E0000
003FC000
003FE000
001FE000
0007E000
ENDCHAR
STARTCHAR 0173
ENCODING 371
SWIDTH 420 0
DWIDTH 35 0
BBX 26 58 5 -15
BITMAP
FC001F80
FC001F80
FC001F80
FC001F80
FC001F80
FC001F80
FC001F80
FC001F80
FC001F80
FC001F80
FC001F80
FC001F80
FC001F80
FC001F80
FC001F80
FC001F80
FC001F80
FC001F80
FC001F80
FC001F80
FC001F80
FC001F80
FC001F80
FC001F80
FC001F80
FC001F80
FC001F80
FC001F80
FC001F80
FC001F80
FC001F80
FC001F80
FC001F80
FC001F80
FC003F80
FE003F80
FF007F80
7F80FF80
7FFFFF80
3FFFFF80
1FFFDF80
0FFF9F80
03FE1F80
00200F80
00001F00
00001E00
00003C00
00007C00
00007800
00007800
00007800
00007800
00007800
00007800
00007E00
00007FC0
00003FC0
00001FC0
ENDCHAR
STARTCHAR 0174
ENCODING 372
SWIDTH 624 0
DWIDTH 52 0
BBX 48 76 2 0
BITMAP
000007C00000
00000FF00000
00001FF00000
00001FF80000
00003EF80000
00003E7C0000
00007C7E0000
0000FC3E0000
0000F81F0000
0001F01F8000
0001F00F8000
000000000000
000000000000
000000000000
000000000000
000000000000
000000000000
FC0003E0003F
7E0007E0007E
7E0007E0007E
7E0007E0007E
7E0007F0007E
7E0007F0007E
7F0007F0007E
3F000FF000FC
3F000FF000FC
3F000FF000FC
3F000FF000FC
3F000FF800FC
1F800FF800F8
1F801FF801F8
1F801FF801F8
1F801F7801F8
1F801F7801F8
0F801E7C01F8
0FC01E7C01F0
0FC01E7C03F0
0FC03E7C03F0
0FC03E3C03F0
07C03E3C03F0
07E03E3E03E0
07E03C3E03E0
07E03C3E07E0
07E07C3E07E0
03E07C3E07E0
03E07C1E07E0
03F07C1F07C0
03F0781F07C0
03F0781F07C0
03F0781F0FC0
01F0F81F0FC0
01F0F80F0F80
01F8F80F0F80
01F8F80F8F80
01F8F00F8F80
00F8F00F9F80
00F8F00F9F80
00FDF0079F00
00FDF0079F00
00FDF007DF00
007DE007DF00
007DE007FF00
007FE007FE00
007FE007FE00
007FE003FE00
003FE003FE00
003FE003FE00
003FC003FE00
003FC003FC00
003FC003FC00
001FC001FC00
001FC001FC00
001FC001FC00
001F8001FC00
001F8001F800
001F8001F800
ENDCHAR
STARTCHAR 0175
ENCODING 373
SWIDTH 552 0
DWIDTH 46 0
BBX 42 60 2 0
BITMAP
00003E000000
00007F800000
00007F800000
0000FFC00000
0001FFE00000
0001F3E00000
0003E1F00000
0007E1F00000
0007C0F80000
000FC0FC0000
000F807C0000
000000000000
000000000000
000000000000
000000000000
000000000000
000000000000
FC003F0007C0
FC003F000FC0
FC003F000FC0
FC003F000FC0
7C003F800F80
7E007F800F80
7E007F801F80
7E007F801F80
3E007F801F80
3E007F801F00
3F00FFC01F00
3F00FFC03F00
3F00FFC03F00
1F00F7C03E00
1F00F3C03E00
1F01F3E03E00
1F81F3E03E00
1F81F3E07E00
0F81E3E07C00
0F81E1E07C00
0F83E1F07C00
0FC3E1F07C00
07C3E1F0FC00
07C3C1F0F800
07C3C0F0F800
07C3C0F8F800
07C7C0F8F800
03E7C0F9F000
03E780F9F000
03E78079F000
03E78079F000
01EF807DF000
01FF807FE000
01FF807FE000
01FF003FE000
01FF003FE000
00FF003FE000
00FF003FC000
00FF003FC000
00FE001FC000
00FE001FC000
007E001FC000
007E001F8000
ENDCHAR
STARTCHAR 0176
ENCODING 374
SWIDTH 420 0
DWIDTH 35 0
BBX 29 76 3 0
BITMAP
000F8000
001FC000
003FE000
003FF000
007DF000
00FCF800
00F8F800
01F07C00
01F07E00
03E03E00
07E01F00
00000000
00000000
00000000
00000000
00000000
00000000
FC0001F8
FE0001F8
7E0003F8
7E0003F0
7F0003F0
3F0007F0
3F0007E0
3F8007E0
1F800FE0
1F800FC0
0F800FC0
0FC00F80
0FC01F80
07C01F80
07E01F00
07E03F00
03E03F00
03F03E00
03F07E00
01F07E00
01F87C00
00F8FC00
00F8F800
00FCF800
007DF800
007DF000
007FF000
003FF000
003FE000
001FE000
001FE000
001FC000
000FC000
000FC000
000FC000
000FC000
000FC000
000FC000
000FC000
000FC000
000FC000
000FC000
000FC000
000FC000
000FC000
000FC000
000FC000
000FC000
000FC000
000FC000
000FC000
000FC000
000FC000
000FC000
000FC000
000FC000
000FC000
000FC000
000FC000
ENDCHAR
STARTCHAR 0177
ENCODING 375
SWIDTH 372 0
DWIDTH 31 0
BBX 27 77 2 -17
BITMAP
001F0000
007F8000
007FC000
00FFC000
00FBE000
01F3E000
03F1F000
03E1F800
07C0F800
07C07C00
0F807C00
00000000
00000000
00000000
00000000
00000000
00000000
FC0007E0
FC0007E0
FC000FE0
FC000FC0
7E000FC0
7E000FC0
7E001FC0
7E001F80
3F001F80
3F001F80
3F001F80
3F003F00
1F003F00
1F803F00
1F803F00
1F803E00
0F807E00
0F807E00
0FC07E00
0FC07C00
07C0FC00
07C0FC00
07E0FC00
07E0F800
03E0F800
03E1F800
03E1F800
03F1F000
01F1F000
01F1F000
01F3F000
01FBE000
00FBE000
00FBE000
00FFE000
00FFC000
007FC000
007FC000
007FC000
007F8000
003F8000
003F8000
003F8000
003F0000
003F0000
003F0000
003E0000
007E0000
007E0000
007E0000
00FC0000
00FC0000
01FC0000
03F80000
0FF80000
7FF00000
7FF00000
7FE00000
7F800000
7E000000
ENDCHAR
STARTCHAR 0178
ENCODING 376
SWIDTH 420 0
DWIDTH 35 0
BBX 29 75 3 0
BITMAP
03E01E00
07F07F00
0FF87F80
0FF8FF80
0FF8FFC0
0FF8FF80
0FF87F80
07F07F00
03E01E00
00000000
00000000
00000000
00000000
00000000
00000000
00000000
FC0001F8
FE0001F8
7E0003F8
7E0003F0
7F0003F0
3F0007F0
3F0007E0
3F8007E0
1F800FE0
1F800FC0
0F800FC0
0FC00F80
0FC01F80
07C01F80
07E01F00
07E03F00
03E03F00
03F03E00
03F07E00
01F07E00
01F87C00
00F8FC00
00F8F800
00FCF800
007DF800
007DF000
007FF000
003FF000
003FE000
001FE000
001FE000
001FC000
000FC000
000FC000
000FC000
000FC000
000FC000
000FC000
000FC000
000FC000
000FC000
000FC000
000FC000
000FC000
000FC000
000FC000
000FC000
000FC000
000FC000
000FC000
000FC000
000FC000
000FC000
000FC000
000FC000
000FC000
000FC000
000FC000
000FC000
ENDCHAR
STARTCHAR 0179
ENCODING 377
SWIDTH 396 0
DWIDTH 33 0
BBX 27 75 3 0
BITMAP
0001F000
0001F000
0003E000
0007C000
0007C000
000F8000
000F8000
001F0000
001E0000
003E0000
003C0000
00000000
00000000
00000000
00000000
00000000
FFFFFFE0
FFFFFFE0
FFFFFFE0
FFFFFFE0
FFFFFFE0
00000FC0
00000FC0
00001FC0
00001F80
00003F80
00003F00
00003F00
00007F00
00007E00
0000FE00
0000FC00
0000FC00
0001F800
0001F800
0003F800
0003F000
0007F000
0007E000
0007E000
000FE000
000FC000
001FC000
001F8000
003F8000
003F0000
003F0000
007F0000
007E0000
00FE0000
00FC0000
00FC0000
01F80000
01F80000
03F80000
03F00000
07F00000
07E00000
07E00000
0FE00000
0FC00000
1FC00000
1F800000
3F800000
3F000000
3F000000
7F000000
7E000000
FE000000
FC000000
FFFFFFE0
FFFFFFE0
FFFFFFE0
FFFFFFE0
FFFFFFE0
ENDCHAR
STARTCHAR 017A
ENCODING 378
SWIDTH 360 0
DWIDTH 30 0
BBX 24 59 3 0
BITMAP
0003E0
0007E0
0007C0
000F80
000F80
001F00
001F00
003E00
003C00
007C00
007800
000000
000000
000000
000000
000000
FFFFFF
FFFFFF
FFFFFF
FFFFFF
FFFFFF
00007F
0000FF
0000FE
0001FC
0001FC
0003F8
0003F8
0007F0
0007F0
000FE0
000FE0
001FC0
001FC0
003F80
007F80
007F00
00FF00
00FE00
01FC00
01FC00
03F800
03F800
07F000
07F000
0FE000
0FE000
1FC000
1FC000
3F8000
3F8000
7F0000
FE0000
FE0000
FFFFFF
FFFFFF
FFFFFF
FFFFFF
FFFFFF
ENDCHAR
STARTCHAR 017B
ENCODING 379
SWIDTH 396 0
DWIDTH 33 0
BBX 27 75 3 0
BITMAP
001F0000
003F8000
007FC000
007FC000
007FC000
007FC000
007FC000
003F8000
001F0000
00000000
00000000
00000000
00000000
00000000
00000000
00000000
FFFFFFE0
FFFFFFE0
FFFFFFE0
FFFFFFE0
FFFFFFE0
00000FC0
00000FC0
00001FC0
00001F80
00003F80
00003F00
00003F00
00007F00
00007E00
0000FE00
0000FC00
0000FC00
0001F800
0001F800
0003F800
0003F000
0007F000
0007E000
0007E000
000FE000
000FC000
001FC000
001F8000
003F8000
003F0000
003F0000
007F0000
007E0000
00FE0000
00FC0000
00FC0000
01F80000
01F80000
03F80000
03F00000
07F00000
07E00000
07E00000
0FE00000
0FC00000
1FC00000
1F800000
3F800000
3F000000
3F000000
7F000000
7E000000
FE000000
FC000000
FFFFFFE0
FFFFFFE0
FFFFFFE0
FFFFFFE0
FFFFFFE0
ENDCHAR
STARTCHAR 017C
ENCODING 380
SWIDTH 360 0
DWIDTH 30 0
BBX 24 59 3 0
BITMAP
003E00
007F00
00FF80
00FF80
00FF80
00FF80
00FF80
007F00
003E00
000000
000000
000000
000000
000000
000000
000000
FFFFFF
FFFFFF
FFFFFF
FFFFFF
FFFFFF
00007F
0000FF
0000FE
0001FC
0001FC
0003F8
0003F8
0007F0
0007F0
000FE0
000FE0
001FC0
001FC0
003F80
007F80
007F00
00FF00
00FE00
01FC00
01FC00
03F800
03F800
07F000
07F000
0FE000
0FE000
1FC000
1FC000
3F8000
3F8000
7F0000
FE0000
FE0000
FFFFFF
FFFFFF
FFFFFF
FFFFFF
FFFFFF
ENDCHAR
STARTCHAR 017D
ENCODING 381
SWIDTH 396 0
DWIDTH 33 0
BBX 27 76 3 0
BITMAP
07803C00
0FC07E00
07C07C00
03E0F800
03F1F800
01F1F000
00FBE000
00FFE000
007FC000
007FC000
003F8000
00000000
00000000
00000000
00000000
00000000
00000000
FFFFFFE0
FFFFFFE0
FFFFFFE0
FFFFFFE0
FFFFFFE0
00000FC0
00000FC0
00001FC0
00001F80
00003F80
00003F00
00003F00
00007F00
00007E00
0000FE00
0000FC00
0000FC00
0001F800
0001F800
0003F800
0003F000
0007F000
0007E000
0007E000
000FE000
000FC000
001FC000
001F8000
003F8000
003F0000
003F0000
007F0000
007E0000
00FE0000
00FC0000
00FC0000
01F80000
01F80000
03F80000
03F00000
07F00000
07E00000
07E00000
0FE00000
0FC00000
1FC00000
1F800000
3F800000
3F000000
3F000000
7F000000
7E000000
FE000000
FC000000
FFFFFFE0
FFFFFFE0
FFFFFFE0
FFFFFFE0
FFFFFFE0
ENDCHAR
STARTCHAR 017E
ENCODING 382
SWIDTH 360 0
DWIDTH 30 0
BBX 24 60 3 0
BITMAP
0F0078
1F80FC
0F81F8
07C1F0
07C3F0
03E3E0
03F7C0
01FFC0
00FF80
00FF00
007F00
000000
000000
000000
000000
000000
000000
FFFFFF
FFFFFF
FFFFFF
FFFFFF
FFFFFF
00007F
0000FF
0000FE
0001FC
0001FC
0003F8
0003F8
0007F0
0007F0
000FE0
000FE0
001FC0
001FC0
003F80
007F80
007F00
00FF00
00FE00
01FC00
01FC00
03F800
03F800
07F000
07F000
0FE000
0FE000
1FC000
1FC000
3F8000
3F8000
7F0000
FE0000
FE0000
FFFFFF
FFFFFF
FFFFFF
FFFFFF
FFFFFF
ENDCHAR
STARTCHAR 018F
ENCODING 399
SWIDTH 516 0
DWIDTH 43 0
BBX 35 60 4 -1
BITMAP
0007FC0000
003FFF8000
00FFFFE000
03FFFFF000
07FFFFFC00
0FFE0FFE00
1FF001FE00
1FE000FF00
3FC0007F80
3F80003F80
7F00001F80
7F00001FC0
7E00000FC0
7E00000FC0
FE00000FC0
00000007E0
00000007E0
00000007E0
00000007E0
00000007E0
00000007E0
00000007E0
00000007E0
00000007E0
00000007E0
00000007E0
00000007E0
00000007E0
FFFFFFFFE0
FFFFFFFFE0
FFFFFFFFE0
FFFFFFFFE0
FFFFFFFFE0
FC000007E0
FC000007E0
FC000007E0
FC000007E0
FC000007E0
FC000007E0
FC000007E0
FC000007E0
FC000007E0
FC000007E0
FC000007E0
FC00000FC0
FC00000FC0
7E00000FC0
7E00001FC0
7F00001FC0
7F00003F80
3F80003F80
3FC0007F00
1FE001FF00
0FF803FE00
07FFFFFC00
03FFFFF800
01FFFFF000
007FFFC000
001FFF0000
0000400000
ENDCHAR
STARTCHAR 0192
ENCODING 402
SWIDTH 468 0
DWIDTH 39 0
BBX 34 76 2 -17
BITMAP
0000001FC0
000000FFC0
000001FFC0
000003FFC0
000007FFC0
00000FF800
00000FE000
00001FC000
00001FC000
00001F8000
00001F8000
00003F8000
00003F0000
00003F0000
00003F0000
00003F0000
00003F0000
00007F0000
00007E0000
00007E0000
00007E0000
00007E0000
00007E0000
0000FC0000
0000FC0000
003FFFF800
003FFFF800
003FFFF800
003FFFF800
003FFFF800
0001F80000
0001F80000
0001F80000
0001F80000
0001F80000
0003F80000
0003F00000
0003F00000
0003F00000
0003F00000
0003F00000
0003F00000
0007E00000
0007E00000
0007E00000
0007E00000
0007E00000
0007E00000
000FE00000
000FC00000
000FC00000
000FC00000
000FC00000
000FC00000
001FC00000
001F800000
001F800000
001F800000
001F800000
001F800000
001F800000
003F000000
003F000000
003F000000
003F000000
007F000000
007E000000
007E000000
00FE000000
01FC000000
07FC000000
7FF8000000
FFF8000000
FFF0000000
FFC0000000
FF00000000
ENDCHAR
STARTCHAR 01A0
ENCODING 416
SWIDTH 456 0
DWIDTH 38 0
BBX 28 67 5 -1
BITMAP
000000F0
000000E0
000000E0
000001E0
000001E0
000003E0
000007C0
003FFF80
01FFFF00
07FFFE00
0FFFFF00
1FFFFF80
3FF0FFC0
3F801FE0
7F000FE0
7E0007E0
FE0007F0
FC0003F0
FC0003F0
FC0003F0
FC0003F0
FC0003F0
FC0003F0
FC0003F0
FC0003F0
FC0003F0
FC0003F0
FC0003F0
FC0003F0
FC0003F0
FC0003F0
FC0003F0
FC0003F0
FC0003F0
FC0003F0
FC0003F0
FC0003F0
FC0003F0
FC0003F0
FC0003F0
FC0003F0
FC0003F0
FC0003F0
FC0003F0
FC0003F0
FC0003F0
FC0003F0
FC0003F0
FC0003F0
FC0003F0
FC0003F0
FC0003F0
FC0003F0
FC0003F0
FC0003F0
FC0003F0
FC0003F0
FE0007F0
7F000FE0
7F801FE0
3FC03FC0
1FFFFF80
0FFFFF00
07FFFE00
03FFFC00
00FFF000
00060000
ENDCHAR
STARTCHAR 01A1
ENCODING 417
SWIDTH 420 0
DWIDTH 35 0
BBX 27 51 4 -1
BITMAP
000000C0
000001E0
000001E0
000001E0
000003C0
000003C0
00000F80
007FFF80
01FFFF00
07FFFC00
0FFFFE00
1FFFFF00
3FE1FF80
3F807F80
7F003FC0
7E001FC0
7E000FC0
FC000FC0
FC000FC0
FC000FC0
FC000FC0
FC000FC0
FC000FC0
FC000FC0
FC000FC0
FC000FC0
FC000FC0
FC000FC0
FC000FC0
FC000FC0
FC000FC0
FC000FC0
FC000FC0
FC000FC0
FC000FC0
FC000FC0
FC000FC0
FC000FC0
FC000FC0
FC000FC0
FE000FC0
7E000FC0
7F001FC0
7F003F80
3FC07F80
3FFFFF00
1FFFFE00
0FFFFC00
03FFF800
01FFE000
00040000
ENDCHAR
STARTCHAR 01AF
ENCODING 431
SWIDTH 480 0
DWIDTH 40 0
BBX 36 67 5 -1
BITMAP
00000000F0
00000000F0
00000000E0
00000001E0
00000001E0
00000003E0
00000007C0
7C0001FFC0
FC0001FF80
FC0001FE00
FC0001F800
FC0001F800
FC0001F800
FC0001F800
FC0001F800
FC0001F800
FC0001F800
FC0001F800
FC0001F800
FC0001F800
FC0001F800
FC0001F800
FC0001F800
FC0001F800
FC0001F800
FC0001F800
FC0001F800
FC0001F800
FC0001F800
FC0001F800
FC0001F800
FC0001F800
FC0001F800
FC0001F800
FC0001F800
FC0001F800
FC0001F800
FC0001F800
FC0001F800
FC0001F800
FC0001F800
FC0001F800
FC0001F800
FC0001F800
FC0001F800
FC0001F800
FC0001F800
FC0001F800
FC0001F800
FC0001F800
FC0001F800
FC0001F800
7C0001F800
7E0001F800
7E0001F800
7E0001F800
7F0003F000
3F0003F000
3F8007F000
1FC00FE000
1FE03FC000
0FFFFFC000
07FFFF8000
03FFFF0000
01FFFC0000
007FF00000
0003000000
ENDCHAR
STARTCHAR 01B0
ENCODING 432
SWIDTH 420 0
DWIDTH 35 0
BBX 32 51 5 -1
BITMAP
00000006
0000000F
0000000E
0000000E
0000001E
0000003E
0000007C
FC001FF8
FC001FF0
FC001FE0
FC001F80
FC001F80
FC001F80
FC001F80
FC001F80
FC001F80
FC001F80
FC001F80
FC001F80
FC001F80
FC001F80
FC001F80
FC001F80
FC001F80
FC001F80
FC001F80
FC001F80
FC001F80
FC001F80
FC001F80
FC001F80
FC001F80
FC001F80
FC001F80
FC001F80
FC001F80
FC001F80
FC001F80
FC001F80
FC001F80
FC001F80
FC003F80
FE003F80
FF007F80
7F80FF80
7FFFFF80
3FFFFF80
1FFFDF80
0FFF9F80
03FE1F80
00200000
ENDCHAR
STARTCHAR 01CD
ENCODING 461
SWIDTH 408 0
DWIDTH 34 0
BBX 32 76 1 0
BITMAP
00E00780
01F00F80
00F81F80
00FC1F00
007C3E00
003E7E00
003E7C00
001FF800
001FF800
000FF000
0007F000
00000000
00000000
00000000
00000000
00000000
00000000
0007E000
000FF000
000FF000
000FF000
000FF000
000FF000
001FF800
001FF800
001FF800
001FF800
003FFC00
003E7C00
003E7C00
003E7C00
003E7C00
007E7E00
007C3E00
007C3E00
007C3E00
00FC3F00
00FC3F00
00F81F00
00F81F00
00F81F00
01F81F80
01F80F80
01F00F80
01F00F80
01F00FC0
03F00FC0
03F007C0
03E007C0
03E007C0
07E007E0
07E007E0
07E003E0
07C003E0
07C003F0
0FC003F0
0FC003F0
0F8001F0
0F8001F0
1FFFFFF8
1FFFFFF8
1FFFFFF8
1FFFFFF8
1FFFFFFC
3F0000FC
3F0000FC
3F0000FC
3F00007C
7E00007E
7E00007E
7E00007E
7E00007E
7E00003F
FC00003F
FC00003F
FC00003F
ENDCHAR
STARTCHAR 01CE
ENCODING 462
SWIDTH 408 0
DWIDTH 34 0
BBX 27 61 3 -1
BITMAP
03801E00
07E03E00
03E07E00
03F07C00
01F0F800
00F8F800
00F9F000
007FF000
003FE000
003FC000
001FC000
00000000
00000000
00000000
00000000
00000000
00000000
003FC000
00FFF800
03FFFC00
07FFFE00
0FFFFF00
1FF0FF80
1FC03FC0
3F801FC0
3F800FC0
3F000FE0
3F0007E0
3F0007E0
000007E0
000007E0
000007E0
000007E0
000007E0
000007E0
007FFFE0
01FFFFE0
07FFFFE0
0FFFFFE0
1FFFFFE0
3FF007E0
3F8007E0
7F0007E0
7F0007E0
7E0007E0
7E0007E0
FE0007E0
FC0007E0
FC0007E0
FC0007E0
FE0007E0
FE000FE0
7E001FE0
7F003FE0
7FC07FE0
3FFFFFE0
3FFFFFE0
1FFFF7E0
07FFE7E0
03FF87E0
00100000
ENDCHAR
STARTCHAR 01D4
ENCODING 468
SWIDTH 420 0
DWIDTH 35 0
BBX 25 61 5 -1
BITMAP
0F007800
1F80FC00
0F80F800
07C1F000
07E3F000
03E3E000
01F7C000
01FFC000
00FF8000
00FF0000
007F0000
00000000
00000000
00000000
00000000
00000000
00000000
FC001F80
FC001F80
FC001F80
FC001F80
FC001F80
FC001F80
FC001F80
FC001F80
FC001F80
FC001F80
FC001F80
FC001F80
FC001F80
FC001F80
FC001F80
FC001F80
FC001F80
FC001F80
FC001F80
FC001F80
FC001F80
FC001F80
FC001F80
FC001F80
FC001F80
FC001F80
FC001F80
FC001F80
FC001F80
FC001F80
FC001F80
FC001F80
FC001F80
FC001F80
FC003F80
FE003F80
FF007F80
7F80FF80
7FFFFF80
3FFFFF80
1FFFDF80
0FFF9F80
03FE1F80
00200000
ENDCHAR
STARTCHAR 01E5
ENCODING 485
SWIDTH 420 0
DWIDTH 35 0
BBX 31 60 4 -17
BITMAP
00FE0FC0
03FF8FC0
0FFFCFC0
1FFFEFC0
3FFFFFC0
3FE1FFC0
7F807FC0
7F003FC0
7E001FC0
FE000FC0
FC000FC0
FC000FC0
FC000FC0
FC000FC0
FC000FC0
FC000FC0
FC000FC0
FC000FC0
FC000FC0
FC000FC0
FC0FFFFE
FC0FFFFE
FC0FFFFE
FC0FFFFE
FC000FC0
FC000FC0
FC000FC0
FC000FC0
FC000FC0
FC000FC0
FC000FC0
FC000FC0
FC000FC0
FE000FC0
7E001FC0
7F003FC0
7F807FC0
3FE1FFC0
3FFFFFC0
1FFFEFC0
0FFFCFC0
07FF8FC0
00FE0FC0
00000FC0
00000FC0
00000FC0
00000FC0
00000FC0
00001F80
00001F80
00003F80
00003F00
00007F00
0001FE00
000FFE00
01FFFC00
01FFF800
01FFE000
01FF8000
01FC0000
ENDCHAR
STARTCHAR 01E7
ENCODING 487
SWIDTH 408 0
DWIDTH 34 0
BBX 26 77 4 -17
BITMAP
07803C00
0FC07E00
07C0FC00
03E0F800
03E1F800
01F1F000
01FBE000
00FFE000
007FC000
007F8000
003F8000
00000000
00000000
00000000
00000000
00000000
00000000
00FE0FC0
03FF8FC0
0FFFCFC0
1FFFEFC0
3FFFFFC0
3FE1FFC0
7F807FC0
7F003FC0
7E001FC0
FE000FC0
FC000FC0
FC000FC0
FC000FC0
FC000FC0
FC000FC0
FC000FC0
FC000FC0
FC000FC0
FC000FC0
FC000FC0
FC000FC0
FC000FC0
FC000FC0
FC000FC0
FC000FC0
FC000FC0
FC000FC0
FC000FC0
FC000FC0
FC000FC0
FC000FC0
FC000FC0
FC000FC0
FE000FC0
7E001FC0
7F003FC0
7F807FC0
3FE1FFC0
3FFFFFC0
1FFFEFC0
0FFFCFC0
07FF8FC0
00FE0FC0
00000FC0
00000FC0
00000FC0
00000FC0
00000FC0
00001F80
00001F80
00003F80
00003F00
00007F00
0001FE00
000FFE00
01FFFC00
01FFF800
01FFE000
01FF8000
01FC0000
ENDCHAR
STARTCHAR 01E9
ENCODING 489
SWIDTH 408 0
DWIDTH 34 0
BBX 26 76 5 0
BITMAP
0F007800
1F80FC00
0F81F800
07C1F000
07C3F000
03E3E000
03F7C000
01FFC000
00FF8000
00FF0000
007F0000
00000000
00000000
00000000
00000000
00000000
00000000
FC000000
FC000000
FC000000
FC000000
FC000000
FC000000
FC000000
FC000000
FC000000
FC000000
FC000000
FC000000
FC000000
FC000000
FC000000
FC000000
FC001F80
FC003F00
FC003F00
FC007E00
FC00FC00
FC00FC00
FC01F800
FC03F000
FC07F000
FC07E000
FC0FC000
FC1FC000
FC1F8000
FC3F0000
FC7F8000
FC7F8000
FCFF8000
FDFFC000
FDFFC000
FFF7C000
FFE7E000
FFC3E000
FFC3E000
FF83F000
FF01F000
FF01F000
FE01F800
FC01F800
FC00FC00
FC00FC00
FC00FC00
FC007E00
FC007E00
FC007E00
FC003F00
FC003F00
FC003F00
FC001F80
FC001F80
FC001F80
FC000FC0
FC000FC0
FC000FC0
ENDCHAR
STARTCHAR 01EF
ENCODING 495
SWIDTH 444 0
DWIDTH 37 0
BBX 29 77 4 -17
BITMAP
03C01E00
07E03F00
03E03E00
01F07C00
01F8FC00
00F8F800
007DF000
007FF000
003FE000
003FC000
001FC000
00000000
00000000
00000000
00000000
00000000
00000000
7FFFFFC0
7FFFFFC0
7FFFFFC0
7FFFFFC0
7FFFFFC0
00003FC0
00007F80
00007F00
0000FE00
0001FC00
0003F800
0007F000
000FE000
001FC000
003FC000
007F8000
00FF0000
01FE0000
01FC0000
03F80000
07F00000
0FE00000
1FFF0000
3FFFE000
1FFFF800
1FFFFC00
1FFFFE00
0001FF00
00007F80
00001FC0
00000FE0
000007E0
000007F0
000003F0
000003F0
000001F8
000001F8
000001F8
000001F8
000001F8
000001F8
000001F8
000001F8
000001F8
000001F8
000001F8
000003F0
000003F0
000007F0
000007E0
00000FE0
00001FC0
00007F80
0001FF80
F00FFF00
FFFFFE00
FFFFF800
FFFFE000
FFFF8000
0FFC0000
ENDCHAR
STARTCHAR 01FF
ENCODING 511
SWIDTH 420 0
DWIDTH 35 0
BBX 27 63 4 -4
BITMAP
0001F000
0003F000
0003E000
0007C000
0007C000
000F8000
000F8000
001F0000
001E0000
003E0000
003C0000
00000000
00000200
00000380
000007E0
000007C0
007FCFC0
01FFFF80
07FFFF80
0FFFFF80
1FFFFF00
3FE1FF00
3F807F80
7F007FC0
7E007FC0
7E007FC0
FE00FFC0
FC00FFC0
FC01FFC0
FC01F7E0
FC03F7E0
FC03E7E0
FC07E7E0
FC07C7E0
FC0FC7E0
FC0F87E0
FC0F87E0
FC1F87E0
FC1F07E0
FC3F07E0
FC3E07E0
FC7E07E0
FC7C07E0
FCFC07E0
FCF807E0
FCF807E0
FDF807E0
FDF007C0
FFF00FC0
FFE00FC0
7FE00FC0
7FC01FC0
7FC03F80
3FC07F80
3FFFFF00
1FFFFE00
1FFFFC00
3FFFF800
3EFFE000
7E060000
7C000000
3C000000
08000000
ENDCHAR
STARTCHAR 0218
ENCODING 536
SWIDTH 420 0
DWIDTH 35 0
BBX 28 75 3 -16
BITMAP
003FC000
01FFF800
03FFFC00
0FFFFE00
0FFFFF00
1FF0FF80
3FC03FC0
3F001FC0
7F000FE0
7E0007E0
7E0007E0
7C0003F0
FC0003F0
FC0003F0
FC0003F0
FC0003F0
7C0003F0
7E0003F0
7E000000
7F000000
3F000000
3F800000
1FC00000
1FE00000
0FF00000
07FC0000
03FE0000
01FF0000
00FFC000
007FE000
001FF000
000FFC00
0007FE00
0001FF00
0000FF80
00007F80
00003FC0
00001FE0
00000FE0
000007F0
000003F0
000003F0
7C0003F0
FC0003F0
FC0003F0
FC0003F0
7C0003F0
7E0003F0
7E0003F0
7E0003F0
7F0007E0
3F000FE0
3F801FC0
1FE03FC0
1FFFFF80
0FFFFF00
07FFFE00
01FFFC00
007FF000
00020000
00000000
00000000
00000000
00000000
0000F800
0001F000
0001F000
0003E000
0007C000
0007C000
000F8000
000F0000
001F0000
001E0000
003E0000
ENDCHAR
STARTCHAR 0219
ENCODING 537
SWIDTH 372 0
DWIDTH 31 0
BBX 26 58 3 -15
BITMAP
007F8000
03FFF000
07FFF800
0FFFFC00
1FFFFE00
3FE1FF00
3F807F00
7F003F80
7E001F80
7E001F80
7E000F80
7C000F80
7C000F80
7E000000
7E000000
7F000000
3F800000
3FE00000
1FF80000
0FFE0000
07FF8000
01FFE000
007FF800
001FFC00
0003FE00
0000FF00
00007F00
00003F80
00001F80
00000FC0
7C000FC0
FC000FC0
FC000FC0
FC000FC0
7E001F80
7F003F80
7F807F80
3FE1FF00
3FFFFF00
1FFFFE00
07FFFC00
03FFF000
007FC000
00000000
00000000
00000000
00000000
0001F000
0003E000
0007E000
0007C000
000F8000
000F8000
001F0000
001E0000
003E0000
003C0000
007C0000
ENDCHAR
STARTCHAR 021A
ENCODING 538
SWIDTH 420 0
DWIDTH 35 0
BBX 29 74 3 -15
BITMAP
FFFFFFF8
FFFFFFF8
FFFFFFF8
FFFFFFF8
FFFFFFF8
001F8000
001F8000
001F8000
001F8000
001F8000
001F8000
001F8000
001F8000
001F8000
001F8000
001F8000
001F8000
001F8000
001F8000
001F8000
001F8000
001F8000
001F8000
001F8000
001F8000
001F8000
001F8000
001F8000
001F8000
001F8000
001F8000
001F8000
001F8000
001F8000
001F8000
001F8000
001F8000
001F8000
001F8000
001F8000
001F8000
001F8000
001F8000
001F8000
001F8000
001F8000
001F8000
001F8000
001F8000
001F8000
001F8000
001F8000
001F8000
001F8000
001F8000
001F8000
001F8000
001F8000
001F8000
00000000
00000000
00000000
00000000
001F0000
003E0000
007E0000
007C0000
00F80000
00F80000
01F00000
01E00000
03E00000
03C00000
07C00000
ENDCHAR
STARTCHAR 021B
ENCODING 539
SWIDTH 264 0
DWIDTH 22 0
BBX 18 67 2 -14
BITMAP
07C000
07C000
07C000
07C000
07C000
07C000
07C000
07C000
07C000
07C000
FFFFC0
FFFFC0
FFFFC0
FFFFC0
07C000
07C000
07C000
07C000
07C000
07C000
07C000
07C000
07C000
07C000
07C000
07C000
07C000
07C000
07C000
07C000
07C000
07C000
07C000
07C000
07C000
07C000
07C000
07C000
07C000
07C000
07C000
07C000
07E000
07E000
07E000
07E000
07F000
07FC00
07FF80
03FFC0
01FFC0
00FFC0
003F80
000000
000000
000000
0007C0
000F80
001F80
001F00
003E00
003E00
007C00
007800
00F800
00F000
01F000
ENDCHAR
STARTCHAR 021F
ENCODING 543
SWIDTH 420 0
DWIDTH 35 0
BBX 26 76 5 0
BITMAP
07803C00
0FC07E00
07C0FC00
03E0F800
03E1F800
01F1F000
01FBE000
00FFE000
007FC000
007F8000
003F8000
00000000
00000000
00000000
00000000
00000000
00000000
FC000000
FC000000
FC000000
FC000000
FC000000
FC000000
FC000000
FC000000
FC000000
FC000000
FC000000
FC000000
FC000000
FC000000
FC000000
FC000000
FC0FE000
FC7FF800
FCFFFC00
FDFFFE00
FFFFFF00
FFE1FF00
FF807F80
FF003F80
FE001F80
FE001F80
FC001FC0
FC000FC0
FC000FC0
FC000FC0
FC000FC0
FC000FC0
FC000FC0
FC000FC0
FC000FC0
FC000FC0
FC000FC0
FC000FC0
FC000FC0
FC000FC0
FC000FC0
FC000FC0
FC000FC0
FC000FC0
FC000FC0
FC000FC0
FC000FC0
FC000FC0
FC000FC0
FC000FC0
FC000FC0
FC000FC0
FC000FC0
FC000FC0
FC000FC0
FC000FC0
FC000FC0
FC000FC0
FC000FC0
ENDCHAR
ENDFONT
